<?xml version="1.0" encoding="utf-8"?>
<!-- Generator: Adobe Illustrator 15.1.0, SVG Export Plug-In . SVG Version: 6.00 Build 0)  -->
<!DOCTYPE svg PUBLIC "-//W3C//DTD SVG 1.1//EN" "http://www.w3.org/Graphics/SVG/1.1/DTD/svg11.dtd">
<svg version="1.1" id="Ebene_1" xmlns="http://www.w3.org/2000/svg" xmlns:xlink="http://www.w3.org/1999/xlink" x="0px" y="0px"
	 width="245px" height="66px" viewBox="0 0 245 66" enable-background="new 0 0 245 66" xml:space="preserve">
<g>
	<path fill-rule="evenodd" clip-rule="evenodd" fill="#FFFFFF" d="M240.619,28.905c-0.393-1.041-0.086-1.805-0.108-2.922
		c-0.41-0.693-1.366-1.225-1.299-2.057c-0.07-0.146-0.231-0.202-0.433-0.216c-0.1-0.71-0.076-1.152-0.325-1.948
		c-0.194-0.014-0.228,0.132-0.432,0.108c-0.18-0.519-0.258-0.594-0.435-0.975c-0.096,0.084-0.243,0.117-0.433,0.108
		c0.109-0.542-0.484-0.38-0.54-0.757c-0.111,0.105-0.22,0.214-0.326,0.325c-0.979-0.605-1.995,0.586-3.138,0.433
		c-0.303-0.041-0.479-0.163-1.082,0c-0.201,0.016-0.067,0.367-0.217,0.433c-0.174-0.152-0.276-0.373-0.325-0.649
		c-0.234-0.018-0.048,0.384-0.107,0.542c-0.646-0.19-0.824-0.217-1.191,0.216c-0.029-0.174,0.103-0.186,0.108-0.324
		c-0.305-0.016-0.312,0.265-0.324,0.541c-0.066-0.032-0.417-0.269-0.433,0c-0.146-0.072-0.202-0.231-0.218-0.433
		c-0.116,0.026-0.073,0.214-0.216,0.216c-0.003-0.105-0.132-0.083-0.217-0.108c0.021,0.193-0.241,0.292-0.432,0.541
		c-0.313-0.455-0.595-0.026-0.975-0.433c-0.39,0.634-0.981-0.215-1.515,0.325c-0.122-0.038-0.312-0.535-0.434-0.217
		c-0.108,0-0.217,0-0.324,0c-0.066-0.157-0.132,0.012,0,0c-0.026,0.118-0.216,0.074-0.217,0.217
		c-0.471-0.251-0.957-0.001-1.19-0.325c-0.156,0.025-0.038,0.323-0.217,0.325c-0.505-0.026-0.088-0.301-0.433-0.433
		c-0.118,0.243-0.294,0.428-0.649,0.433c0-0.108,0-0.217,0-0.325c-0.362,0.088-0.576,0.088-0.758,0.542
		c-0.422-0.232-0.498-0.206-0.974-0.325c-0.021-0.123-0.109-0.06-0.109,0c-0.611-0.032-1.943,0.032-2.921,0
		c0.449,0.104,0.021-0.324,0,0c-0.438-0.118-0.96,0.292-1.516-0.109c0.157-0.066-0.011-0.13,0,0
		c-0.088-0.02-0.108-0.108-0.217-0.108c-0.149,0.108,0.046,0.179-0.217,0.325c-0.362-0.63-1.001,0.093-1.299-0.325
		c-0.065-0.157-0.131,0.011,0,0c0.06,0.24-0.206,0.154-0.216,0.325c-0.403,0.114-0.172-0.407-0.542-0.325
		c0.079,0.277-0.761,0.089-0.757-0.108c-0.411-0.159-0.021,0.484-0.433,0.325c-0.031-0.175,0.102-0.187,0.107-0.325
		c-0.487,0.414-0.995,0.097-1.299,0.325c-0.003-0.105-0.132-0.084-0.216-0.109c0-0.036,0-0.072,0-0.108
		c-0.123,0.021-0.06,0.108,0,0.108c-0.026,0.118-0.216,0.074-0.217,0.217c-0.189-0.25-0.404-0.396-0.758-0.217
		c-0.003-0.104-0.132-0.083-0.217-0.108c0.004,0.105,0.133,0.084,0.217,0.108c-1.02-0.067-1.7,0.299-2.163-0.324
		c-0.127,0.198-0.707-0.057-0.542,0.433c-0.241-0.047-0.387-0.191-0.434-0.433c-0.158,0.187-1.017,0.728-1.298,0.108
		c-0.127,0.018-0.092,0.197-0.108,0.325c-0.35,0.097-0.152-0.354-0.325-0.433c-0.419-0.095-0.177,0.472-0.649,0.324
		c-0.178-0.541-0.777,0.319-0.974-0.324c-0.018,0.343-0.448,0.273-0.65,0.433c-0.126-0.018-0.091-0.197-0.107-0.325
		c-0.276-0.117-0.379,0.466-0.541,0.108c0.157-0.066-0.012-0.13,0,0c-0.176,0.03-0.187-0.102-0.324-0.108
		c0.079,0.253-0.394,0.234-0.866,0.216c0-0.108,0-0.216,0-0.324c-0.348-0.095-0.225,0.281-0.434,0.324
		c-0.002-0.214-0.295-0.137-0.216-0.432c-0.258,0.166-0.568,0.509-0.649,0c-0.193,0.353-0.656,0.403-0.974,0.108
		c0.11,0.537-0.455-0.057-0.975,0c-0.071,0.007-0.116,0.215-0.108,0.216c-0.318-0.02-1.1-0.33-1.407-0.216
		c-0.306,0.113-0.407,0.381-0.758,0c-0.02-0.123-0.108-0.061-0.107,0c-0.763,0.274-1.519,0.122-2.058,0c0.158-0.067-0.01-0.131,0,0
		c-0.345,0.262-0.38,0.131-0.757,0c0-0.037,0-0.073,0-0.108c-0.123,0.02-0.061,0.108,0,0.108c-0.777,0.206-1.184-0.082-2.056,0
		c0.157-0.067-0.012-0.131,0,0c-0.379-0.201-0.342,0.097-0.542,0.324c-0.05-0.31-0.431-0.29-0.541-0.541
		c-0.102,0.09-0.35,0.572-0.541,0.217c0.157-0.067-0.011-0.131,0,0c-0.097,0.047-0.193,0.095-0.217,0.216
		c-0.254-0.222-0.18-0.155-0.541-0.324c-0.02-0.124-0.108-0.061-0.108,0c-1.214,0.337-2.354-0.261-3.896,0.216
		c-0.69-0.575-2.079,0.21-2.598-0.433c-0.236-0.02-0.344,0.088-0.325,0.325c-1.285-0.419-2.417,0.144-3.572-0.325
		c-0.27-0.018-0.338,0.166-0.432,0.325c-0.213-0.284-0.918-0.38-1.083-0.108c-4.163-0.28-6.71-0.076-9.957,0
		c-1.073-0.267-2.117-0.092-3.354,0.108c-0.133-0.048-0.222-0.139-0.217-0.325c-0.271-0.018-0.339,0.166-0.433,0.325
		c-0.463-0.673-2.171,0.287-2.489-0.325c-0.278,0.287-0.962,0.264-1.083,0c-0.622,0.809-1.832-0.487-2.272,0.541
		c-0.226-0.061-0.229-0.168-0.108-0.324c-2.881-0.095-4.286,0.222-6.602-0.217c-0.204,0.013-0.075,0.358-0.325,0.325
		c-1.171-0.275-2.713,0.011-3.787-0.108c-0.161,0.047,0.042,0.138,0,0.324c-0.159-0.094-0.344-0.162-0.325-0.433
		c-0.126-0.018-0.192,0.024-0.216,0.108c-0.308,0.018-0.451,0.198-0.758,0.216c0.029-0.175-0.103-0.187-0.108-0.325
		c-1.671,0.388-2.113-0.184-3.248,0.433c-0.192-0.08-0.015-0.197,0-0.324c-0.391-0.208-0.696,0.31-1.189,0c0-0.036,0-0.073,0-0.108
		c-0.122,0.021-0.06,0.109,0,0.108c-0.405-0.094-1.016,0.354-1.191-0.217c-0.082,0.17-0.344,0.162-0.324,0.433
		c-0.363-0.613-1.18,0.243-1.623-0.325c-0.102,0.079-0.164,0.197-0.218,0.325c-0.428-0.493-0.924,0.122-1.406-0.325
		c-0.345,0.395-1.274,0.272-1.19,0c-0.346-0.13-0.722,0.532-0.974,0c-0.505,0.54-0.718-0.201-1.516,0.325
		c0.295-0.175-0.158-0.364-0.217-0.108c-0.226-0.046-0.285,0.074-0.432,0.108c-0.067-0.157-0.132,0.011,0,0
		c-0.204,0.333-0.366-0.274-0.542-0.325c-0.61,0.725-1.77,0.138-2.165,0.108c-0.162,0.136-0.325,0.442-0.541,0.216
		c-0.029-0.255-0.403,0.01-0.433,0.108c-0.225-0.063-0.369-0.208-0.434-0.433c-0.189,0.026-0.246,0.186-0.216,0.433
		c-0.29,0.075-0.209-0.224-0.324-0.324c-0.072,0.3-0.821,0.269-0.325,0c-0.281-0.065-0.389,0.043-0.324,0.324
		c-0.396-0.239-0.742-0.107-1.083-0.216c-0.026-0.136-0.215-0.109-0.216,0c-0.448-0.088-0.556,0.166-0.541,0.541
		c-0.225-0.028-0.03-0.476-0.217-0.541c-0.259,0.342-0.428,0.207-0.434-0.108c-0.168,0.156-0.213,0.436-0.649,0.324
		c0-0.036,0-0.072,0-0.108c0.507,0.118-0.118-0.507,0,0c-0.365,0.193-0.581,0.046-0.757-0.216c-0.189,0.263-0.269,0.307-0.649,0.541
		c-0.171-0.676-0.711,0.226-0.758-0.433c-0.673,0.53-1.051,0.045-1.949,0.108c-0.078,0.101-0.003,0.435-0.542,0.325
		c0.028-0.118,0.216-0.074,0.217-0.217c-0.372-0.189-0.634,0.533-1.083,0c0.158-0.066-0.011-0.13,0,0
		c-0.411,0.131-0.648-0.075-1.081,0.325c-0.309-0.443-1.186-0.193-1.624,0c-0.157-0.025-0.038-0.323-0.218-0.325
		c-0.666,0.298-1.418,0.37-2.056,0.108c-0.182,0.251-0.833,0.424-0.974,0.109c0.105-0.003,0.084-0.133,0.108-0.217
		c-0.105,0.003-0.084,0.132-0.108,0.217c-0.874,0.013-1.637-0.057-2.057,0.216c-0.487,0.012-1.084-0.557-1.298,0.108
		c-0.239-0.048-0.271-0.565-0.434-0.108c-0.34,0.124-0.263-0.17-0.432-0.216c-0.127,0.018-0.091,0.197-0.109,0.325
		c-0.132-0.047-0.222-0.139-0.216-0.325c-0.447,0.244-0.721-0.006-1.19,0.216c-0.036,0-0.072,0-0.108,0
		c-0.067-0.157-0.131,0.011,0,0c0,0.036,0,0.072,0,0.108c-0.71-0.05-1.351-0.109-2.057,0c-0.189,0.03-0.54-0.305-0.649,0
		c-0.877,0.229-1.311-0.202-2.056,0.216c-0.583-0.336-1.5-0.167-2.273,0.109c-0.133-0.047-0.222-0.139-0.216-0.325
		c-0.817,0.453-1.503-0.153-2.49,0.433c-1.621-0.379-3.414,0.253-4.979,0c-0.236-0.02-0.344,0.088-0.325,0.324
		c-0.253-0.036-0.466-0.111-0.542-0.324c-0.126,0.017-0.091,0.197-0.108,0.324c-0.101-0.115-0.399-0.034-0.325-0.324
		c-0.348,0.562-1.454,0.236-2.056,0.216c-0.091,0.745-0.69-0.29-0.65,0.433c-0.458-0.142-0.641,0.114-0.757-0.325
		c-0.281,0.259-0.199-0.009-0.758,0.217c0-0.036,0-0.072,0-0.108c0.157-0.066-0.011-0.131,0,0c-0.142,0.13-0.17,0.042-0.325,0
		c-0.066-0.157-0.13,0.011,0,0c-0.891,0.255-1.727-0.076-2.489,0.433c-0.223-0.03-0.216-0.289-0.325-0.433
		c-0.558,0.567-0.751,0.175-1.407,0.433c-0.297,0.014-0.901-0.25-0.974,0c-0.087,0.058-0.176,0.113-0.325,0.108
		c-0.021-0.087-0.109-0.108-0.108-0.216c0.157-0.066-0.011-0.131,0,0c-0.193-0.03-0.222,0.103-0.108,0.108
		c-0.391,0.085-0.529-0.014-1.083,0.217c0-0.109,0-0.217,0-0.325c-0.645-0.006-0.276,0.358-0.757,0.433
		c0.021-0.088,0.108-0.107,0.108-0.217c-1.034,0.217-2.127-0.094-2.489,0.542c-0.399-0.462-1.827-0.313-2.057,0.216
		c-2.148-0.563-4.553,0.577-6.494,0.324c-0.122,0.098,0.026,0.261-0.324,0.325c-0.231,0.051-0.206-0.155-0.217-0.325
		c-0.367,0.283-0.717,0.582-1.515,0.433c-0.067-0.157-0.13,0.011,0,0c-0.223,0.354-0.56-0.08-0.758-0.108c0-0.036,0-0.072,0-0.108
		c-0.123,0.02-0.06,0.108,0,0.108c-0.223,0.19-0.094,0.335-0.216,0.433c-0.316,0.03-0.372-0.026-0.216-0.216
		c-0.291-0.075-0.209,0.224-0.325,0.325c-0.144-0.109-0.402-0.103-0.433-0.325c-1.368,0.57-3.236,0.359-4.653,0.974
		c-0.295,0.079-0.218-0.215-0.433-0.216c-0.066-0.158-0.131,0.011,0,0c0.095,0.262-0.799,0.24-0.217,0.325
		c-0.044,0.269-0.496,0.082-0.325-0.216c-0.286-0.034-0.279,0.226-0.325,0.433c-0.284,0.032-0.085-0.42-0.433-0.325
		c-0.2,0.017-0.067,0.366-0.217,0.433c-0.315-0.229-0.678-0.005-0.974,0.109c-0.23-0.314-0.865-0.205-0.866,0.325
		c-0.2-0.017-0.066-0.367-0.216-0.434c-0.161-0.002-0.484,0.443-0.433,0c-0.888,0.423-2.07,0.574-3.138,0.434
		c-0.127,0.017-0.091,0.197-0.109,0.324c-1.042-0.039-1.728-0.073-2.489,0.433c-0.342,0.054-0.041-0.538-0.433-0.433
		c-0.268,0.153-0.692,0.79-1.408,0.324c-0.23-0.05-0.206,0.155-0.216,0.325c-0.11-0.07-0.112-0.249-0.325-0.216
		c0-0.037,0-0.073,0-0.109c0.105-0.002,0.084-0.132,0.108-0.216c-0.105,0.003-0.084,0.132-0.108,0.216
		c-0.123,0.021-0.06,0.109,0,0.109c-0.057,0.087-0.113,0.176-0.108,0.324c-0.158-0.25-0.343,0.212-0.325-0.216
		c-0.101,0.079-0.164,0.197-0.216,0.324c-0.827-0.243-1.429-0.072-1.84,0.325c-0.126-0.018-0.091-0.198-0.108-0.325
		c-0.276,0.013-0.378,0.199-0.541,0.325c-0.542-0.113-0.988,0.198-1.407,0.108c-0.146-0.034-0.089-0.271-0.108-0.433
		c-0.34-0.016-0.372,0.277-0.433,0.541c-0.22-0.032-0.212-0.292-0.433-0.324c-0.131,0.122-0.196,0.309-0.542,0.216
		c-0.281,0.139-0.048,0.515-0.216,0.541c-0.369,0.081-0.178-0.398-0.433-0.433c-0.245,0.153-0.089,0.705-0.542,0.65
		c0.181-0.215-0.009-0.138,0-0.433c-0.452-0.268-0.647,0.362-1.082,0c-0.359,0.038-0.128,0.666-0.649,0.541
		c0.003-0.105,0.132-0.084,0.216-0.108c-0.327-0.497-0.828,0.184-0.974-0.217c-0.285-0.032-0.355,0.15-0.324,0.433
		c-0.763,0.113-1.297-0.341-1.624,0.324c-0.133-0.047-0.222-0.138-0.216-0.324c-0.377,0.032,0.008,0.293-0.217,0.324
		c-0.258-0.22-0.813-0.325-0.758,0c-0.306,0.018-0.271-0.306-0.433-0.433c-0.235,0.705-0.857-0.006-0.865,0.542
		c-0.591-0.223-1.402,0.001-1.84,0.325c-0.252-0.234-1.289-0.374-1.408,0.108c-0.22-0.032-0.211-0.292-0.432-0.325
		c-0.191,0.026-0.247,0.186-0.217,0.433c-0.24-0.083-0.586-0.062-0.649-0.324c-0.101,0.079-0.164,0.197-0.216,0.324
		c-0.219-0.33-0.963-0.23-1.19,0.217c-0.096-0.048-0.194-0.095-0.217-0.217c0.157-0.066-0.011-0.131,0,0
		c-0.35,0.212-0.695-0.065-0.866,0.325c-0.787-0.161-1.58-0.309-2.273,0.108c-0.834-0.42-1.208,0.375-2.165-0.108
		c0.498,0.32-0.754,0.295-0.865-0.108c-0.147,0.033-0.09,0.271-0.108,0.433c-0.458,0.096-0.611-0.11-0.758-0.325
		c-0.268,0.487-0.453,0.011-0.974,0.433c0.014-0.194-0.132-0.228-0.108-0.433c-0.684,0.343-2.053,0.68-2.598,0
		c-0.231,0.566-0.988-0.438-1.299,0.325c-0.206-0.701-0.672-1.107-0.974-0.108c-0.202-0.564-0.7-0.465-0.866-0.866
		c-0.524,0.371-1.305,0.027-1.624,0.974c-0.105-0.003-0.083-0.133-0.108-0.217c-0.297,0.244-0.322,0.762-0.542,1.083
		c-0.096-0.048-0.193-0.095-0.216-0.216c-0.329,0.414-0.499,1.048-0.217,1.515c-0.17,0.046-0.092,0.34-0.433,0.216
		c0,0.433,0,0.866,0,1.299c0.49,0.08-0.166-0.297,0.324-0.217c0.11,0.483,0.071,2.09-0.324,2.056
		c0.129,0.833-0.306,1.798,0.433,1.841c0.021,0.396,0.118,1.102,0.433,0.866c-0.113,0.895,0.704,2.114,0.866,3.138
		c0.356,0.021,0.218-0.231,0.649-0.324c-0.225,0.407,0.199,0.289,0.433,0.108c0.048,0.219,0.057,0.576,0.216,0.758
		c0.109,0.123,0.97,0.064,1.299,0.324c0.159,0.127,0.057,0.515,0.324,0.108c0.027,0.136,0.215,0.108,0.217,0
		c0.215,0.225,0.248-0.116,0.433-0.217c1.675,0.489,3.651-0.203,6.494,0c0.021,0.124,0.109,0.06,0.108,0
		c0.126-0.019,0.091-0.198,0.108-0.324c0.406,0.549,1.069-0.125,1.624-0.109c0.093,0.087,0.064,0.297,0.216,0.326
		c0.337-0.594,0.911,0.178,1.731-0.435c0.062,0.226,0.31,0.352,0.108,0.542c0.338,0.05,0.346-0.231,0.325-0.542
		c0.541,0.06,0.647-0.251,1.19-0.108c-0.157,0.067,0.011,0.132,0,0c0.133-0.119,0.222-0.093,0.216,0.108
		c0.201-0.015,0.067-0.366,0.217-0.432c0.131,0.378,0.407,0.106,0.433,0.432c0.471-0.254,0.847-0.496,1.299-0.216
		c-0.035-0.236,0.646-0.457,0.758,0c0.193-0.425,0.36-0.21,0.757-0.433c1.077,0.399,2.881-0.478,4.437-0.434
		c0,0.037,0,0.073,0,0.109c0.123-0.021,0.061-0.109,0-0.109c0.021-0.087,0.109-0.107,0.109-0.216
		c0.277,0.012,0.516,0.062,0.649,0.216c0.083-0.17,0.343-0.161,0.325-0.433c0.239,0.382,0.214-0.174,0.541,0.217
		c0.026-0.152,0.152-0.286,0.541-0.325c0.086,0.204,0.181,0.397,0.217,0.65c0.25-0.111-0.003-0.726,0.433-0.65
		c0,0.145,0,0.289,0,0.433c0.351-0.008,0.349-0.372,0.541-0.54c0.24-0.06,0.155,0.206,0.325,0.216
		c0.156-0.024,0.038-0.322,0.216-0.324c0.843,0.328,1.403-0.388,2.273-0.108c0.145-0.07,0.202-0.231,0.216-0.434
		c0.715,0.442,1.102-0.114,1.732,0c0.066,0.157,0.131-0.01,0,0c0.027-0.116,0.215-0.073,0.216-0.216
		c0.348-0.094,0.224,0.281,0.433,0.324c0.146-0.033,0.089-0.271,0.108-0.433c0.485,0.149,1.502,0.118,1.732-0.217
		c0.087,0.021,0.107,0.109,0.216,0.109c0.066,0.157,0.131-0.012,0,0c0.07-0.11,0.249-0.112,0.217-0.325
		c0.175-0.029,0.186,0.103,0.324,0.107c0.067,0.158,0.13-0.011,0,0c-0.018-0.234,0.384-0.049,0.541-0.107c0,0.107,0,0.216,0,0.325
		c0.252-0.393,0.082,0.064,0.542,0c0.147-0.034,0.089-0.271,0.108-0.433c0.308,0.383,0.355-0.043,0.65-0.218
		c0.153,0.133,0.245,0.413,0.108,0.541c0.293-0.14,0.452-0.413,0.541-0.758c0.213,0.12,0.574,0.646,0.649,0
		c0.19-0.029,0.541,0.306,0.65,0c0.25,0.478,0.471-0.01,0.757-0.108c0.604,0.273,2.51-0.549,3.355-0.216
		c0.2-0.017,0.066-0.366,0.216-0.433c0.342-0.017,0.653-0.004,0.757,0.217c-0.157,0.066,0.012,0.13,0,0
		c0.261-0.207,0.535-0.482,1.299-0.434c0.026,0.52,0.462-0.004,0.541-0.108c0.223-0.219,0.216,0.044,0.325,0.217
		c0.316-0.323,0.548-0.086,0.649-0.541c0.349,0.388,0.601,0.032,0.757,0.324c0.165-0.196,0.272-0.449,0.541-0.541
		c0.167,0.618,0.747-0.312,0.758,0.217c0.482-0.549,1.235,0.149,1.515-0.541c0.156,0.061,0.264,0.169,0.325,0.324
		c-0.158,0.067,0.011,0.131,0,0c0.11-0.105,0.219-0.213,0.324-0.324c0.274,0.443,0.261-0.124,0.649,0.108c0,0.036,0,0.071,0,0.108
		c0.124-0.021,0.06-0.109,0-0.108c0.132-0.156,0.432-0.145,0.433-0.435c0.079,0.308,0.784,0.304,0.757-0.107
		c0.144,0.108,0.403,0.104,0.433,0.326c0.12-0.371,0.271-0.116,0.325-0.434c0.162,0.163,0.616,0.031,0.541,0.434
		c0.161-0.093,0.233-0.273,0.217-0.542c0.391,0.218,0.524-0.012,0.865-0.108c0,0.108,0,0.217,0,0.324
		c0.314-0.008,0.52-0.248,0.758-0.107c-0.158,0.066,0.011,0.131,0,0c0.25-0.086,0.486,0.036,0.649-0.324
		c0.291-0.075,0.209,0.223,0.324,0.324c0.211-0.033,0.648-0.599,0.433-0.108c0.285,0.032,0.355-0.15,0.325-0.434
		c0.088,0.309,0.855,0.362,0.65,0.109c1.71-0.103,3.99-0.692,5.194-0.435c0.102-0.078,0.164-0.195,0.217-0.323
		c0.225,0.062,0.229,0.169,0.108,0.323c0.34-0.508,0.99,0.015,1.083-0.54c0.133,0.047,0.223,0.138,0.216,0.325
		c0.547-0.413,0.979-0.358,1.624-0.108c0.223-0.139,0.549-0.172,0.542-0.541c0.273,0.687,0.913-0.195,1.19,0.432
		c0.227-0.134,0.407-0.313,0.541-0.54c0.2,0.016,0.066,0.366,0.216,0.433c0.285-0.053,0.364-0.597,0.649-0.324
		c0.021,0.122,0.108,0.06,0.108,0c0.275-0.057,0.419-0.185,0.433,0.216c0.209-0.129,0.548-0.412,0.758-0.216
		c0.067,0.157,0.131-0.012,0,0c-0.043-0.211,0.493-0.158,0.325,0.107c0.246-0.079,0.324-0.325,0.433-0.541
		c0.216,0.181,0.503,0.291,0.541,0.649c0.397-0.912,1.641-0.181,2.165-0.758c0.308,0.585,0.831,0.47,1.299,0.108
		c1.78,0.219,3.465-0.352,5.844-0.108c0.34-0.306,0.1-0.184,0.433-0.108c1.091,0.249,4.64-0.511,5.52-0.433
		c-0.013-0.001-0.115,0.179-0.108,0.217c0.629-0.47,1.889-0.072,2.705-0.108c0.067,0.158,0.131-0.012,0,0
		c0.027-0.117,0.216-0.073,0.217-0.216c0.295-0.009,0.218,0.18,0.433,0c0.02,0.123,0.108,0.06,0.108,0
		c0.171,0.009,0.413-0.052,0.432,0.108c-0.157,0.066,0.011,0.131,0,0c0.215,0.225,0.248-0.115,0.433-0.216
		c0.457,0.241,1.053-0.202,1.19,0.216c0.305,0.005,0.296-0.471,0.542-0.216c0.359-0.007,0.038,0.319,0.325,0.542
		c0.243-0.046,0.002-0.575,0.216-0.65c0.228,0.283,0.422,0.092,0.649,0.217c0.021,0.123,0.108,0.06,0.108,0
		c1.015-0.086,1.164-0.31,2.057,0c-0.268-0.189-0.219-0.239,0.216-0.217c0.066,0.158,0.131-0.01,0,0
		c0.109-0.179,0.459-0.118,0.649-0.216c0,0.108,0,0.216,0,0.325c0.299-0.062,0.38-0.341,0.758-0.325c0.13,0.142,0.042,0.17,0,0.325
		c0.242,0.084,0.386-0.541,0.433,0c0.672-0.713,1.799,0.287,2.381-0.541c0.221,0.326,0.961,0.504,1.19,0
		c0.115,0.078,0.499,0.423,0.649,0.108c0.108,0.119,0.591,0.406,0.757,0.108c0.304,0.069,0.375-0.114,1.083-0.108
		c0.018,0.235-0.384,0.049-0.542,0.108c0.273,0.194,1.181,0.103,1.299-0.216c0.19,0.026,0.247,0.186,0.217,0.433
		c0.201,0.131,0.822-0.613,0.649-0.108c0.291,0.074,0.209-0.224,0.325-0.325c0.681,0.325,1.074,0.192,1.623-0.108
		c0.031,0.175-0.102,0.187-0.108,0.325c0.439-0.11,0.499,0.073,0.757-0.216c0.119,0.026,0.074,0.215,0.218,0.216
		c0.123-0.038,0.273-0.191,0.107-0.216c0.797-0.028,1.446,0.225,2.165,0c0.364,0.146,0.914,0.149,1.19-0.217
		c-0.274,0.556,0.174,0.095,0.433,0c-0.315,0.472,0.324-0.129,0.216,0.325c0.346-0.535,0.696,0.108,1.083-0.325
		c0.257,0.404,1.259,0.377,1.406-0.108c0.585,0.292,1.466,0.559,1.948,0c1.321,0.229,3.272,0.146,4.221,0
		c0.728-0.003,2.28,0.5,2.705-0.108c0.486,0.366,2.106,0.138,3.031,0.216c0.145-0.071,0.202-0.231,0.217-0.433
		c0.611,0.744,1.854,0.183,2.922,0.433c-0.014,0.268,0.133,0.184,0.109,0c0.384-0.159,1.418,0.234,1.515-0.325
		c0.76,0.711,1.777,0.086,2.597,0.109c0.997,0.026,2.262,0.527,3.572-0.109c2.6,0.5,6.705,0.061,9.632,0.325
		c0.021-0.423,2.048,0.088,2.814-0.108c0.552-0.142-0.261-0.279,0.217,0c0.365,0.213,1.38,0.077,1.189-0.325
		c0.493,0.248,1.662,0.622,1.841,0c1.025,0.156,2.666,0.615,3.354,0.108c0.833,0.323,2.312,0.277,2.706,0
		c0.324,0.157,0.872,0.595,1.082,0c0.144,0.109,0.327,0.179,0.434,0.325c0.101-0.079,0.163-0.196,0.216-0.325
		c0.654,0.278,2.314,0.389,3.139,0c0.111,0.106,0.219,0.214,0.325,0.325c0.221-0.032,0.212-0.292,0.433-0.325
		c1.914,0.29,3.564,0.439,5.195,0c0.677,0.427,1.04,0.26,1.948,0.109c1.532,0.39,3.278,0.038,4.869,0.216
		c-0.02,0.088-0.108,0.108-0.107,0.217c0.285,0.033,0.279-0.226,0.324-0.433c0.355,0.305,0.552,0.313,0.759,0.108
		c0.199,0.016,0.065,0.366,0.216,0.433c0.358-0.854,2.114,0.197,2.488-0.433c0.163,0.126,0.443,0.135,0.542,0.325
		c-0.157,0.067,0.011,0.13,0,0c0.354-0.243,1.08-0.224,1.299,0.216c0.168-0.229,0.272-0.521,0.648-0.541
		c-0.039,0.454,0.354,0.077,0.542,0.108c0.305,0.135,1.595,0.199,1.623,0c0.349-0.095,0.148,0.357,0.434,0.325
		c0.239,0.059,0.153-0.207,0.324-0.217c0.157,0.287,0.696,0.058,0.649-0.216c0.222,0.03,0.217,0.289,0.325,0.433
		c0.485-0.504,0.846,0.344,1.082-0.433c0.223,0.03,0.216,0.289,0.325,0.433c0.288-0.139,0.396-0.291,0.54-0.325
		c0.128,0.018,0.092,0.197,0.108,0.325c0.243-0.235,0.912-0.292,1.299,0c0.133-0.047,0.223-0.139,0.217-0.325
		c0.935,0.496,1.543,0.201,3.139,0.217c0.021,0.123,0.108,0.06,0.108,0c0.041,0.125,0.525,0.125,0.217,0
		c0.046-0.3,0.339-0.005,0.216,0.216c0.743-0.131,0.881-0.295,1.84,0.108c0.26,0.043-0.06-0.493,0.325-0.325
		c-0.021,0.087-0.108,0.108-0.108,0.216c0.972-0.105,2.198-0.227,3.68,0.108c0.127-0.018,0.091-0.197,0.108-0.325
		c0.495,0.417,1.166,0.316,1.623,0c0.096,0.048,0.193,0.095,0.217,0.216c-0.158,0.066,0.011,0.131,0,0
		c0.438-0.149,0.343,0.235,0.649,0.216c0.412-0.603,1.645,0.105,2.382-0.324c0.171,0.108,0.435,0.102,0.216,0.324
		c0.71-0.356,1.043-0.456,1.515,0.108c0.392-0.351,1.26-0.481,1.732-0.108c0.126-0.017,0.091-0.197,0.107-0.324
		c0.34-0.051,0.306,0.272,0.434,0.433c0.165-0.336,1.137-0.474,1.299,0c0.101-0.079,0.163-0.197,0.216-0.325
		c0.312,0.197,0.494,0.021,0.542,0.325c0.1-0.079,0.163-0.197,0.216-0.325c0.133,0.047,0.223,0.139,0.216,0.325
		c0.318-0.614,0.695,0.156,0.975-0.433c0.2,0.016,0.066,0.366,0.217,0.433c0.412-0.394,1.302-0.403,1.947,0
		c0.046-0.46,0.703-0.308,1.191-0.325c0.015,0.202,0.07,0.362,0.216,0.433c0.146-0.034,0.091-0.271,0.108-0.433
		c0.134,0.047,0.222,0.139,0.217,0.325c0.207-0.045,0.466-0.039,0.433-0.325c0.877,0.338,0.95,0.03,2.056,0c0,0.108,0,0.216,0,0.325
		c0.134-0.047,0.223-0.138,0.218-0.325c0.222,0.199,0.943,0.409,0.974-0.108c0.467,0.162,0.79,0.284,1.189,0
		c0.137,0.356,0.794,0.248,1.083-0.217c0.269,0.165,0.429,0.439,0.541,0.758c0.309-0.269,0.547-0.608,0.976-0.758
		c-0.146,0.521,1.052,0.521,1.298-0.108c0.902,0.988,1.781-0.188,3.029-0.108c0-0.217,0-0.433,0-0.649
		c0.438,0.107,0.238-0.58,0.976-0.433c0.058-1.311,0.875-1.266,0.974-2.597c0,8.01,0,16.018,0,24.027c-18.904,0-37.809,0-56.713,0
		c-0.066-0.294,0.138-0.86-0.108-0.975c-0.245,0.114-0.041,0.681-0.108,0.975c-60.319,0-120.64,0-180.959,0
		c0-6.566,0-13.132,0-19.698c0.122-0.021,0.06-0.109,0-0.108c0-6.097,0-12.194,0-18.291c16.126,0,32.252,0,48.378,0
		c-0.188,0.243-0.069,0.713,0,0.757c0.501-0.008,0.024-0.49,0.108-0.757c63.135,0,126.269,0,189.402,0
		C240.619,19.598,240.619,24.251,240.619,28.905z M238.888,22.087C238.816,22.158,238.933,22.041,238.888,22.087L238.888,22.087z
		 M238.888,22.303C238.816,22.375,238.933,22.258,238.888,22.303L238.888,22.303z M232.178,20.788
		C232.107,20.859,232.223,20.743,232.178,20.788L232.178,20.788z M229.797,21.545c-0.025-0.083-0.004-0.213-0.109-0.216
		C229.712,21.413,229.691,21.543,229.797,21.545z M227.848,21.438C227.777,21.508,227.894,21.392,227.848,21.438L227.848,21.438z
		 M225.683,33.451c0.271,0.014,0.339,0.207,0.435-0.108C225.954,33.361,225.716,33.304,225.683,33.451z M218.432,33.343
		C218.36,33.414,218.478,33.297,218.432,33.343L218.432,33.343z M206.526,21.438C206.455,21.508,206.572,21.392,206.526,21.438
		L206.526,21.438z M206.31,21.438C206.239,21.508,206.356,21.392,206.31,21.438L206.31,21.438z M201.764,21.438
		C201.337,21.562,202.192,21.562,201.764,21.438L201.764,21.438z M199.491,21.33C199.421,21.4,199.537,21.284,199.491,21.33
		L199.491,21.33z M197.11,21.221C197.04,21.292,197.155,21.176,197.11,21.221L197.11,21.221z M196.354,21.113
		C196.282,21.184,196.397,21.067,196.354,21.113L196.354,21.113z M194.621,21.221C194.551,21.292,194.667,21.176,194.621,21.221
		L194.621,21.221z M178.495,21.004C178.425,21.075,178.54,20.959,178.495,21.004L178.495,21.004z M165.292,20.788
		C165.221,20.859,165.336,20.743,165.292,20.788L165.292,20.788z M161.395,32.91C161.323,32.98,161.44,32.865,161.395,32.91
		L161.395,32.91z M158.148,21.004C158.076,21.075,158.192,20.959,158.148,21.004L158.148,21.004z M155.875,21.004
		C155.805,21.075,155.92,20.959,155.875,21.004L155.875,21.004z M153.603,33.018C153.532,33.089,153.647,32.973,153.603,33.018
		L153.603,33.018z M151.546,33.126C151.475,33.197,151.592,33.081,151.546,33.126L151.546,33.126z M148.948,32.91
		C148.878,32.98,148.994,32.865,148.948,32.91L148.948,32.91z M141.156,32.91C141.084,32.98,141.201,32.865,141.156,32.91
		L141.156,32.91z M128.276,33.018C128.205,33.089,128.322,32.973,128.276,33.018L128.276,33.018z M114.747,21.545
		C114.32,21.671,115.175,21.671,114.747,21.545L114.747,21.545z M111.501,21.653C111.073,21.779,111.929,21.779,111.501,21.653
		L111.501,21.653z M104.358,33.667C104.287,33.738,104.403,33.622,104.358,33.667L104.358,33.667z M101.76,33.775
		C101.689,33.847,101.806,33.73,101.76,33.775L101.76,33.775z M101.436,33.775C101.365,33.847,101.481,33.73,101.436,33.775
		L101.436,33.775z M96.457,33.884C96.386,33.955,96.502,33.838,96.457,33.884L96.457,33.884z M83.794,22.844
		C83.723,22.915,83.84,22.799,83.794,22.844L83.794,22.844z M83.253,22.844C82.825,22.97,83.681,22.97,83.253,22.844L83.253,22.844z
		 M82.496,22.953C81.855,22.861,82.93,23.015,82.496,22.953L82.496,22.953z M79.681,23.169
		C79.253,23.294,80.109,23.294,79.681,23.169L79.681,23.169z M74.487,23.169C74.415,23.24,74.532,23.124,74.487,23.169
		L74.487,23.169z M71.023,23.818C70.952,23.89,71.068,23.773,71.023,23.818L71.023,23.818z M69.075,24.035
		C69.004,24.105,69.12,23.99,69.075,24.035L69.075,24.035z M68.967,23.818C68.896,23.89,69.012,23.773,68.967,23.818L68.967,23.818z
		 M64.313,24.793C63.672,24.701,64.747,24.854,64.313,24.793L64.313,24.793z M62.473,24.901
		C62.402,24.972,62.518,24.855,62.473,24.901L62.473,24.901z M58.577,25.55C58.149,25.675,59.004,25.675,58.577,25.55L58.577,25.55z
		 M57.386,25.766C57.315,25.837,57.432,25.722,57.386,25.766L57.386,25.766z M53.381,38.321
		C53.311,38.393,53.427,38.276,53.381,38.321L53.381,38.321z M51.434,26.633C51.363,26.703,51.479,26.587,51.434,26.633
		L51.434,26.633z M50.676,39.188C50.605,39.258,50.721,39.142,50.676,39.188L50.676,39.188z M48.944,26.958
		C48.873,27.028,48.989,26.912,48.944,26.958L48.944,26.958z M41.368,28.039C40.94,28.165,41.796,28.165,41.368,28.039
		L41.368,28.039z M38.879,40.919C38.808,40.99,38.924,40.874,38.879,40.919L38.879,40.919z M33.9,29.122
		C33.829,29.193,33.946,29.076,33.9,29.122L33.9,29.122z M33.684,29.23C33.613,29.301,33.729,29.185,33.684,29.23L33.684,29.23z
		 M29.463,29.663C29.035,29.788,29.891,29.788,29.463,29.663L29.463,29.663z M25.134,30.096
		C24.706,30.221,25.562,30.221,25.134,30.096L25.134,30.096z M21.237,43.3C20.81,43.425,21.665,43.425,21.237,43.3L21.237,43.3z
		 M19.938,43.3C19.868,43.37,19.984,43.255,19.938,43.3L19.938,43.3z M18.532,30.854C18.46,30.924,18.577,30.808,18.532,30.854
		L18.532,30.854z M17.666,30.961C17.595,31.033,17.711,30.916,17.666,30.961L17.666,30.961z M13.229,30.854
		C13.157,30.924,13.273,30.808,13.229,30.854L13.229,30.854z M11.713,30.204C11.642,30.275,11.759,30.159,11.713,30.204
		L11.713,30.204z M8.683,41.785C8.612,41.855,8.729,41.739,8.683,41.785L8.683,41.785z M7.492,33.018
		C7.064,33.144,7.92,33.144,7.492,33.018L7.492,33.018z M7.384,32.801C7.313,32.873,7.429,32.756,7.384,32.801L7.384,32.801z"/>
	<path fill-rule="evenodd" clip-rule="evenodd" d="M240.619,28.905c0,0.036,0,0.072,0,0.108c-0.099,1.332-0.916,1.286-0.974,2.597
		c-0.737-0.147-0.538,0.541-0.976,0.433c0,0.217,0,0.433,0,0.649c-1.248-0.081-2.127,1.096-3.029,0.108
		c-0.246,0.629-1.444,0.63-1.298,0.108c-0.429,0.149-0.667,0.489-0.976,0.758c-0.112-0.319-0.272-0.593-0.541-0.758
		c-0.289,0.465-0.946,0.573-1.083,0.217c-0.399,0.284-0.723,0.162-1.189,0c-0.03,0.517-0.752,0.307-0.974,0.108
		c0.005,0.187-0.084,0.278-0.218,0.325c0-0.108,0-0.216,0-0.325c-1.105,0.03-1.179,0.338-2.056,0
		c0.033,0.286-0.226,0.279-0.433,0.325c0.005-0.186-0.083-0.277-0.217-0.325c-0.018,0.162,0.038,0.399-0.108,0.433
		c-0.146-0.071-0.201-0.231-0.216-0.433c-0.488,0.017-1.146-0.136-1.191,0.325c-0.646-0.403-1.535-0.394-1.947,0
		c-0.15-0.066-0.017-0.417-0.217-0.433c-0.279,0.589-0.656-0.181-0.975,0.433c0.007-0.186-0.083-0.277-0.216-0.325
		c-0.053,0.128-0.116,0.246-0.216,0.325c-0.048-0.304-0.229-0.128-0.542-0.325c-0.053,0.128-0.115,0.246-0.216,0.325
		c-0.162-0.474-1.134-0.336-1.299,0c-0.128-0.161-0.094-0.484-0.434-0.433c-0.017,0.127,0.019,0.307-0.107,0.324
		c-0.473-0.373-1.341-0.242-1.732,0.108c-0.472-0.564-0.805-0.464-1.515-0.108c0.219-0.222-0.045-0.216-0.216-0.324
		c-0.737,0.43-1.97-0.278-2.382,0.324c-0.307,0.019-0.212-0.366-0.649-0.216c-0.023-0.122-0.121-0.168-0.217-0.216
		c-0.457,0.316-1.128,0.417-1.623,0c-0.018,0.127,0.019,0.307-0.108,0.325c-1.481-0.335-2.708-0.214-3.68-0.108
		c0-0.108,0.088-0.129,0.108-0.216c-0.385-0.168-0.065,0.368-0.325,0.325c-0.959-0.403-1.097-0.24-1.84-0.108
		c0.123-0.222-0.17-0.516-0.216-0.216c0.309,0.125-0.176,0.125-0.217,0c-0.021-0.123-0.108-0.06-0.108,0
		c-1.596-0.016-2.204,0.279-3.139-0.217c0.006,0.187-0.084,0.278-0.217,0.325c-0.387-0.292-1.056-0.235-1.299,0
		c-0.017-0.128,0.02-0.308-0.108-0.325c-0.145,0.034-0.252,0.186-0.54,0.325c-0.109-0.144-0.103-0.403-0.325-0.433
		c-0.236,0.777-0.597-0.071-1.082,0.433c-0.108-0.144-0.104-0.403-0.325-0.433c0.047,0.274-0.492,0.503-0.649,0.216
		c0.157-0.066-0.012-0.131,0,0c-0.171,0.01-0.085,0.276-0.324,0.217c-0.285,0.032-0.085-0.42-0.434-0.325
		c-0.028,0.199-1.318,0.135-1.623,0c0.157-0.066-0.012-0.13,0,0c-0.188-0.031-0.581,0.346-0.542-0.108
		c-0.376,0.021-0.48,0.312-0.648,0.541c-0.219-0.44-0.945-0.459-1.299-0.216c-0.099-0.19-0.379-0.198-0.542-0.325
		c-0.374,0.63-2.13-0.421-2.488,0.433c-0.15-0.067-0.017-0.417-0.216-0.433c-0.207,0.205-0.403,0.197-0.759-0.108
		c-0.045,0.207-0.039,0.465-0.324,0.433c-0.001-0.109,0.088-0.129,0.107-0.217c-1.591-0.178-3.337,0.174-4.869-0.216
		c0.157-0.067-0.012-0.131,0,0c-0.908,0.151-1.271,0.318-1.948-0.109c-1.631,0.439-3.281,0.29-5.195,0
		c-0.221,0.032-0.212,0.293-0.433,0.325c-0.106-0.111-0.214-0.219-0.325-0.325c-0.824,0.389-2.484,0.278-3.139,0
		c-0.053,0.128-0.115,0.246-0.216,0.325c-0.106-0.146-0.29-0.216-0.434-0.325c-0.21,0.595-0.758,0.157-1.082,0
		c-0.395,0.277-1.873,0.323-2.706,0c-0.688,0.507-2.329,0.048-3.354-0.108c-0.179,0.622-1.348,0.248-1.841,0
		c0.19,0.402-0.824,0.538-1.189,0.325c-0.478-0.279,0.335-0.142-0.217,0c-0.767,0.196-2.794-0.315-2.814,0.108
		c-2.927-0.264-7.032,0.175-9.632-0.325c-1.311,0.636-2.575,0.135-3.572,0.109c-0.819-0.022-1.837,0.602-2.597-0.109
		c-0.097,0.559-1.131,0.166-1.515,0.325c-0.022-0.123-0.109-0.06-0.109,0c-1.068-0.25-2.311,0.311-2.922-0.433
		c-0.015,0.201-0.072,0.362-0.217,0.433c-0.925-0.078-2.545,0.15-3.031-0.216c-0.425,0.607-1.978,0.105-2.705,0.108
		c-0.948,0.146-2.899,0.229-4.221,0c-0.482,0.559-1.363,0.292-1.948,0c-0.147,0.485-1.149,0.512-1.406,0.108
		c-0.387,0.433-0.737-0.21-1.083,0.325c0.107-0.454-0.531,0.147-0.216-0.325c-0.259,0.095-0.707,0.556-0.433,0
		c-0.276,0.366-0.826,0.363-1.19,0.217c0.157-0.066-0.012-0.131,0,0c-0.719,0.225-1.368-0.028-2.165,0
		c0.166,0.025,0.015,0.179-0.107,0.216c-0.144-0.001-0.099-0.19-0.218-0.216c-0.065-0.158-0.13,0.011,0,0
		c-0.259,0.289-0.318,0.106-0.757,0.216c0.007-0.138,0.139-0.149,0.108-0.325c-0.549,0.3-0.942,0.433-1.623,0.108
		c-0.115,0.101-0.034,0.399-0.325,0.325c0.173-0.505-0.448,0.239-0.649,0.108c0.03-0.247-0.027-0.407-0.217-0.433
		c-0.118,0.319-1.026,0.411-1.299,0.216c0.157-0.059,0.56,0.127,0.542-0.108c-0.708-0.006-0.778,0.177-1.083,0.108
		c0-0.036,0-0.072,0-0.108c-0.123,0.021-0.06,0.108,0,0.108c-0.167,0.298-0.649,0.011-0.757-0.108c-0.066-0.158-0.131,0.011,0,0
		c-0.151,0.314-0.534-0.031-0.649-0.108c-0.229,0.504-0.97,0.326-1.19,0c-0.583,0.828-1.709-0.172-2.381,0.541
		c-0.046-0.541-0.191,0.084-0.433,0c0.042-0.154,0.13-0.183,0-0.325c-0.377-0.017-0.459,0.263-0.758,0.325c0-0.108,0-0.216,0-0.325
		c-0.19,0.099-0.54,0.037-0.649,0.216c-0.435-0.022-0.484,0.028-0.216,0.217c-0.894-0.31-1.042-0.086-2.057,0
		c-0.02-0.123-0.108-0.06-0.108,0c-0.228-0.125-0.422,0.066-0.649-0.217c-0.214,0.075,0.027,0.604-0.216,0.65
		c-0.288-0.223,0.034-0.549-0.325-0.542c-0.245-0.255-0.237,0.222-0.542,0.216c-0.137-0.418-0.734,0.024-1.19-0.216
		c-0.185,0.101-0.218,0.441-0.433,0.216c-0.02-0.16-0.261-0.099-0.432-0.108c-0.021-0.123-0.108-0.06-0.108,0
		c-0.215,0.18-0.138-0.009-0.433,0c-0.001,0.143-0.189,0.099-0.217,0.216c-0.816,0.036-2.076-0.362-2.705,0.108
		c-0.007-0.038,0.095-0.218,0.108-0.217c-0.879-0.078-4.429,0.682-5.52,0.433c-0.333-0.075-0.093-0.197-0.433,0.108
		c-2.379-0.243-4.064,0.327-5.844,0.108c-0.468,0.361-0.991,0.477-1.299-0.108c-0.524,0.577-1.768-0.154-2.165,0.758
		c-0.038-0.358-0.324-0.469-0.541-0.649c-0.109,0.216-0.187,0.462-0.433,0.541c0.168-0.266-0.368-0.318-0.325-0.107
		c-0.209-0.196-0.548,0.087-0.758,0.216c-0.013-0.4-0.157-0.272-0.433-0.216c-0.021-0.123-0.108-0.061-0.108,0
		c-0.285-0.272-0.364,0.271-0.649,0.324c-0.15-0.066-0.017-0.417-0.216-0.433c-0.134,0.227-0.314,0.406-0.541,0.54
		c-0.277-0.627-0.917,0.255-1.19-0.432c0.007,0.369-0.318,0.402-0.542,0.541c-0.644-0.25-1.076-0.305-1.624,0.108
		c0.006-0.188-0.083-0.278-0.216-0.325c-0.093,0.555-0.743,0.032-1.083,0.54c0.121-0.154,0.117-0.262-0.108-0.323
		c-0.053,0.128-0.115,0.245-0.217,0.323c-1.204-0.258-3.484,0.332-5.194,0.435c0.206,0.253-0.562,0.199-0.65-0.109
		c0.031,0.283-0.04,0.466-0.325,0.434c0.215-0.49-0.222,0.075-0.433,0.108c-0.115-0.102-0.034-0.399-0.324-0.324
		c-0.164,0.36-0.399,0.238-0.649,0.324c-0.238-0.141-0.444,0.1-0.758,0.107c0-0.107,0-0.216,0-0.324
		c-0.341,0.097-0.475,0.326-0.865,0.108c0.016,0.269-0.056,0.449-0.217,0.542c0.076-0.402-0.379-0.271-0.541-0.434
		c-0.055,0.317-0.205,0.062-0.325,0.434c-0.03-0.223-0.289-0.218-0.433-0.326c0.027,0.411-0.678,0.415-0.757,0.107
		c-0.001,0.29-0.301,0.278-0.433,0.435c-0.389-0.232-0.375,0.335-0.649-0.108c-0.105,0.111-0.214,0.219-0.324,0.324
		c-0.061-0.155-0.169-0.264-0.325-0.324c-0.279,0.69-1.032-0.008-1.515,0.541c-0.011-0.529-0.592,0.401-0.758-0.217
		c-0.269,0.092-0.376,0.345-0.541,0.541c-0.156-0.292-0.409,0.063-0.757-0.324c-0.101,0.455-0.333,0.218-0.649,0.541
		c-0.108-0.173-0.102-0.436-0.325-0.217c0-0.036,0-0.071,0-0.108c-0.123,0.021-0.06,0.109,0,0.108
		c-0.079,0.104-0.515,0.628-0.541,0.108c0.092,0.021,0.102-0.041,0.108-0.108c-0.092-0.02-0.103,0.043-0.108,0.108
		c-0.764-0.049-1.039,0.227-1.299,0.434c-0.104-0.221-0.415-0.233-0.757-0.217c-0.15,0.066-0.016,0.416-0.216,0.433
		c-0.846-0.333-2.751,0.489-3.355,0.216c-0.287,0.099-0.507,0.586-0.757,0.108c-0.067-0.156-0.131,0.012,0,0
		c-0.109,0.306-0.46-0.029-0.65,0c-0.075,0.646-0.437,0.12-0.649,0c-0.089,0.345-0.248,0.618-0.541,0.758
		c0.137-0.128,0.045-0.408-0.108-0.541c-0.295,0.175-0.342,0.601-0.65,0.218c-0.019,0.161,0.039,0.398-0.108,0.433
		c-0.459,0.064-0.29-0.393-0.542,0c0-0.109,0-0.218,0-0.325c-0.157,0.059-0.559-0.127-0.541,0.107
		c-0.138-0.005-0.149-0.137-0.324-0.107c0.032,0.213-0.146,0.215-0.217,0.325c-0.109,0-0.129-0.089-0.216-0.109
		c0-0.036,0-0.071,0-0.108c-0.123,0.021-0.061,0.109,0,0.108c-0.229,0.335-1.247,0.366-1.732,0.217
		c-0.019,0.162,0.039,0.399-0.108,0.433c-0.209-0.043-0.085-0.418-0.433-0.324c-0.001,0.143-0.189,0.1-0.216,0.216
		c-0.63-0.114-1.017,0.442-1.732,0c-0.015,0.202-0.071,0.363-0.216,0.434c-0.87-0.279-1.43,0.437-2.273,0.108
		c-0.179,0.002-0.061,0.3-0.216,0.324c-0.17-0.01-0.085-0.275-0.325-0.216c-0.191,0.168-0.19,0.532-0.541,0.54
		c0-0.144,0-0.288,0-0.433c-0.436-0.075-0.183,0.539-0.433,0.65c-0.036-0.253-0.13-0.446-0.217-0.65
		c-0.389,0.039-0.515,0.173-0.541,0.325c-0.327-0.391-0.302,0.165-0.541-0.217c0.019,0.271-0.242,0.263-0.325,0.433
		c-0.133-0.153-0.372-0.204-0.649-0.216c0,0.108-0.088,0.129-0.109,0.216c-1.556-0.044-3.36,0.833-4.437,0.434
		c-0.397,0.223-0.564,0.008-0.757,0.433c-0.112-0.457-0.792-0.236-0.758,0c-0.453-0.28-0.829-0.038-1.299,0.216
		c-0.025-0.325-0.301-0.054-0.433-0.432c-0.149,0.065-0.016,0.417-0.217,0.432c0.006-0.201-0.083-0.228-0.216-0.108
		c-0.543-0.143-0.65,0.168-1.19,0.108c0.021,0.311,0.013,0.592-0.325,0.542c0.201-0.19-0.047-0.316-0.108-0.542
		c-0.821,0.612-1.395-0.159-1.731,0.435c-0.152-0.029-0.123-0.239-0.216-0.326c-0.554-0.016-1.217,0.658-1.624,0.109
		c-0.017,0.126,0.019,0.306-0.108,0.324c-0.021-0.123-0.109-0.061-0.108,0c-2.842-0.203-4.819,0.489-6.494,0
		c-0.186,0.101-0.218,0.441-0.433,0.217c0.02-0.093-0.042-0.102-0.108-0.108c-0.092-0.021-0.103,0.042-0.109,0.108
		c-0.267,0.406-0.165,0.019-0.324-0.108c-0.329-0.26-1.19-0.201-1.299-0.324c-0.159-0.182-0.168-0.539-0.216-0.758
		c-0.234,0.181-0.658,0.299-0.433-0.108c-0.431,0.093-0.293,0.345-0.649,0.324c-0.162-1.023-0.979-2.243-0.866-3.138
		c0.158-0.067-0.011-0.132,0,0c-0.315,0.235-0.412-0.47-0.433-0.866c-0.739-0.043-0.304-1.008-0.433-1.841
		c0.395,0.034,0.434-1.572,0.324-2.056c-0.49-0.08,0.166,0.297-0.324,0.217c0-0.434,0-0.866,0-1.299
		c0.34,0.124,0.263-0.17,0.433-0.216c-0.282-0.467-0.112-1.101,0.217-1.515c0.022,0.122,0.12,0.168,0.216,0.216
		c0.22-0.321,0.244-0.838,0.542-1.083c0.024,0.084,0.003,0.213,0.108,0.217c0.319-0.947,1.099-0.603,1.624-0.974
		c0.166,0.4,0.664,0.301,0.866,0.866c0.302-0.999,0.768-0.593,0.974,0.108c0.311-0.763,1.067,0.241,1.299-0.325
		c0.545,0.68,1.915,0.343,2.598,0c-0.024,0.205,0.122,0.239,0.108,0.433c0.521-0.422,0.707,0.055,0.974-0.433
		c0.146,0.214,0.3,0.421,0.758,0.325c0.018-0.162-0.039-0.399,0.108-0.433c0.111,0.403,1.363,0.428,0.865,0.108
		c0.958,0.483,1.331-0.312,2.165,0.108c0.693-0.417,1.486-0.269,2.273-0.108c0.171-0.391,0.516-0.113,0.866-0.325
		c0.023,0.122,0.121,0.169,0.217,0.217c0.228-0.448,0.972-0.547,1.19-0.217c0.052-0.127,0.115-0.245,0.216-0.324
		c0.062,0.262,0.409,0.241,0.649,0.324c-0.03-0.247,0.026-0.406,0.217-0.433c0.221,0.032,0.212,0.293,0.432,0.325
		c0.119-0.481,1.155-0.342,1.408-0.108c0.438-0.324,1.249-0.547,1.84-0.325c0.008-0.547,0.63,0.164,0.865-0.542
		c0.162,0.127,0.127,0.45,0.433,0.433c-0.055-0.325,0.5-0.22,0.758,0c0.225-0.031-0.161-0.292,0.217-0.324
		c-0.006,0.187,0.083,0.277,0.216,0.324c0.327-0.666,0.861-0.211,1.624-0.324c-0.031-0.283,0.04-0.465,0.324-0.433
		c0.146,0.4,0.647-0.28,0.974,0.217c-0.084,0.024-0.213,0.002-0.216,0.108c0.521,0.125,0.291-0.503,0.649-0.541
		c0.435,0.362,0.63-0.268,1.082,0c-0.009,0.295,0.181,0.218,0,0.433c0.453,0.055,0.297-0.497,0.542-0.65
		c0.254,0.035,0.064,0.514,0.433,0.433c0.168-0.026-0.064-0.402,0.216-0.541c0.345,0.093,0.411-0.094,0.542-0.216
		c0.221,0.032,0.212,0.292,0.433,0.324c0.062-0.264,0.093-0.557,0.433-0.541c0.019,0.162-0.039,0.399,0.108,0.433
		c0.419,0.09,0.866-0.221,1.407-0.108c0.067,0.157,0.131-0.012,0,0c0.163-0.126,0.265-0.312,0.541-0.325
		c0.017,0.127-0.018,0.307,0.108,0.325c0.411-0.397,1.013-0.568,1.84-0.325c0.053-0.127,0.115-0.245,0.216-0.324
		c-0.018,0.428,0.167-0.035,0.325,0.216c-0.004-0.148,0.051-0.237,0.108-0.324c0.213-0.033,0.214,0.146,0.325,0.216
		c0.011-0.17-0.014-0.375,0.216-0.325c0.715,0.465,1.14-0.171,1.408-0.324c0.392-0.104,0.09,0.487,0.433,0.433
		c0.761-0.506,1.447-0.472,2.489-0.433c0.018-0.127-0.019-0.307,0.109-0.324c1.068,0.141,2.25-0.01,3.138-0.434
		c-0.051,0.443,0.272-0.002,0.433,0c0.15,0.067,0.016,0.417,0.216,0.434c0.001-0.53,0.636-0.639,0.866-0.325
		c-0.158,0.066,0.01,0.13,0,0c0.295-0.114,0.658-0.338,0.974-0.109c0.15-0.066,0.017-0.416,0.217-0.433
		c0.347-0.095,0.148,0.357,0.433,0.325c0.046-0.207,0.039-0.466,0.325-0.433c-0.171,0.298,0.281,0.485,0.325,0.216
		c-0.582-0.084,0.312-0.062,0.217-0.325c0.215,0.001,0.138,0.295,0.433,0.216c1.417-0.615,3.285-0.404,4.653-0.974
		c0.03,0.222,0.289,0.216,0.433,0.325c0.116-0.102,0.034-0.4,0.325-0.325c-0.156,0.19-0.1,0.247,0.216,0.216
		c0.122-0.098-0.006-0.242,0.216-0.433c0.198,0.028,0.535,0.462,0.758,0.108c0.798,0.148,1.148-0.15,1.515-0.433
		c0.011,0.17-0.014,0.376,0.217,0.325c0.351-0.064,0.202-0.228,0.324-0.325c1.941,0.252,4.346-0.888,6.494-0.324
		c0.23-0.53,1.658-0.678,2.057-0.216c0.361-0.635,1.455-0.325,2.489-0.542c0,0.109-0.087,0.128-0.108,0.217
		c0.481-0.075,0.113-0.439,0.757-0.433c0,0.108,0,0.216,0,0.325c0.553-0.231,0.692-0.132,1.083-0.217
		c-0.114-0.005-0.085-0.138,0.108-0.108c0,0.108,0.088,0.129,0.108,0.216c0.149,0.005,0.238-0.051,0.325-0.108
		c0,0.036,0,0.072,0,0.108c0.123-0.021,0.06-0.108,0-0.108c0.073-0.25,0.677,0.014,0.974,0c-0.157,0.067,0.011,0.131,0,0
		c0.656-0.258,0.85,0.134,1.407-0.433c0.108,0.144,0.102,0.403,0.325,0.433c0.762-0.508,1.598-0.178,2.489-0.433
		c0.155,0.042,0.183,0.13,0.325,0c0,0.036,0,0.072,0,0.108c0.559-0.226,0.477,0.042,0.758-0.217
		c0.117,0.439,0.299,0.183,0.757,0.325c-0.041-0.723,0.559,0.312,0.65-0.433c0.603,0.021,1.708,0.347,2.056-0.216
		c-0.075,0.291,0.224,0.209,0.325,0.324c0.017-0.127-0.019-0.307,0.108-0.324c0.075,0.213,0.289,0.288,0.542,0.324
		c-0.02-0.236,0.088-0.344,0.325-0.324c1.564,0.253,3.357-0.379,4.979,0c0.066,0.157,0.131-0.011,0,0
		c0.987-0.586,1.673,0.02,2.49-0.433c-0.006,0.186,0.083,0.277,0.216,0.325c0.772-0.276,1.69-0.445,2.273-0.109
		c0.745-0.417,1.179,0.014,2.056-0.216c0.067,0.158,0.13-0.011,0,0c0.109-0.305,0.46,0.03,0.649,0c0,0.036,0,0.072,0,0.108
		c0.124-0.021,0.061-0.108,0-0.108c0.706-0.109,1.347-0.05,2.057,0c0.021,0.123,0.108,0.06,0.108,0c0.123-0.021,0.06-0.109,0-0.108
		c0.469-0.222,0.744,0.028,1.19-0.216c-0.006,0.186,0.084,0.277,0.216,0.325c0.018-0.127-0.019-0.307,0.109-0.325
		c0.169,0.046,0.092,0.34,0.432,0.216c0,0.036,0,0.072,0,0.108c0.124-0.021,0.061-0.109,0-0.108c0.163-0.457,0.194,0.06,0.434,0.108
		c0.214-0.666,0.812-0.096,1.298-0.108c0.42-0.273,1.183-0.203,2.057-0.216c0.141,0.315,0.792,0.142,0.974-0.109
		c0.638,0.262,1.39,0.19,2.056-0.108c0.18,0.002,0.061,0.3,0.218,0.325c0.438-0.193,1.315-0.443,1.624,0
		c0.433-0.4,0.67-0.194,1.081-0.325c0.449,0.533,0.711-0.189,1.083,0c-0.001,0.143-0.189,0.099-0.217,0.217
		c0.539,0.11,0.463-0.224,0.542-0.325c0.897-0.062,1.275,0.422,1.949-0.108c0.047,0.659,0.586-0.243,0.758,0.433
		c0.38-0.234,0.459-0.278,0.649-0.541c0.177,0.262,0.392,0.409,0.757,0.216c0,0.036,0,0.072,0,0.108
		c0.436,0.111,0.48-0.168,0.649-0.324c0.006,0.315,0.175,0.45,0.434,0.108c0.187,0.065-0.008,0.513,0.217,0.541
		c-0.015-0.375,0.093-0.629,0.541-0.541c0.026,0.135,0.215,0.109,0.216,0c0.341,0.108,0.688-0.023,1.083,0.216
		c-0.064-0.281,0.043-0.389,0.324-0.324c-0.496,0.269,0.253,0.3,0.325,0c0.115,0.101,0.034,0.399,0.324,0.324
		c-0.03-0.247,0.026-0.407,0.216-0.433c0.064,0.224,0.209,0.369,0.434,0.433c0.029-0.098,0.403-0.363,0.433-0.108
		c-0.157,0.066,0.013,0.13,0,0c0.216,0.226,0.379-0.08,0.541-0.216c0.396,0.029,1.555,0.617,2.165-0.108
		c0.176,0.051,0.338,0.658,0.542,0.325c0.146-0.034,0.206-0.154,0.432-0.108c0.067,0.157,0.131-0.012,0,0
		c0.059-0.256,0.512-0.067,0.217,0.108c0.798-0.525,1.011,0.215,1.516-0.325c0.252,0.532,0.628-0.13,0.974,0
		c-0.084,0.272,0.846,0.395,1.19,0c0.482,0.447,0.979-0.168,1.406,0.325c0.054-0.128,0.116-0.246,0.218-0.325
		c0.443,0.567,1.26-0.288,1.623,0.325c-0.02-0.271,0.242-0.263,0.324-0.433c0.176,0.571,0.786,0.123,1.191,0.217
		c0.493,0.31,0.799-0.208,1.189,0c-0.015,0.127-0.192,0.245,0,0.324c1.135-0.616,1.577-0.045,3.248-0.433
		c0.006,0.138,0.138,0.149,0.108,0.325c0.307-0.018,0.45-0.198,0.758-0.216c0.065,0.157,0.13-0.011,0,0
		c0.023-0.084,0.09-0.126,0.216-0.108c-0.019,0.271,0.166,0.339,0.325,0.433c0.042-0.186-0.161-0.277,0-0.324
		c1.074,0.12,2.616-0.167,3.787,0.108c0.25,0.033,0.121-0.312,0.325-0.325c2.315,0.438,3.721,0.122,6.602,0.217
		c-0.121,0.156-0.117,0.264,0.108,0.324c0.44-1.028,1.65,0.268,2.272-0.541c0.121,0.264,0.805,0.287,1.083,0
		c0.318,0.612,2.026-0.348,2.489,0.325c0.094-0.159,0.162-0.343,0.433-0.325c-0.005,0.186,0.084,0.277,0.217,0.325
		c1.237-0.201,2.281-0.375,3.354-0.108c3.247-0.076,5.794-0.28,9.957,0c0.165-0.272,0.87-0.176,1.083,0.108
		c0.094-0.159,0.162-0.343,0.432-0.325c1.155,0.469,2.287-0.094,3.572,0.325c-0.019-0.237,0.089-0.345,0.325-0.325
		c0.519,0.643,1.907-0.142,2.598,0.433c1.541-0.477,2.682,0.121,3.896-0.216c0.021,0.123,0.108,0.06,0.108,0
		c0.361,0.169,0.287,0.103,0.541,0.324c0.023-0.121,0.12-0.168,0.217-0.216c0.191,0.355,0.439-0.126,0.541-0.217
		c0.11,0.251,0.491,0.23,0.541,0.541c0,0.037,0,0.073,0,0.109c0.123-0.021,0.061-0.109,0-0.109c0.2-0.227,0.163-0.524,0.542-0.324
		c0.872-0.082,1.278,0.206,2.056,0c0.377,0.131,0.412,0.262,0.757,0c0.539,0.122,1.295,0.274,2.058,0c0.02,0.122,0.108,0.06,0.107,0
		c0.351,0.381,0.452,0.113,0.758,0c0.308-0.114,1.089,0.196,1.407,0.216c-0.008,0,0.037-0.208,0.108-0.216
		c0.52-0.057,1.085,0.537,0.975,0c0.317,0.294,0.78,0.245,0.974-0.108c0.081,0.509,0.392,0.166,0.649,0
		c-0.079,0.295,0.214,0.218,0.216,0.432c-0.156,0.067,0.012,0.131,0,0c0.209-0.043,0.086-0.419,0.434-0.324c0,0.108,0,0.216,0,0.324
		c0.473,0.019,0.945,0.038,0.866-0.216c0.138,0.006,0.148,0.138,0.324,0.108c0.162,0.358,0.265-0.225,0.541-0.108
		c0.017,0.127-0.019,0.307,0.107,0.325c0.202-0.16,0.633-0.089,0.65-0.433c0.196,0.643,0.796-0.217,0.974,0.324
		c0.473,0.148,0.23-0.418,0.649-0.324c0.173,0.079-0.024,0.529,0.325,0.433c0.017-0.127-0.019-0.307,0.108-0.325
		c0.281,0.62,1.14,0.079,1.298-0.108c0.047,0.241,0.192,0.385,0.434,0.433c-0.165-0.49,0.415-0.234,0.542-0.433
		c0.463,0.623,1.144,0.257,2.163,0.324c0.354-0.179,0.568-0.033,0.758,0.217c0.001-0.144,0.19-0.099,0.217-0.217
		c0.084,0.024,0.213,0.003,0.216,0.109c-0.156,0.066,0.012,0.13,0,0c0.304-0.228,0.812,0.089,1.299-0.325
		c-0.006,0.138-0.139,0.15-0.107,0.325c0.411,0.159,0.021-0.484,0.433-0.325c-0.004,0.197,0.836,0.385,0.757,0.108
		c0.37-0.082,0.139,0.439,0.542,0.325c0.01-0.171,0.275-0.085,0.216-0.325c0.298,0.418,0.937-0.305,1.299,0.325
		c0.263-0.146,0.067-0.217,0.217-0.325c0.108,0,0.129,0.088,0.217,0.108c0.556,0.401,1.077-0.009,1.516,0.109
		c0.978,0.032,2.31-0.032,2.921,0c0.021,0.123,0.109,0.06,0.109,0c0.476,0.119,0.552,0.092,0.974,0.325
		c0.182-0.453,0.396-0.453,0.758-0.542c0,0.108,0,0.217,0,0.325c0.355-0.005,0.531-0.19,0.649-0.433
		c0.345,0.132-0.072,0.407,0.433,0.433c0.179-0.002,0.061-0.3,0.217-0.325c0.233,0.324,0.72,0.074,1.19,0.325
		c0.001-0.144,0.19-0.099,0.217-0.217c0.107,0,0.216,0,0.324,0c0.066,0.158,0.131-0.011,0,0c0.122-0.317,0.312,0.179,0.434,0.217
		c0.533-0.54,1.125,0.309,1.515-0.325c0.38,0.407,0.661-0.022,0.975,0.433c0.19-0.249,0.453-0.348,0.432-0.541
		c0.085,0.024,0.214,0.003,0.217,0.108c-0.157,0.067,0.012,0.131,0,0c0.143-0.001,0.1-0.19,0.216-0.216
		c0.016,0.201,0.072,0.361,0.218,0.433c0.016-0.269,0.366-0.032,0.433,0c0.013-0.276,0.02-0.557,0.324-0.541
		c-0.006,0.138-0.138,0.15-0.108,0.324c0.367-0.433,0.546-0.406,1.191-0.216c0.06-0.158-0.127-0.56,0.107-0.542
		c0.049,0.276,0.151,0.498,0.325,0.649c0.149-0.066,0.016-0.417,0.217-0.433c0.603-0.163,0.779-0.041,1.082,0
		c1.143,0.154,2.159-1.038,3.138-0.433c0.106-0.111,0.215-0.219,0.326-0.325c0.056,0.377,0.649,0.215,0.54,0.757
		c0.189,0.008,0.337-0.024,0.433-0.108c0.177,0.38,0.255,0.456,0.435,0.975c0.204,0.024,0.237-0.122,0.432-0.108
		c0.249,0.796,0.226,1.238,0.325,1.948c0.201,0.015,0.362,0.071,0.433,0.216c-0.067,0.832,0.889,1.364,1.299,2.057
		C240.533,27.101,240.227,27.865,240.619,28.905z M196.895,22.195C196.823,22.266,196.939,22.149,196.895,22.195L196.895,22.195z
		 M189.318,22.195C189.247,22.266,189.364,22.149,189.318,22.195L189.318,22.195z M186.18,22.195
		C186.108,22.266,186.226,22.149,186.18,22.195L186.18,22.195z M183.258,22.087C183.187,22.158,183.303,22.041,183.258,22.087
		L183.258,22.087z M169.296,22.087C169.274,21.763,168.847,22.19,169.296,22.087C169.362,22.245,169.426,22.076,169.296,22.087z
		 M151.654,22.087C151.583,22.158,151.7,22.041,151.654,22.087L151.654,22.087z M132.821,22.195
		C132.395,22.32,133.25,22.32,132.821,22.195L132.821,22.195z"/>
	<path fill-rule="evenodd" clip-rule="evenodd" d="M238.888,22.087C238.933,22.041,238.816,22.158,238.888,22.087L238.888,22.087z"
		/>
	<path fill-rule="evenodd" clip-rule="evenodd" d="M238.888,22.303C238.933,22.258,238.816,22.375,238.888,22.303L238.888,22.303z"
		/>
	<path fill-rule="evenodd" clip-rule="evenodd" d="M232.178,20.788C232.223,20.743,232.107,20.859,232.178,20.788L232.178,20.788z"
		/>
	<path fill-rule="evenodd" clip-rule="evenodd" d="M229.688,21.33c0.105,0.003,0.084,0.132,0.109,0.216
		C229.691,21.543,229.712,21.413,229.688,21.33z"/>
	<path fill-rule="evenodd" clip-rule="evenodd" fill="#FFFFFF" d="M229.146,21.545C229.158,21.676,228.989,21.612,229.146,21.545
		L229.146,21.545z"/>
	<path fill-rule="evenodd" clip-rule="evenodd" d="M227.848,21.438C227.894,21.392,227.777,21.508,227.848,21.438L227.848,21.438z"
		/>
	<path fill-rule="evenodd" clip-rule="evenodd" d="M226.117,33.343c-0.096,0.314-0.163,0.122-0.435,0.108
		C225.716,33.304,225.954,33.361,226.117,33.343z"/>
	<path fill-rule="evenodd" clip-rule="evenodd" fill="#FFFFFF" d="M225.575,21.653C225.706,21.643,225.642,21.812,225.575,21.653
		L225.575,21.653z"/>
	<path fill-rule="evenodd" clip-rule="evenodd" d="M225.251,21.653C225.119,21.665,225.185,21.497,225.251,21.653L225.251,21.653z"
		/>
	<path fill-rule="evenodd" clip-rule="evenodd" d="M220.813,21.762c-0.036,0-0.072,0-0.109,0
		C220.704,21.702,220.792,21.639,220.813,21.762z"/>
	<path fill-rule="evenodd" clip-rule="evenodd" fill="#FFFFFF" d="M220.704,21.762c0.037,0,0.073,0,0.109,0
		C220.813,21.822,220.726,21.885,220.704,21.762z"/>
	<path fill-rule="evenodd" clip-rule="evenodd" d="M218.432,33.343C218.478,33.297,218.36,33.414,218.432,33.343L218.432,33.343z"/>
	<path fill-rule="evenodd" clip-rule="evenodd" d="M217.783,21.762C217.805,21.438,218.232,21.866,217.783,21.762L217.783,21.762z"
		/>
	<path fill-rule="evenodd" clip-rule="evenodd" d="M216.268,21.653C216.257,21.523,216.425,21.587,216.268,21.653L216.268,21.653z"
		/>
	<path fill-rule="evenodd" clip-rule="evenodd" d="M214.535,21.545C214.404,21.557,214.47,21.389,214.535,21.545L214.535,21.545z"/>
	<path fill-rule="evenodd" clip-rule="evenodd" d="M212.479,33.234C212.49,33.365,212.321,33.301,212.479,33.234L212.479,33.234z"/>
	<path fill-rule="evenodd" clip-rule="evenodd" fill="#FFFFFF" d="M211.396,21.762C211.408,21.893,211.24,21.829,211.396,21.762
		L211.396,21.762z"/>
	<path fill-rule="evenodd" clip-rule="evenodd" d="M211.181,21.653c-0.06,0-0.123-0.087,0-0.108
		C211.181,21.582,211.181,21.618,211.181,21.653z"/>
	<path fill-rule="evenodd" clip-rule="evenodd" d="M210.206,21.653c-0.084-0.024-0.213-0.002-0.217-0.108
		C210.074,21.57,210.203,21.549,210.206,21.653z"/>
	<path fill-rule="evenodd" clip-rule="evenodd" d="M206.526,21.438C206.572,21.392,206.455,21.508,206.526,21.438L206.526,21.438z"
		/>
	<path fill-rule="evenodd" clip-rule="evenodd" d="M206.31,21.438C206.356,21.392,206.239,21.508,206.31,21.438L206.31,21.438z"/>
	<path fill-rule="evenodd" clip-rule="evenodd" fill="#FFFFFF" d="M204.362,33.018c-0.036,0-0.072,0-0.108,0
		C204.254,32.958,204.341,32.896,204.362,33.018z"/>
	<path fill-rule="evenodd" clip-rule="evenodd" d="M204.254,33.018c0.036,0,0.072,0,0.108,0
		C204.362,33.078,204.274,33.141,204.254,33.018z"/>
	<path fill-rule="evenodd" clip-rule="evenodd" d="M202.414,21.545C202.402,21.415,202.571,21.479,202.414,21.545L202.414,21.545z"
		/>
	<path fill-rule="evenodd" clip-rule="evenodd" d="M201.764,21.438C202.192,21.562,201.337,21.562,201.764,21.438L201.764,21.438z"
		/>
	<path fill-rule="evenodd" clip-rule="evenodd" fill="#FFFFFF" d="M200.79,21.653C200.802,21.785,200.634,21.721,200.79,21.653
		L200.79,21.653z"/>
	<path fill-rule="evenodd" clip-rule="evenodd" d="M199.491,21.33C199.537,21.284,199.421,21.4,199.491,21.33L199.491,21.33z"/>
	<path fill-rule="evenodd" clip-rule="evenodd" d="M197.11,21.221C197.155,21.176,197.04,21.292,197.11,21.221L197.11,21.221z"/>
	<path fill-rule="evenodd" clip-rule="evenodd" fill="#FFFFFF" d="M196.895,22.195C196.939,22.149,196.823,22.266,196.895,22.195
		L196.895,22.195z"/>
	<path fill-rule="evenodd" clip-rule="evenodd" fill="#FFFFFF" d="M196.569,32.91C196.558,32.779,196.727,32.843,196.569,32.91
		L196.569,32.91z"/>
	<path fill-rule="evenodd" clip-rule="evenodd" d="M196.354,21.113C196.397,21.067,196.282,21.184,196.354,21.113L196.354,21.113z"
		/>
	<path fill-rule="evenodd" clip-rule="evenodd" d="M195.703,21.33c-0.036,0-0.072,0-0.107,0
		C195.595,21.269,195.684,21.207,195.703,21.33z"/>
	<path fill-rule="evenodd" clip-rule="evenodd" fill="#FFFFFF" d="M195.596,21.33c0.035,0,0.071,0,0.107,0
		C195.704,21.39,195.615,21.452,195.596,21.33z"/>
	<path fill-rule="evenodd" clip-rule="evenodd" d="M194.621,21.221C194.667,21.176,194.551,21.292,194.621,21.221L194.621,21.221z"
		/>
	<path fill-rule="evenodd" clip-rule="evenodd" fill="#FFFFFF" d="M194.188,32.801C194.177,32.671,194.346,32.735,194.188,32.801
		L194.188,32.801z"/>
	<path fill-rule="evenodd" clip-rule="evenodd" d="M193.538,21.33C193.528,21.199,193.696,21.262,193.538,21.33L193.538,21.33z"/>
	<path fill-rule="evenodd" clip-rule="evenodd" d="M192.781,21.33c-0.061,0-0.123-0.088,0-0.108
		C192.781,21.257,192.781,21.293,192.781,21.33z"/>
	<path fill-rule="evenodd" clip-rule="evenodd" d="M191.699,33.018C191.71,33.148,191.542,33.085,191.699,33.018L191.699,33.018z"/>
	<path fill-rule="evenodd" clip-rule="evenodd" d="M190.726,21.33C190.714,21.199,190.883,21.262,190.726,21.33L190.726,21.33z"/>
	<path fill-rule="evenodd" clip-rule="evenodd" fill="#FFFFFF" d="M190.184,21.653c0.061,0,0.123,0.088,0,0.109
		C190.184,21.726,190.184,21.69,190.184,21.653z"/>
	<path fill-rule="evenodd" clip-rule="evenodd" fill="#FFFFFF" d="M189.318,22.195C189.364,22.149,189.247,22.266,189.318,22.195
		L189.318,22.195z"/>
	<path fill-rule="evenodd" clip-rule="evenodd" d="M189.102,21.33C189.091,21.199,189.259,21.262,189.102,21.33L189.102,21.33z"/>
	<path fill-rule="evenodd" clip-rule="evenodd" d="M188.344,21.221c-0.036,0-0.072,0-0.108,0
		C188.235,21.161,188.324,21.098,188.344,21.221z"/>
	<path fill-rule="evenodd" clip-rule="evenodd" fill="#FFFFFF" d="M188.235,21.221c0.036,0,0.072,0,0.108,0
		C188.344,21.281,188.257,21.344,188.235,21.221z"/>
	<path fill-rule="evenodd" clip-rule="evenodd" fill="#FFFFFF" d="M186.18,22.195C186.226,22.149,186.108,22.266,186.18,22.195
		L186.18,22.195z"/>
	<path fill-rule="evenodd" clip-rule="evenodd" d="M183.906,53.041c-0.072,0-0.145,0-0.217,0c0.067-0.294-0.137-0.86,0.108-0.975
		C184.044,52.181,183.84,52.747,183.906,53.041z"/>
	<path fill-rule="evenodd" clip-rule="evenodd" fill="#FFFFFF" d="M183.258,22.087C183.303,22.041,183.187,22.158,183.258,22.087
		L183.258,22.087z"/>
	<path fill-rule="evenodd" clip-rule="evenodd" fill="#FFFFFF" d="M182.608,32.585C182.597,32.455,182.766,32.518,182.608,32.585
		L182.608,32.585z"/>
	<path fill-rule="evenodd" clip-rule="evenodd" d="M178.495,21.004C178.54,20.959,178.425,21.075,178.495,21.004L178.495,21.004z"/>
	<path fill-rule="evenodd" clip-rule="evenodd" fill="#FFFFFF" d="M169.296,22.087C169.426,22.076,169.362,22.245,169.296,22.087
		L169.296,22.087z"/>
	<path fill-rule="evenodd" clip-rule="evenodd" fill="#FFFFFF" d="M169.296,22.087C168.847,22.19,169.274,21.763,169.296,22.087
		L169.296,22.087z"/>
	<path fill-rule="evenodd" clip-rule="evenodd" d="M165.292,20.788C165.336,20.743,165.221,20.859,165.292,20.788L165.292,20.788z"
		/>
	<path fill-rule="evenodd" clip-rule="evenodd" d="M161.395,32.91C161.44,32.865,161.323,32.98,161.395,32.91L161.395,32.91z"/>
	<path fill-rule="evenodd" clip-rule="evenodd" d="M158.148,21.004C158.192,20.959,158.076,21.075,158.148,21.004L158.148,21.004z"
		/>
	<path fill-rule="evenodd" clip-rule="evenodd" d="M155.875,21.004C155.92,20.959,155.805,21.075,155.875,21.004L155.875,21.004z"/>
	<path fill-rule="evenodd" clip-rule="evenodd" d="M153.603,33.018C153.647,32.973,153.532,33.089,153.603,33.018L153.603,33.018z"
		/>
	<path fill-rule="evenodd" clip-rule="evenodd" fill="#FFFFFF" d="M151.654,22.087C151.7,22.041,151.583,22.158,151.654,22.087
		L151.654,22.087z"/>
	<path fill-rule="evenodd" clip-rule="evenodd" d="M151.546,33.126C151.592,33.081,151.475,33.197,151.546,33.126L151.546,33.126z"
		/>
	<path fill-rule="evenodd" clip-rule="evenodd" d="M148.948,32.91C148.994,32.865,148.878,32.98,148.948,32.91L148.948,32.91z"/>
	<path fill-rule="evenodd" clip-rule="evenodd" fill="#FFFFFF" d="M145.161,21.221C145.291,21.21,145.227,21.378,145.161,21.221
		L145.161,21.221z"/>
	<path fill-rule="evenodd" clip-rule="evenodd" d="M141.156,32.91C141.201,32.865,141.084,32.98,141.156,32.91L141.156,32.91z"/>
	<path fill-rule="evenodd" clip-rule="evenodd" fill="#FFFFFF" d="M140.399,32.801c-0.036,0-0.073,0-0.109,0
		C140.29,32.741,140.377,32.679,140.399,32.801z"/>
	<path fill-rule="evenodd" clip-rule="evenodd" d="M140.29,32.801c0.036,0,0.073,0,0.109,0
		C140.423,32.985,140.276,33.069,140.29,32.801z"/>
	<path fill-rule="evenodd" clip-rule="evenodd" d="M139.857,21.221c-0.06,0-0.122-0.088,0-0.108
		C139.857,21.148,139.857,21.185,139.857,21.221z"/>
	<path fill-rule="evenodd" clip-rule="evenodd" fill="#FFFFFF" d="M132.821,22.195C133.25,22.32,132.395,22.32,132.821,22.195
		L132.821,22.195z"/>
	<path fill-rule="evenodd" clip-rule="evenodd" fill="#FFFFFF" d="M131.198,21.33C131.329,21.318,131.266,21.486,131.198,21.33
		L131.198,21.33z"/>
	<path fill-rule="evenodd" clip-rule="evenodd" d="M130.767,21.438C130.635,21.448,130.699,21.28,130.767,21.438L130.767,21.438z"/>
	<path fill-rule="evenodd" clip-rule="evenodd" d="M128.276,33.018C128.322,32.973,128.205,33.089,128.276,33.018L128.276,33.018z"
		/>
	<path fill-rule="evenodd" clip-rule="evenodd" fill="#FFFFFF" d="M127.519,21.438C127.531,21.568,127.361,21.504,127.519,21.438
		L127.519,21.438z"/>
	<path fill-rule="evenodd" clip-rule="evenodd" d="M124.38,21.33c-0.072,0-0.145,0-0.216,0
		C124.165,21.22,124.354,21.193,124.38,21.33z"/>
	<path fill-rule="evenodd" clip-rule="evenodd" fill="#FFFFFF" d="M124.38,21.33c-0.001,0.109-0.189,0.135-0.216,0
		C124.235,21.33,124.308,21.33,124.38,21.33z"/>
	<path fill-rule="evenodd" clip-rule="evenodd" d="M122.324,21.438C122.206,20.931,122.831,21.556,122.324,21.438L122.324,21.438z"
		/>
	<path fill-rule="evenodd" clip-rule="evenodd" fill="#FFFFFF" d="M120.917,33.018C120.906,32.887,121.074,32.952,120.917,33.018
		L120.917,33.018z"/>
	<path fill-rule="evenodd" clip-rule="evenodd" fill="#FFFFFF" d="M118.427,33.018C118.296,33.029,118.361,32.86,118.427,33.018
		L118.427,33.018z"/>
	<path fill-rule="evenodd" clip-rule="evenodd" d="M116.804,21.545C116.793,21.415,116.961,21.479,116.804,21.545L116.804,21.545z"
		/>
	<path fill-rule="evenodd" clip-rule="evenodd" d="M114.747,21.545C115.175,21.671,114.32,21.671,114.747,21.545L114.747,21.545z"/>
	<path fill-rule="evenodd" clip-rule="evenodd" fill="#FFFFFF" d="M113.124,33.234c-0.06,0-0.123-0.087,0-0.108
		C113.124,33.163,113.124,33.198,113.124,33.234z"/>
	<path fill-rule="evenodd" clip-rule="evenodd" fill="#FFFFFF" d="M112.367,33.126C112.236,33.137,112.3,32.969,112.367,33.126
		L112.367,33.126z"/>
	<path fill-rule="evenodd" clip-rule="evenodd" d="M111.501,21.653C111.929,21.779,111.073,21.779,111.501,21.653L111.501,21.653z"
		/>
	<path fill-rule="evenodd" clip-rule="evenodd" d="M110.852,21.762c0.024-0.084,0.003-0.213,0.108-0.217
		C110.936,21.629,110.957,21.759,110.852,21.762z"/>
	<path fill-rule="evenodd" clip-rule="evenodd" fill="#FFFFFF" d="M107.063,21.979c0.061,0,0.124,0.088,0,0.108
		C107.063,22.051,107.063,22.015,107.063,21.979z"/>
	<path fill-rule="evenodd" clip-rule="evenodd" d="M106.306,33.451C106.437,33.44,106.372,33.609,106.306,33.451L106.306,33.451z"/>
	<path fill-rule="evenodd" clip-rule="evenodd" fill="#FFFFFF" d="M105.115,21.979c0.06,0,0.123,0.088,0,0.108
		C105.115,22.051,105.115,22.015,105.115,21.979z"/>
	<path fill-rule="evenodd" clip-rule="evenodd" d="M105.007,21.979c0.036,0,0.072,0,0.108,0c0,0.036,0,0.072,0,0.108
		c-0.036,0-0.072,0-0.108,0C105.007,22.051,105.007,22.015,105.007,21.979z"/>
	<path fill-rule="evenodd" clip-rule="evenodd" fill="#FFFFFF" d="M105.007,22.087c0.036,0,0.072,0,0.108,0
		C105.116,22.147,105.028,22.209,105.007,22.087z"/>
	<path fill-rule="evenodd" clip-rule="evenodd" d="M105.007,21.979C104.876,21.989,104.94,21.821,105.007,21.979L105.007,21.979z"/>
	<path fill-rule="evenodd" clip-rule="evenodd" d="M104.358,33.667C104.403,33.622,104.287,33.738,104.358,33.667L104.358,33.667z"
		/>
	<path fill-rule="evenodd" clip-rule="evenodd" fill="#FFFFFF" d="M104.033,33.667c-0.036,0-0.072,0-0.108,0
		C103.924,33.608,104.013,33.545,104.033,33.667z"/>
	<path fill-rule="evenodd" clip-rule="evenodd" d="M103.925,33.667c0.036,0,0.072,0,0.108,0
		C104.033,33.728,103.946,33.791,103.925,33.667z"/>
	<path fill-rule="evenodd" clip-rule="evenodd" fill="#FFFFFF" d="M102.95,22.087c0.061,0,0.124,0.087,0,0.108
		C102.95,22.159,102.95,22.123,102.95,22.087z"/>
	<path fill-rule="evenodd" clip-rule="evenodd" fill="#FFFFFF" d="M102.301,22.087C102.432,22.076,102.368,22.245,102.301,22.087
		L102.301,22.087z"/>
	<path fill-rule="evenodd" clip-rule="evenodd" d="M101.76,33.775C101.806,33.73,101.689,33.847,101.76,33.775L101.76,33.775z"/>
	<path fill-rule="evenodd" clip-rule="evenodd" d="M101.436,33.775C101.481,33.73,101.365,33.847,101.436,33.775L101.436,33.775z"/>
	<path fill-rule="evenodd" clip-rule="evenodd" d="M100.569,33.775C100.581,33.907,100.413,33.842,100.569,33.775L100.569,33.775z"
		/>
	<path fill-rule="evenodd" clip-rule="evenodd" fill="#FFFFFF" d="M100.137,33.667c-0.036,0-0.072,0-0.108,0
		C100.029,33.608,100.116,33.545,100.137,33.667z"/>
	<path fill-rule="evenodd" clip-rule="evenodd" d="M100.029,33.667c0.036,0,0.072,0,0.108,0
		C100.137,33.728,100.049,33.791,100.029,33.667z"/>
	<path fill-rule="evenodd" clip-rule="evenodd" d="M99.379,33.884C99.51,33.872,99.446,34.042,99.379,33.884L99.379,33.884z"/>
	<path fill-rule="evenodd" clip-rule="evenodd" d="M96.457,33.884C96.502,33.838,96.386,33.955,96.457,33.884L96.457,33.884z"/>
	<path fill-rule="evenodd" clip-rule="evenodd" fill="#FFFFFF" d="M95.267,22.52C95.397,22.509,95.333,22.677,95.267,22.52
		L95.267,22.52z"/>
	<path fill-rule="evenodd" clip-rule="evenodd" d="M84.768,22.953C84.757,22.822,84.925,22.886,84.768,22.953L84.768,22.953z"/>
	<path fill-rule="evenodd" clip-rule="evenodd" d="M84.443,22.953C84.313,22.963,84.377,22.795,84.443,22.953L84.443,22.953z"/>
	<path fill-rule="evenodd" clip-rule="evenodd" d="M83.794,22.844C83.84,22.799,83.723,22.915,83.794,22.844L83.794,22.844z"/>
	<path fill-rule="evenodd" clip-rule="evenodd" d="M83.253,22.844C83.681,22.97,82.825,22.97,83.253,22.844L83.253,22.844z"/>
	<path fill-rule="evenodd" clip-rule="evenodd" d="M82.496,22.953C82.93,23.015,81.855,22.861,82.496,22.953L82.496,22.953z"/>
	<path fill-rule="evenodd" clip-rule="evenodd" d="M80.223,34.858C80.354,34.847,80.29,35.016,80.223,34.858L80.223,34.858z"/>
	<path fill-rule="evenodd" clip-rule="evenodd" fill="#FFFFFF" d="M80.223,23.385C80.234,23.517,80.065,23.452,80.223,23.385
		L80.223,23.385z"/>
	<path fill-rule="evenodd" clip-rule="evenodd" d="M79.681,23.169C80.109,23.294,79.253,23.294,79.681,23.169L79.681,23.169z"/>
	<path fill-rule="evenodd" clip-rule="evenodd" fill="#FFFFFF" d="M79.249,23.385c0.06,0,0.123,0.088,0,0.108
		C79.249,23.458,79.249,23.421,79.249,23.385z"/>
	<path fill-rule="evenodd" clip-rule="evenodd" fill="#FFFFFF" d="M79.032,34.858c-0.036,0-0.072,0-0.108,0
		C78.924,34.798,79.011,34.735,79.032,34.858z"/>
	<path fill-rule="evenodd" clip-rule="evenodd" d="M78.924,34.858c0.036,0,0.072,0,0.108,0
		C79.032,34.918,78.944,34.98,78.924,34.858z"/>
	<path fill-rule="evenodd" clip-rule="evenodd" d="M78.815,23.277C78.804,23.146,78.973,23.211,78.815,23.277L78.815,23.277z"/>
	<path fill-rule="evenodd" clip-rule="evenodd" d="M74.487,23.169C74.532,23.124,74.415,23.24,74.487,23.169L74.487,23.169z"/>
	<path fill-rule="evenodd" clip-rule="evenodd" d="M71.023,23.818C71.068,23.773,70.952,23.89,71.023,23.818L71.023,23.818z"/>
	<path fill-rule="evenodd" clip-rule="evenodd" d="M69.075,24.035C69.12,23.99,69.004,24.105,69.075,24.035L69.075,24.035z"/>
	<path fill-rule="evenodd" clip-rule="evenodd" d="M68.967,23.818C69.012,23.773,68.896,23.89,68.967,23.818L68.967,23.818z"/>
	<path fill-rule="evenodd" clip-rule="evenodd" d="M64.962,36.59C64.973,36.721,64.805,36.656,64.962,36.59L64.962,36.59z"/>
	<path fill-rule="evenodd" clip-rule="evenodd" d="M64.313,24.793C64.747,24.854,63.672,24.701,64.313,24.793L64.313,24.793z"/>
	<path fill-rule="evenodd" clip-rule="evenodd" d="M63.88,25.009C63.75,25.02,63.813,24.852,63.88,25.009L63.88,25.009z"/>
	<path fill-rule="evenodd" clip-rule="evenodd" d="M63.122,24.901c-0.06,0-0.123-0.088,0-0.108
		C63.122,24.829,63.122,24.865,63.122,24.901z"/>
	<path fill-rule="evenodd" clip-rule="evenodd" d="M62.473,24.901C62.518,24.855,62.402,24.972,62.473,24.901L62.473,24.901z"/>
	<path fill-rule="evenodd" clip-rule="evenodd" d="M60.633,37.239c0.06-0.001,0.124,0.087,0,0.108
		C60.633,37.311,60.633,37.275,60.633,37.239z"/>
	<path fill-rule="evenodd" clip-rule="evenodd" d="M59.659,37.455C59.67,37.586,59.501,37.522,59.659,37.455L59.659,37.455z"/>
	<path fill-rule="evenodd" clip-rule="evenodd" d="M58.577,25.55C59.004,25.675,58.149,25.675,58.577,25.55L58.577,25.55z"/>
	<path fill-rule="evenodd" clip-rule="evenodd" d="M57.386,25.766C57.432,25.722,57.315,25.837,57.386,25.766L57.386,25.766z"/>
	<path fill-rule="evenodd" clip-rule="evenodd" d="M56.845,25.875C56.714,25.886,56.779,25.717,56.845,25.875L56.845,25.875z"/>
	<path fill-rule="evenodd" clip-rule="evenodd" fill="#FFFFFF" d="M54.789,37.996c-0.06,0.001-0.123-0.087,0-0.108
		C54.789,37.925,54.789,37.96,54.789,37.996z"/>
	<path fill-rule="evenodd" clip-rule="evenodd" fill="#FFFFFF" d="M54.356,26.633C54.366,26.763,54.198,26.699,54.356,26.633
		L54.356,26.633z"/>
	<path fill-rule="evenodd" clip-rule="evenodd" fill="#FFFFFF" d="M54.248,38.104c0.006-0.065,0.016-0.128,0.108-0.108
		C54.35,38.063,54.34,38.125,54.248,38.104z"/>
	<path fill-rule="evenodd" clip-rule="evenodd" d="M53.381,38.321C53.427,38.276,53.311,38.393,53.381,38.321L53.381,38.321z"/>
	<path fill-rule="evenodd" clip-rule="evenodd" d="M52.948,38.538C52.96,38.668,52.792,38.604,52.948,38.538L52.948,38.538z"/>
	<path fill-rule="evenodd" clip-rule="evenodd" d="M51.434,26.633C51.479,26.587,51.363,26.703,51.434,26.633L51.434,26.633z"/>
	<path fill-rule="evenodd" clip-rule="evenodd" d="M51.108,14.944c0.036,0,0.072,0,0.108,0c-0.084,0.267,0.393,0.749-0.108,0.757
		C51.04,15.657,50.921,15.187,51.108,14.944z"/>
	<path fill-rule="evenodd" clip-rule="evenodd" d="M50.676,39.188C50.721,39.142,50.605,39.258,50.676,39.188L50.676,39.188z"/>
	<path fill-rule="evenodd" clip-rule="evenodd" d="M48.944,26.958C48.989,26.912,48.873,27.028,48.944,26.958L48.944,26.958z"/>
	<path fill-rule="evenodd" clip-rule="evenodd" fill="#FFFFFF" d="M47.862,39.078C47.731,39.09,47.795,38.922,47.862,39.078
		L47.862,39.078z"/>
	<path fill-rule="evenodd" clip-rule="evenodd" d="M44.723,27.606c0.024-0.083,0.003-0.213,0.108-0.216
		C44.807,27.474,44.829,27.604,44.723,27.606z"/>
	<path fill-rule="evenodd" clip-rule="evenodd" d="M44.723,27.606c0,0.036,0,0.072,0,0.109
		C44.663,27.715,44.601,27.627,44.723,27.606z"/>
	<path fill-rule="evenodd" clip-rule="evenodd" d="M44.074,39.728C44.204,39.717,44.141,39.886,44.074,39.728L44.074,39.728z"/>
	<path fill-rule="evenodd" clip-rule="evenodd" d="M43.533,39.945C43.664,39.934,43.599,40.103,43.533,39.945L43.533,39.945z"/>
	<path fill-rule="evenodd" clip-rule="evenodd" fill="#FFFFFF" d="M43.316,39.836c-0.061,0.001-0.123-0.087,0-0.108
		C43.316,39.765,43.316,39.8,43.316,39.836z"/>
	<path fill-rule="evenodd" clip-rule="evenodd" fill="#FFFFFF" d="M41.584,28.473C41.715,28.461,41.651,28.629,41.584,28.473
		L41.584,28.473z"/>
	<path fill-rule="evenodd" clip-rule="evenodd" d="M41.368,28.039C41.796,28.165,40.94,28.165,41.368,28.039L41.368,28.039z"/>
	<path fill-rule="evenodd" clip-rule="evenodd" d="M40.827,40.377C40.958,40.367,40.893,40.534,40.827,40.377L40.827,40.377z"/>
	<path fill-rule="evenodd" clip-rule="evenodd" d="M38.879,40.919C38.924,40.874,38.808,40.99,38.879,40.919L38.879,40.919z"/>
	<path fill-rule="evenodd" clip-rule="evenodd" d="M33.9,29.122C33.946,29.076,33.829,29.193,33.9,29.122L33.9,29.122z"/>
	<path fill-rule="evenodd" clip-rule="evenodd" d="M33.684,29.23C33.729,29.185,33.613,29.301,33.684,29.23L33.684,29.23z"/>
	<path fill-rule="evenodd" clip-rule="evenodd" d="M32.709,41.676c0.061,0,0.123,0.088,0,0.109
		C32.709,41.749,32.709,41.713,32.709,41.676z"/>
	<path fill-rule="evenodd" clip-rule="evenodd" d="M29.463,29.663C29.891,29.788,29.035,29.788,29.463,29.663L29.463,29.663z"/>
	<path fill-rule="evenodd" clip-rule="evenodd" d="M25.134,30.096C25.562,30.221,24.706,30.221,25.134,30.096L25.134,30.096z"/>
	<path fill-rule="evenodd" clip-rule="evenodd" d="M24.593,42.649C24.604,42.781,24.436,42.717,24.593,42.649L24.593,42.649z"/>
	<path fill-rule="evenodd" clip-rule="evenodd" d="M24.376,30.528C24.365,30.397,24.533,30.462,24.376,30.528L24.376,30.528z"/>
	<path fill-rule="evenodd" clip-rule="evenodd" d="M21.237,43.3C21.665,43.425,20.81,43.425,21.237,43.3L21.237,43.3z"/>
	<path fill-rule="evenodd" clip-rule="evenodd" d="M19.938,43.3C19.984,43.255,19.868,43.37,19.938,43.3L19.938,43.3z"/>
	<path fill-rule="evenodd" clip-rule="evenodd" fill="#FFFFFF" d="M19.29,43.3c-0.036,0-0.072,0-0.108,0
		C19.181,43.239,19.269,43.177,19.29,43.3z"/>
	<path fill-rule="evenodd" clip-rule="evenodd" d="M19.181,43.3c0.036,0,0.072,0,0.108,0C19.29,43.359,19.202,43.424,19.181,43.3z"
		/>
	<path fill-rule="evenodd" clip-rule="evenodd" d="M18.532,30.854C18.577,30.808,18.46,30.924,18.532,30.854L18.532,30.854z"/>
	<path fill-rule="evenodd" clip-rule="evenodd" d="M17.666,30.961C17.711,30.916,17.595,31.033,17.666,30.961L17.666,30.961z"/>
	<path fill-rule="evenodd" clip-rule="evenodd" d="M13.229,30.854C13.273,30.808,13.157,30.924,13.229,30.854L13.229,30.854z"/>
	<path fill-rule="evenodd" clip-rule="evenodd" fill="#FFFFFF" d="M12.254,43.517c-0.072,0-0.144,0-0.217,0
		c0.006-0.066,0.017-0.129,0.109-0.108C12.212,43.415,12.274,43.424,12.254,43.517z"/>
	<path fill-rule="evenodd" clip-rule="evenodd" d="M12.254,43.517c-0.001,0.108-0.19,0.136-0.217,0
		C12.11,43.517,12.182,43.517,12.254,43.517z"/>
	<path fill-rule="evenodd" clip-rule="evenodd" d="M11.713,30.204C11.759,30.159,11.642,30.275,11.713,30.204L11.713,30.204z"/>
	<path fill-rule="evenodd" clip-rule="evenodd" d="M8.683,41.785C8.729,41.739,8.612,41.855,8.683,41.785L8.683,41.785z"/>
	<path fill-rule="evenodd" clip-rule="evenodd" fill="#FFFFFF" d="M8.25,39.404C8.239,39.272,8.407,39.337,8.25,39.404L8.25,39.404z
		"/>
	<path fill-rule="evenodd" clip-rule="evenodd" d="M7.492,33.018C7.92,33.144,7.064,33.144,7.492,33.018L7.492,33.018z"/>
	<path fill-rule="evenodd" clip-rule="evenodd" d="M7.384,32.801C7.429,32.756,7.313,32.873,7.384,32.801L7.384,32.801z"/>
	<path fill-rule="evenodd" clip-rule="evenodd" d="M2.73,33.234c0.06,0,0.122,0.088,0,0.108C2.73,33.307,2.73,33.271,2.73,33.234z"
		/>
</g>
</svg>
