<?xml version="1.0" encoding="utf-8"?>
<!-- Generator: Adobe Illustrator 15.1.0, SVG Export Plug-In . SVG Version: 6.00 Build 0)  -->
<!DOCTYPE svg PUBLIC "-//W3C//DTD SVG 1.1//EN" "http://www.w3.org/Graphics/SVG/1.1/DTD/svg11.dtd">
<svg version="1.1" id="Ebene_1" xmlns="http://www.w3.org/2000/svg" xmlns:xlink="http://www.w3.org/1999/xlink" x="0px" y="0px"
	 width="245px" height="66px" viewBox="0 0 245 66" enable-background="new 0 0 245 66" xml:space="preserve">
<g>
	<path fill-rule="evenodd" clip-rule="evenodd" fill="#FFFFFF" d="M246.547,17.246c-0.467-0.627-0.335-1.194-0.239-1.795
		c-0.204-0.044-0.226,0.093-0.239,0.239c-0.383-0.062-0.305-1.205-0.12-1.437c-0.612-0.534-0.883-1.833-1.437-2.514
		c-0.122-0.15-0.74-0.312-0.599-0.599c0.878,0,1.756,0,2.634,0C246.547,13.176,246.547,15.211,246.547,17.246z"/>
	<path fill-rule="evenodd" clip-rule="evenodd" d="M246.547,17.246c0,0.479,0,0.958,0,1.437c-0.162,0.037-0.1,0.299-0.12,0.479
		c-0.277,0.265-0.32,0.106-0.599,0.24c-0.048,0.51,0.116,1.233-0.119,1.556c-0.23-0.243-0.481-0.278-0.838-0.12
		c0.162,0.198-0.098,0.698,0,1.197c-0.269-0.194-0.59-0.252-0.958,0c-0.306-0.292-0.513,0.191-0.599,0.479
		c-0.624-0.273-1.248,0.197-1.676-0.239c-0.173,0.027-0.042,0.357-0.239,0.359c-0.406-0.196-0.427-0.514-0.719,0
		c-0.256,0.056-0.229-0.171-0.239-0.359c-0.206,0.28-0.576,0.313-0.719,0c-0.086,0.178-0.741,0.504-0.718-0.12
		c-0.338,0.464-1.912,0.549-1.677,0.12c-0.475-0.116-0.371,0.347-0.479,0.599c-0.179-0.447-0.687,0.128-0.719-0.359
		c-0.535,0.359-0.774,0.007-1.316,0.359c0.005-0.205-0.089-0.31-0.239-0.359c-0.162,0.118-0.239,0.32-0.359,0.479
		c-0.142-0.035-0.452-0.482-0.599-0.12c-0.141-0.02-0.101-0.218-0.12-0.359c-0.664-0.139-0.727,0.453-1.077,0
		c-0.271,0.067,0.146,0.187-0.119,0.359c-0.555-0.364-0.926,0.168-1.438-0.359c-0.178,0.053,0.048,0.153,0,0.359
		c-0.172-0.134-0.292-0.129-0.358,0.12c-0.161-0.079-0.224-0.256-0.24-0.479c-0.265-0.065-0.17,0.229-0.358,0.24
		c-0.023-0.136-0.12-0.066-0.12,0c-0.116,0.003-0.093,0.146-0.12,0.239c-0.252-0.266-0.663,0.213-0.718-0.359
		c-0.416-0.011-0.93,0.499-1.197,0.239c0.174-0.074-0.012-0.145,0,0c-0.47-0.049-0.762,0.311-0.958-0.12
		c-0.409-0.09-0.151,0.486-0.599,0.359c0.128-0.563-0.448,0.242-0.358-0.359c-0.107,0.053-0.215,0.105-0.24,0.239
		c-0.111-0.087-0.181-0.218-0.239-0.359c0.174-0.074-0.012-0.145,0,0c-0.147,0.052-0.246,0.153-0.239,0.359
		c-0.238-0.08-0.512-0.413-0.599,0c-0.116-0.003-0.093-0.146-0.12-0.239c-0.141,0.37-0.3-0.019-0.479,0.239
		c-0.45,0.036-0.467-0.163-0.599,0.12c-0.229-0.312-0.764-0.324-0.838,0.12c-0.3,0.021-0.291-0.268-0.479-0.359
		c-0.147,0.052-0.246,0.153-0.24,0.359c-0.285-0.031-1.408-0.58-1.437,0.12c-0.391,0.032-0.254-0.465-0.599-0.479
		c-0.245,0.033-0.238,0.32-0.358,0.479c-0.179-0.629-0.817-0.054-1.197-0.359c-0.323,0.112-0.215,0.54-0.479,0.12
		c-0.38-0.334-1.877,0.447-2.274-0.239c-0.122,0.117-0.242,0.237-0.359,0.359c-0.292-0.304-0.255,0.252-0.718,0.12
		c-0.043-0.157-0.211-0.188-0.239-0.359c0.174-0.074-0.013-0.145,0,0c-0.117,0.003-0.094,0.146-0.12,0.24
		c-0.356,0.005-0.957-0.356-1.077,0.12c-0.451-0.092-0.572,0.146-0.958,0.12c-0.022-0.136-0.12-0.066-0.12,0
		c-0.555-0.186-1.586-0.377-1.796,0.239c-0.16-0.079-0.223-0.256-0.239-0.479c-0.526,0.458-1.869-0.181-2.274,0.599
		c0-0.24,0-0.479,0-0.719c-0.357,0.042-0.477,0.322-0.599,0.599c-0.073-0.325-0.627-0.171-0.838-0.359
		c-0.022-0.136-0.12-0.066-0.12,0c-0.458,0.058-1.013,0.112-1.556,0.359c-0.1-0.429-0.452,0.143-0.479-0.359
		c-0.089,0.538-0.733-0.175-0.718,0.359c-0.238-0.226-0.512-0.112-0.599-0.239c-0.246,0.113-0.248,0.471-0.599,0.479
		c0-0.04,0-0.08,0-0.12c0.04,0,0.079,0,0.119,0c-0.022-0.136-0.12-0.067-0.119,0c-0.202-0.214-0.538-0.335-0.719,0
		c-0.281-0.156-0.268,0.061-0.479-0.24c-0.647,0.382-1.051,0.024-1.796,0.359c0.24-0.244-0.053-0.235-0.12-0.479
		c-0.387,0.132-0.749,0.288-1.077,0.479c0.353-0.916-1.25,0.242-1.317-0.359c-0.078,0.145-0.689,0.68-0.718,0.12
		c-0.211,0.104-0.371,0.401-0.479,0c0.174-0.073-0.013-0.145,0,0c-0.117,0.003-0.094,0.146-0.12,0.24
		c-1.425,0.011-1.872-0.325-2.993,0c-0.246-0.034-0.239-0.32-0.359-0.479c-0.478,0.646-1.685,0.654-2.035,0.12
		c-0.236,0.083-0.319,0.319-0.358,0.599c-0.052-0.285-0.806-0.388-0.839,0c-0.178-0.102-0.173-0.385-0.239-0.599
		c-0.315-0.036-0.393,0.166-0.359,0.479c-0.955-0.695-3.112,0.406-5.147-0.12c-0.073-0.174-0.145,0.012,0,0
		c-0.022,0.097-0.12,0.119-0.12,0.239c-0.275,0.037-0.133-0.346-0.358-0.359c-0.141,0.019-0.102,0.218-0.12,0.359
		c-1.146-0.125-2.384-0.314-3.353,0.12c-0.3-0.363-0.659,0.076-0.838-0.359c-0.562,0.394-1.435-0.052-1.676,0.479
		c-0.613-0.313-0.363,0.002-1.077,0c0.137-0.377-0.188-0.291-0.24-0.479c-0.21,0.029-0.272,0.206-0.239,0.479
		c-0.357-0.172-0.407,0.098-0.718-0.12c0-0.08,0-0.16,0-0.239c-0.22,0.14-0.405,0.313-0.599,0.479
		c-0.249-0.067-0.254-0.187-0.12-0.359c-0.914-0.006-1.51,0.385-2.035,0c-0.632,0.31-0.977,0.343-1.437,0.12
		c-0.141,0.02-0.101,0.218-0.12,0.359c-0.834-0.481-0.624,0.233-1.437-0.359c-0.113,0.347-0.622,0.649-0.838,0.24
		c0.174-0.074-0.012-0.145,0,0c-0.203-0.044-0.226,0.093-0.239,0.239c-0.175-0.104-0.464-0.095-0.359-0.479
		c-0.517,0.751-1.168-0.188-1.676,0.359c-0.436-0.206-1.554-0.285-1.916,0.12c-0.278,0.038-0.175-0.522-0.599-0.12
		c-0.111-0.073-0.441-0.279-0.358,0.12c-0.322,0.083-0.231-0.248-0.359-0.359c-0.176,0.258-0.768,0.328-0.838-0.12
		c-0.551,0.315-1.844,0.702-2.275-0.12c-0.16,0.079-0.223,0.256-0.239,0.479c-0.157-0.144-0.188-0.047-0.358,0
		c-0.081-0.383-0.398-0.226-0.479-0.359c-0.14,0.02-0.101,0.218-0.119,0.359c-0.402,0.125-0.799-0.428-0.719,0.239
		c-0.338,0.019-0.3-0.338-0.479-0.479c-0.347,0.217-0.546,0.022-0.599,0.359c-0.276,0.037-0.133-0.346-0.359-0.359
		c-0.375-0.056-0.338,0.301-0.479,0.479c-0.112-0.088-0.182-0.218-0.24-0.359c-0.248,0.071-0.408,0.23-0.479,0.479
		c-0.25-0.189-0.234-0.643-0.719-0.598c-0.162,0.117-0.154,0.403-0.358,0.479c-0.214-0.583-0.396-0.219-0.719,0
		c0.132-0.451-1.379-0.391-1.437,0c-0.385,0.105-0.164-0.395-0.479-0.359c-0.29,0.069-0.267,0.452-0.359,0.718
		c-0.26,0.02-0.055-0.425-0.12-0.599c-0.443,0.398-0.741-0.224-0.957,0.239c-0.107-0.074-0.215-0.145-0.24,0
		c-0.609-0.259-1.783-0.355-2.634,0.12c0.037-0.315-0.25-0.309-0.479-0.359c-0.153,0.721-0.528-0.233-0.599,0.479
		c-0.106-0.074-0.214-0.145-0.239,0c-0.141-0.02-0.102-0.218-0.12-0.359c-0.12,0.277-0.444,0.282-0.599,0
		c-0.122,0.117-0.242,0.237-0.359,0.359c-0.111-0.128-0.441-0.038-0.358-0.359c-0.146,0.294-0.646,0.232-0.719,0.599
		c-0.281-0.038-0.071-0.567-0.479-0.479c-0.067,0.001-0.003,0.672-0.359,0.24c0.174-0.074-0.012-0.145,0,0c-0.04,0-0.08,0-0.12,0
		c0.048-0.232-0.545-0.175-0.358,0.12c-1.529-0.01-3.013-0.069-4.19,0.479c-0.453-0.59-1.432,0.223-1.796-0.359
		c-0.341,0.286-0.607-0.049-0.719,0.359c-1.072-0.785-2.318,0.028-3.591,0.12c-1.382,0.1-2.918-0.407-4.43,0.12
		c-0.063-0.096-0.125-0.194-0.12-0.359c-1.032-0.04-2.735,0.609-3.95,0.12c-0.222,0.018-0.074,0.406-0.24,0.479
		c-0.16-0.079-0.223-0.256-0.239-0.479c-0.349,0.319-1.083,0.551-1.316,0c-0.83,0.662-2.065,0.459-2.754,0.24
		c-0.306,0.013-0.419,0.219-0.599,0.359c-0.73-0.466-0.488,0.242-1.197,0.12c0-0.04,0-0.08,0-0.12c0.174-0.073-0.012-0.145,0,0
		c-0.41-0.254-0.616-0.085-0.599,0.24c-0.13-0.03-0.081-0.238-0.239-0.24c-0.029-0.15-0.238-0.121-0.239,0
		c-0.097-0.022-0.119-0.12-0.239-0.12c-0.141,0.02-0.101,0.218-0.12,0.359c-0.125-0.206-0.847-0.002-0.479-0.359
		c-0.453-0.173-0.23,0.329-0.599,0.24c0.056-0.256-0.171-0.228-0.359-0.24c-0.234,0.051,0.196,0.342-0.359,0.24
		c-0.074-0.174-0.145,0.012,0,0c-0.023,0.097-0.12,0.119-0.12,0.239c-0.256-0.068-0.572-0.492-0.718,0
		c-0.197-0.192,0.054-0.447-0.239-0.718c-0.389,0.17-0.829,0.289-0.958,0.718c-0.44-0.29-0.522-0.157-0.958,0.12
		c-0.106-0.093-0.271-0.128-0.479-0.12c-0.029-0.15-0.238-0.121-0.239,0c-0.313-0.034-0.515,0.044-0.479,0.359
		c-0.508-0.079-0.087-0.343-0.479-0.479c-0.261-0.022-0.381,0.098-0.359,0.359c-0.16-0.12-0.361-0.197-0.479-0.359
		c-0.097,0.103-0.328,0.071-0.359,0.239c-0.306,0.005-0.146-0.089-0.12-0.239c-0.273-0.034-0.45,0.029-0.479,0.239
		c-0.637-0.346-1.411,0.381-1.557-0.12c-0.469-0.045-0.306,0.616-0.599,0.12c-0.177,0.102-0.257,0.301-0.239,0.599
		c-0.172,0.064-0.292-0.466-0.359-0.12c-0.152-0.26-0.028-0.267-0.239-0.599c-0.382,0.75-1.509,0.104-1.796,0.599
		c-0.169-0.363-0.694-0.09-1.197-0.239c-0.14,0.019-0.101,0.218-0.12,0.359c-0.21-0.172-0.273-0.11-0.239,0.24
		c-0.376-0.204-0.426-0.28-0.479-0.599c-0.116,0.003-0.093,0.146-0.12,0.239c-1.057-0.771-1.878,0.514-2.993-0.12
		c-0.23,0.048-0.094,0.464-0.479,0.359c0-0.16,0-0.319,0-0.479c-1.594,0.479-3.201,0.693-4.55,0.359
		c-0.314-0.036-0.094,0.464-0.479,0.359c-0.025-0.348-0.697-0.23-0.838,0.12c-0.117-0.003-0.093-0.146-0.12-0.239
		c0.174-0.074-0.012-0.145,0,0c-0.097,0.083-0.328,0.186-0.359,0c0.174-0.074-0.012-0.145,0,0c-0.386,0.359-1.234-0.058-1.317,0.359
		c-0.319-0.182-0.8,0.163-0.958-0.359c-0.131,0.5-0.975,0.104-0.958,0.479c-0.325-0.034-0.564-0.154-0.718-0.359
		c-0.143,0.335-0.432,0.525-0.958,0.479c-0.022-0.136-0.12-0.066-0.12,0c-0.116-0.003-0.093-0.146-0.12-0.239
		c-0.252,0.038-0.715,0.34-0.599-0.239c-0.192,0.167-0.127,0.591-0.359,0.718c-0.377-0.59-0.646,0.103-1.077-0.359
		c-0.112,0.088-0.182,0.218-0.24,0.359c-0.825-0.326-1.071,0.102-1.916,0c0.389,0.378-0.357,0.044-0.239,0.479
		c-0.175-0.104-0.379-0.179-0.359-0.479c-0.474,0.297-0.604,0.337-1.197,0.359c-2.774-0.588-4.545,0.711-7.183,0
		c-0.445,0.225-1.167,0.331-1.676,0.24c0.174-0.074-0.012-0.145,0,0c-0.123,0.117-0.242,0.236-0.359,0.359
		c-0.175-0.104-0.379-0.179-0.359-0.479c-0.157,0.168-0.634,0.431-0.718,0c-0.041,0.318-0.445,0.274-0.479,0.599
		c-0.21-0.029-0.273-0.206-0.239-0.479c-1.355,0.672-2.14,0.222-3.232,0.838c0-0.04,0-0.08,0-0.12c0.04,0,0.08,0,0.12,0
		c-0.023-0.136-0.12-0.066-0.12,0c-0.297,0.156-0.497-0.352-0.599,0c-0.312-0.018-0.863,0.336-1.078,0
		c-0.163,0.037-0.099,0.3-0.12,0.479c-0.175-0.104-0.379-0.18-0.359-0.479c-0.223,0.016-0.4,0.079-0.479,0.239
		c-0.278-0.217-0.616,0.097-0.599,0.24c-0.313-0.669-0.978,0.288-1.437-0.359c-0.267,0.685-0.466-0.022-0.598,0.718
		c-0.322,0.083-0.231-0.248-0.359-0.359c-0.315-0.036-0.094,0.464-0.479,0.359c0.238-0.276-0.03-0.133-0.12-0.359
		c-0.337,0.021-0.149,0.569-0.599,0.479c-0.066-0.91-1.833,0.309-2.514-0.239c-0.261-0.022-0.381,0.098-0.359,0.359
		c-0.43-0.231-0.439,0.046-0.838,0.12c-0.197-0.496-1.311-0.01-2.035,0c-0.022-0.136-0.12-0.067-0.12,0c-0.04,0-0.08,0-0.12,0
		c-0.023-0.136-0.12-0.067-0.12,0c-0.497,0.418-1.157-0.302-1.437,0.359c-0.074-0.166-0.461-0.018-0.479-0.239
		c0.174-0.074-0.012-0.145,0,0c-0.214-0.034-0.246,0.113-0.12,0.12c-0.142,0.218-0.625,0.094-0.838,0.239
		c0.02-0.139-0.026-0.213-0.12-0.239c-0.233,0.051,0.196,0.342-0.359,0.239c-0.023-0.136-0.12-0.066-0.12,0
		c-0.278-0.087-0.895-0.303-0.838,0.24c-0.45-0.252-1.062-0.03-1.317-0.24c-0.146,0.381-0.45-0.08-0.479,0.479
		c-0.112-0.088-0.181-0.218-0.239-0.359c-0.245,0.458-0.126,0.237-0.479,0c-0.074-0.174-0.145,0.012,0,0
		c-0.027,0.173-0.357,0.042-0.359,0.24c-0.046-0.139-0.582-0.139-0.24,0c-0.117,0.367-0.403-0.053-0.479-0.12
		c-0.231,0.048-0.095,0.464-0.479,0.359c0.034-0.193-0.113-0.206-0.12-0.359c-0.516,0.281-1.103-0.043-1.197,0.479
		c-0.266-0.052-0.649-0.275-0.718,0.12c-0.141-0.02-0.101-0.218-0.12-0.359c-0.415,0.586-1.649-0.238-1.916,0.599
		c-0.49,0.13-0.59-0.128-0.719-0.359c-0.221,0.018-0.073,0.406-0.239,0.479c-0.16,0-0.319,0-0.479,0
		c0.01-0.17,0.02-0.339-0.12-0.359c-0.336-0.018-0.345,0.293-0.359,0.599c-0.386-0.396-0.814-0.043-1.437-0.24c0-0.04,0-0.08,0-0.12
		c-0.136,0.023-0.066,0.12,0,0.12c-0.148,0.361-0.533,0.009-0.718,0.479c-0.246-0.033-0.239-0.32-0.359-0.479
		c-0.213,0.106-0.304,0.334-0.718,0.24c0.517,0.239-0.18,0.38-0.24,0c-0.271,0.469-0.777-0.04-1.077,0.359
		c-0.339-0.105-1.008-0.581-1.078,0.24c-0.249-0.067-0.254-0.187-0.12-0.359c-0.337,0.022-0.51,0.208-0.479,0.599
		c-0.422-0.121-0.219-0.207-0.359-0.479c-0.314-0.036-0.094,0.464-0.479,0.359c0.327-0.331-0.175-0.113-0.24-0.359
		c-0.17,0.229-0.37,0.428-0.599,0.599c0.039-0.262-0.703-0.667-0.718-0.12c-0.512-0.036-1.267,0.303-1.077-0.12
		c-0.739,0.551-2.5,0.59-2.874,0.479c-0.498,0.338-1.541,0.613-2.155,0.239c-0.14,0.019-0.101,0.218-0.12,0.358
		c-0.289,0.05-0.26-0.218-0.599-0.119c0-0.04,0-0.08,0-0.119c-0.136,0.022-0.066,0.119,0,0.119c-0.227,0.303-0.42-0.11-0.718,0.119
		c-0.074-0.174-0.145,0.013,0,0c-0.2,0.382-0.255-0.369-0.718-0.119c0.565,0.365-0.703,0.377-0.838,0.239
		c-0.259-0.021-0.054,0.425-0.12,0.599c-0.14-0.18-0.346-0.293-0.359-0.599c-0.223,0.017-0.4,0.079-0.479,0.239
		c-0.214-0.033-0.246,0.113-0.12,0.12c-0.102,0.178-0.386,0.173-0.599,0.239c0.063-0.096,0.125-0.194,0.12-0.359
		c-0.548,0.291-1.268,0.003-1.676,0.6c-0.051-0.285-0.805-0.389-0.838,0c-0.073-0.166-0.461-0.019-0.479-0.24
		c-0.21,0.276-0.448,0.438-0.838,0.24c-0.163,0.037-0.099,0.299-0.12,0.479c-0.189-0.201-0.55-0.347-0.599,0.119
		c-0.762-0.602-1.743,0.295-2.395-0.239c-0.151,0.208-0.404,0.313-0.359,0.719c-0.213-0.226-0.469-0.266-0.718,0
		c-0.249-0.067-0.254-0.187-0.12-0.359C9.455,36.393,9.417,36.754,9.264,37c-2.354,0-4.708,0-7.063,0c0-0.119,0-0.239,0-0.359
		C1.785,36.752,2.311,37.122,1.602,37c0.158-0.609,0.158-0.229,0-0.838c-0.68,0.43-0.928-0.473-1.078-0.958
		c-0.122,0.077-0.124,0.275-0.359,0.239c-0.365-1.709-0.911-1.842-1.077-3.831c0-0.04,0-0.08,0-0.12
		c0.537-0.491-0.01-1.35,0.718-1.676c0.141-0.66-0.207-0.832-0.24-1.317c0.657-0.341,0.983-1.013,0.958-2.035
		c0.78-0.195,0.921-0.541,1.676-0.719c-0.022,0.102,0.046,0.113,0.12,0.12c0.25-0.229,0.037-0.921,0.718-0.719
		c-0.371,0.818,1.824-0.93,2.155,0.12c0-0.4,0.779-0.02,0.718-0.479c0.178,0.102,0.257,0.301,0.24,0.599
		c0.496-0.628,0.887,0.096,1.437-0.479c0.044,0.52,1.38-0.047,1.317-0.239c0.597,0.107,1.3,0.073,2.395-0.239
		c0,0.12,0,0.239,0,0.359c0.322,0.083,0.231-0.248,0.359-0.359c0.183,0.353,1.047-0.31,0.718,0.239
		c0.103-0.496,1.104-0.093,1.078-0.718c0.211,0.108,0.371,0.268,0.479,0.479c0.285-0.556,1.484-0.307,1.676-0.599
		c0.247,0.033,0.113,0.446,0.359,0.479c0.413,0.014,0.306-0.492,0.718-0.479c0.079,0.358,0.256-0.115,0.479,0
		c0.208,0.244-0.089,0.234,0.12,0.479c0.148-0.122,0.637-0.741,0.599,0c0.426-0.146,0.709-0.704,1.077,0
		c0.222-0.018,0.074-0.405,0.24-0.479c0.172,0.134,0.292,0.129,0.359-0.12c0.162,0.118,0.239,0.319,0.359,0.479
		c0.394-0.005,0.286-0.512,0.718-0.479c0.146,0.173,0.457,0.182,0.599,0.359c0.376-0.103,0.74-0.218,0.958-0.479
		c0.074,0.174,0.145-0.012,0,0c0.12-0.369,0.324,0.133,0.359,0.24c0.112-0.088,0.181-0.218,0.239-0.359
		c0.205,0.268,0.64,0.137,0.958-0.12c0.459-0.022,0.043,0.098,0.12,0.359c0.414,0.021,0.768-0.767,1.078-0.12
		c0.389-0.14-0.004-0.313,0.359-0.479c0.186,0.134,0.25,0.389,0.599,0.359c0.178-0.052-0.047-0.153,0-0.359
		c0.224,0.175,0.793,0.005,0.958,0.24c0.199-0.2,0.313-0.485,0.718-0.479c0.015,0.561,0.174-0.13,0.479,0
		c0.002,0.238,0.327,0.152,0.24,0.479c0.171-0.148,0.227-0.412,0.239-0.718c0.549,0.104,1.305,0.461,1.916-0.12
		c0.276-0.036,0.133,0.346,0.359,0.359c0.136-0.025,0.066-0.117,0-0.12c0.954,0.035,1.918-0.422,2.993,0
		c0.32-0.487,1.049-0.113,1.557-0.359c-0.087,0.525,0.238-0.096,0.239,0.24c0.112-0.088,0.181-0.218,0.239-0.359
		c0.117,0.003,0.093,0.146,0.12,0.239c0.14-0.019,0.101-0.218,0.12-0.359c0.51,0.382,0.729-0.272,0.958,0.239
		c0.253-0.47,0.731,0.373,0.838-0.479c0.324,0.336,0.298,0.094,0.718,0c-0.144,0.157-0.047,0.188,0,0.359
		c0.14-0.179,0.497-0.141,0.479-0.479c0.175-0.002,0.379,0.505,0.359,0c0.147,0.052,0.246,0.153,0.239,0.359
		c0.402-0.179,0.478-0.228,0.599-0.479c0.413,0.225,0.306,0.225,0.718,0c-0.144,0.157-0.046,0.188,0,0.359
		c0.249-0.031,0.033-0.526,0.24-0.599c0.161,0.079,0.223,0.256,0.239,0.479c0.321-0.482,0.53,0.255,0.838-0.24
		c0.299,0.23,0.492-0.183,0.718,0.12c0.151-0.029,0.121-0.238,0-0.239c0.014-0.293,0.396-0.025,0.359,0.12
		c0.112-0.088,0.181-0.218,0.239-0.359c0.223,0.28,1.012,0.372,1.197-0.12c0.161,0.079,0.223,0.256,0.24,0.479
		c0.221-0.018,0.073-0.405,0.239-0.479c0.593,0.327,1.387-0.322,1.796,0.239c0.246-0.034,0.239-0.32,0.359-0.479
		c0.088,0.085,0.586,0.298,0.479-0.12c0.221,0.018,0.074,0.405,0.239,0.479c0.714-0.098,1.908-0.753,2.514,0
		c0.178-0.142,0.535-0.104,0.479-0.479c0.157,0.042,0.188,0.211,0.359,0.239c0.073,0.174,0.145-0.012,0,0
		c0.046-0.204,0.564-0.538,0.718-0.239c-0.174,0.074,0.012,0.145,0,0c0.139-0.101,0.321-0.158,0.599-0.12
		c-0.144,0.157-0.047,0.188,0,0.359c0.861-0.296,2.075-0.988,2.873-0.479c0.123-0.568,0.422,0.162,1.078-0.12
		c0.135-0.108-0.008-0.268,0.239-0.479c0.462,0.152,0.553-0.02,1.078,0.12c0.269-0.03-0.943,0.44-0.12,0.599
		c0.186-0.232,0.31-0.678,0.718-0.838c-0.134,0.377-0.011,0.271,0,0.719c0.138-0.352,0.362-0.473,0.479,0
		c0.222-0.018,0.074-0.406,0.24-0.479c0.413-0.094,0.526,0.112,0.599,0.359c0.198-0.121,0.13-0.508,0.239-0.718
		c0.161,0.079,0.223,0.256,0.239,0.479c0.313,0.034,0.515-0.044,0.479-0.359c0.065,0.316,0.715,0.183,0.838-0.12
		c0.308,0.012,0.171,0.467,0.479,0.479c0.246-0.402,0.248-0.084,0.599,0c0.163-0.037,0.099-0.3,0.12-0.479
		c0.479-0.08,0.481,0.317,0.479,0.718c0.178-0.101,0.173-0.385,0.239-0.599c0.832-0.238,1.657-0.033,2.395-0.599
		c0.646,0.527,1.348-0.196,1.916,0.359c-0.174,0.074,0.012,0.145,0,0c0.112-0.088,0.181-0.218,0.239-0.359
		c1.458,0.247,1.671-0.451,2.514-0.12c-0.174,0.074,0.012,0.145,0,0c0.308,0.032,0.891-0.335,0.599,0.12
		c0.255,0.056,0.228-0.171,0.24-0.359c0.276,0.04,0.606,0.123,0.359,0.359c0.388-0.377,0.709-0.082,0.958-0.598
		c0.443,0.036,0.431,0.527,1.077,0.359c-0.778-0.451,0.292,0.06,0.24-0.359c0.424,0.066,1.043,0.238,1.197-0.24
		c0.175,0.104,0.38,0.179,0.359,0.479c0.336-0.215,0.861-0.501,1.197-0.12c-0.094-0.168,0.482-0.431,0.239,0
		c0.446,0.126,0.387-0.252,0.599-0.359c0.255-0.056,0.228,0.171,0.24,0.359c0.708-0.283,0.812-0.726,1.556-0.12
		c0.147-0.052,0.246-0.153,0.239-0.359c0.103,0.072,0.309,0.716,0.359,0.12c0.147,0.052,0.246,0.153,0.239,0.359
		c0.305-0.015,0.464-0.174,0.479-0.479c0.21-0.069,0.703,0.145,0.718-0.12c0.147,0.052,0.246,0.153,0.239,0.359
		c0.578,0.017,0.853-0.747,0.838,0c0.376-0.102,1.104-0.37,0.958,0.12c0.08,0,0.16,0,0.24,0c-0.02-0.088,0.218-0.457,0.12-0.479
		c0.127-0.308,0.405,0.219,0.599,0.239c0.206-0.408,0.576,0.043,0.718-0.479c0.116,0.003,0.093,0.146,0.12,0.239
		c0.147-0.052,0.246-0.153,0.239-0.359c0.097,0.023,0.12,0.12,0.24,0.12c-0.059,0.233,0.594,0.431,0.479,0
		c0.289,0.039,0.636,0.63,0.958,0.239c0.466,0.215,0.419-0.683,0.718-0.239c-0.174,0.073,0.012,0.145,0,0
		c0.771,0.321,1.434-0.291,2.155,0c0,0.04,0,0.08,0,0.12c0.136-0.023,0.066-0.12,0-0.12c0.052-0.147,0.153-0.246,0.359-0.24
		c-0.019,0.298,0.188,0.371,0.239,0.599c0.656-0.465,1.405-0.589,2.754-0.479c0,0.04,0,0.08,0,0.12c-0.174,0.073,0.012,0.145,0,0
		c0.451-0.028,0.507-0.451,0.958-0.479c-0.034,0.193,0.113,0.206,0.12,0.359c0.896-0.462,1.957-0.019,2.514-0.718
		c0.133,0.386,0.912,0.126,1.078,0.479c0.183-0.001,0.394-0.327,0-0.239c0.292-0.399,0.627,0.161,0.718,0.359
		c0.36-0.346,0.91,0.14,0.958-0.599c0.255-0.056,0.228,0.171,0.24,0.359c0.14-0.034,0.497-0.527,0.479,0
		c0.053-0.426,0.692-0.267,0.958-0.479c0.499,0.307,0.602-0.093,0.958-0.239c-0.242,0.246,0.049,0.239,0.24,0.359
		c0.161-0.079,0.223-0.256,0.239-0.479c0.102,0.258,0.441,0.278,0.838,0.24c-0.237,0.247-0.237,0.113,0,0.359
		c0.262-0.018,0.257-0.301,0.24-0.599c0.04,0,0.08,0,0.12,0c0.197,0.237,0.775,0.321,0.838-0.12
		c0.208,0.478,0.508,0.123,0.838,0.479c0.18-0.104-0.033-0.179,0.12-0.479c0.123,0.117,0.242,0.237,0.359,0.359
		c-0.174,0.074,0.012,0.145,0,0c0.272,0.283,0.358-0.149,0.479-0.359c0.226,0.013,0.083,0.396,0.359,0.359
		c0.147-0.052,0.246-0.153,0.24-0.359c0.215-0.015,0.252,0.146,0.479,0.12c-0.567,0.488,0.551,0.044,0.599,0.479
		c0.221-0.018,0.073-0.405,0.239-0.479c0.187,0.343,0.236,0.073,0.718,0.12c-0.063-0.097-0.125-0.194-0.12-0.359
		c0.419,0.135,0.575,0.043,1.317,0.12c-0.027,0.172-0.357,0.042-0.359,0.24c-0.174,0.073,0.012,0.145,0,0
		c0.212-0.027,0.6,0.121,0.479-0.24c0.725,0.523,1.691-0.115,2.395-0.359c-0.023,0.097-0.12,0.119-0.12,0.239c-0.04,0-0.08,0-0.12,0
		c0.023,0.136,0.12,0.066,0.12,0c0.097,0.023,0.119,0.12,0.239,0.12c0.162-0.118,0.239-0.319,0.359-0.479
		c0.287,0.37,0.564,0.125,1.078,0.12c0.034,0.193-0.113,0.206-0.12,0.359c0.442,0.083,0.529-0.189,0.479-0.599
		c0.209,0.108,0.462,0.268,0.24,0.479c0.781,0.01,1.52-0.121,1.556,0.359c0.375-0.154,0.062-0.248,0.239-0.599
		c0.409-0.03,0.575-0.303,1.078-0.24c-0.038,0.278,0.019,0.46,0.119,0.599c0.097-0.103,0.328-0.071,0.359-0.239
		c0.368,0.141,0.603,0.123,0.958-0.12c0.397,0.198,0.677-0.117,1.197-0.12c0.144,0.158,0.047,0.188,0,0.359
		c0.315,0.036,0.393-0.166,0.359-0.479c1.019,0.014,1.472,0.397,2.035-0.12c0.302,0.186,0.726,0.041,0.957,0.359
		c-0.102-0.022-0.112,0.046-0.119,0.12c0.102,0.022,0.112-0.047,0.119-0.12c0.322,0.083,0.231-0.248,0.359-0.359
		c0.498,0.14,0.881,0.396,1.437,0.479c0.074,0.174,0.145-0.012,0,0c0.312-0.287,0.824-0.374,1.317-0.479
		c0.073,0.174,0.145-0.012,0,0c0.17-0.367,0.778,0.447,0.838-0.12c0.226,0.013,0.083,0.396,0.359,0.359
		c0.226-0.013,0.083-0.396,0.358-0.359c0.509,0.346,0.731,0.15,1.317,0.359c0.147-0.052,0.246-0.153,0.239-0.359
		c0.898,0.46,1.835-0.063,2.754,0.359c0.135-0.108-0.008-0.268,0.239-0.479c0.284,0.627,0.696-0.303,0.838,0.239
		c0.141-0.019,0.101-0.218,0.12-0.359c0.319,0,0.639,0,0.957,0c-0.144,0.157-0.046,0.188,0,0.359
		c0.178-0.546,0.791-0.269,0.958-0.599c0.251,0.109,0.365,0.354,0.359,0.718c0.477,0.275,0.732-0.531,0.718,0
		c0.153-0.333,0.603-0.284,0.359-0.718c0.535,0.008,0.152,0.274,0.359,0.479c0.17,0.01,0.339,0.02,0.359-0.12
		c0.139-0.02,0.213,0.026,0.239,0.12c0.26-0.367,0.279-0.28,0.719-0.359c0.073,0.174,0.145-0.013,0,0
		c0.157-0.203,0.759,0.158,1.077-0.12c0.08,0.463,0,0.426,0.119,0.718c0.172-0.147,0.228-0.412,0.24-0.718
		c0.288-0.049,0.26,0.219,0.599,0.12c0,0.04,0,0.08,0,0.12c0.136-0.023,0.066-0.12,0-0.12c-0.055-0.196,0.652-0.196,0.599,0
		c-0.175,0.073,0.012,0.145,0,0c0.102-0.022,0.112,0.046,0.119,0.12c0.112-0.088,0.182-0.218,0.239-0.359
		c0.112,0.088,0.182,0.218,0.24,0.359c0.146-0.052,0.245-0.153,0.239-0.359c0.193-0.034,0.206,0.113,0.359,0.12
		c0,0.04,0,0.08,0,0.12c0.136-0.023,0.066-0.12,0-0.12c0.016-0.362,0.533-0.141,0.718,0c-0.174,0.074,0.013,0.145,0,0
		c0.279,0,0.559,0,0.838,0c0.076-0.261-0.339-0.381,0.12-0.359c0.125,0.156,1.299,0.348,1.077-0.24
		c0.191,0.527,1.2,0.237,1.676,0.479c-0.153,0.991,0.737-0.126,0.958,0.599c0.377,0.058,0.271-0.368,0.719-0.239
		c-0.054-0.107-0.105-0.214-0.239-0.24c0.235-0.41,0.51-0.103,0.599,0.24c0.341-0.186,0.041-0.33,0.479-0.479
		c0.377-0.058,0.271,0.367,0.718,0.239c0.141-0.019,0.102-0.218,0.12-0.359c0.378-0.019,0.723-0.004,0.838,0.239
		c-0.174,0.074,0.013,0.145,0,0c0.116,0.003,0.093,0.146,0.12,0.24c0.454-0.163,0.803-0.076,1.556-0.12
		c-0.022,0.097-0.12,0.12-0.119,0.24c-0.174,0.073,0.012,0.145,0,0c0.635-0.051-0.077-0.709,0.718-0.599
		c-0.003,0.116-0.146,0.093-0.239,0.12c0.224,0.303,1.027-0.197,0.719,0.359c0.599-0.188,0.735-0.734,1.316-0.479
		c-0.174,0.074,0.013,0.145,0,0c0.284,0.07,0.558,0.183,0.599-0.24c0.353,0.093,0.554,0.591,0.838,0.12
		c0.112,0.087,0.182,0.217,0.24,0.359c1.018-0.32,0.863-0.249,1.915-0.479c-0.361,0.258-0.361,0.101,0,0.359
		c0.141-0.02,0.101-0.218,0.12-0.359c0.593,0.357,1.786,0.075,2.514-0.12c1,0.206,2.586-0.242,3.711,0.12
		c0.141-0.019,0.102-0.218,0.12-0.359c1.347,0.536,2.375,0.024,4.07,0.239c-0.022,0.097-0.12,0.12-0.119,0.24
		c0.446,0.262,0.866,0.031,0.838-0.24c0.306-0.005,0.146,0.089,0.119,0.24c1.396-0.714,3.136,0.34,4.07-0.24
		c0.219,0.227,0.818,0.343,0.839,0c0.291-0.107,0.615,0.534,0.599,0c0.451,0.01,1.086-0.442,0.957,0.12
		c0.312,0.072,0.431-0.048,0.359-0.359c0.564,0.351,0.814-0.202,1.557,0.12c0,0.04,0,0.08,0,0.12c0.136-0.023,0.066-0.12,0-0.12
		c0.53-0.16,1.151-0.118,1.676-0.239c0.144,0.157,0.047,0.188,0,0.359c0.45,0.091,0.405-0.313,0.599-0.479
		c0.362,0.003,0.69,0.507,0.719-0.12c0.238,0.121,0.419,0.299,0.599,0.479c0.136-0.023,0.066-0.12,0-0.12
		c0.117-0.162,0.403-0.155,0.479-0.359c0.326-0.087,0.241,0.238,0.479,0.24c-0.033,0.193,0.113,0.206,0.12,0.359
		c0.25,0.051,0.317-0.082,0.479-0.12c0.876,0.03,2.295,0.106,2.515-0.359c0.321-0.082,0.231,0.248,0.358,0.359
		c0.161-0.079,0.224-0.256,0.24-0.479c0.644,0.294,1.256-0.319,1.796,0.24c0.111-0.088,0.181-0.218,0.239-0.359
		c0.288-0.049,0.26,0.219,0.599,0.12c-0.09,0.226-0.357,0.083-0.12,0.359c0.536-0.172,0.998-0.334,1.437-0.24
		c-0.174,0.074,0.013,0.145,0,0c0.542-0.089-0.183,0.329,0.359,0.24c0.123-0.075-0.016-0.5,0.479-0.479
		c0.642,0.545,1.126,0.574,2.035,0c0.145,0.157,0.047,0.188,0,0.359c0.778,0.166,1.208-0.612,1.916-0.12
		c-0.174,0.074,0.012,0.145,0,0c0.175,0.172,0.379,0.092,0.359-0.239c0.614-0.092,0.863,0.094,1.316-0.239
		c-0.063,0.096-0.125,0.194-0.119,0.359c0.079,0,0.159,0,0.239,0c0.063-0.034,0.119-0.527,0.239,0
		c0.195,0.087,0.521-0.238,0.239-0.239c0.206-0.236,0.608,0.342,0.838,0.479c0.023,0.136,0.12,0.066,0.12,0
		c0.136-0.023,0.066-0.12,0-0.12c0.224-0.644,0.374-0.105,0.599-0.479c0.14,0.019,0.101,0.218,0.119,0.359
		c0.369,0.089,0.23-0.329,0.599-0.239c-0.089,0.542,0.329-0.183,0.24,0.359c0.522-0.438,1.104-0.048,1.316-0.359
		c0.147,0.052,0.246,0.153,0.239,0.359c1.414-0.413,2.432-0.239,4.07-0.479c0.137-0.023,0.066-0.12,0-0.12
		c0.223-0.159,0.831-0.13,1.197,0.12c0.141-0.02,0.102-0.218,0.12-0.359c0.102-0.022,0.113,0.047,0.119,0.12c0.08,0,0.16,0,0.24,0
		c-0.463,0.769,0.766-0.024,1.316,0c-0.037,0.163-0.3,0.1-0.479,0.12c0.102,0.178,0.301,0.258,0.599,0.24
		c0.178-0.052-0.048-0.153,0-0.359c0.537,0.005,0.838,0.25,0.838-0.12c0.474-0.021-0.038,0.184,0.239,0.359
		c0.531-0.31,0.296-0.018,0.958,0c-0.249-0.464,0.179-0.196,0.119-0.718c0.265,0.135,0.187,0.612,0.479,0.718
		c0.387-0.052,0.097-0.781,0.718-0.599c-0.27,0.412,0.476,0.151,0.599,0.12c0.023,0.136,0.12,0.066,0.12,0
		c0.318,0.236,1.515,0.404,2.035,0c-0.005,0.306,0.089,0.146,0.239,0.12c0.022,0.136,0.12,0.066,0.12,0
		c0.668,0.054,0.412-0.283,1.197-0.239c-0.579,0.375,0.279,0.015,0.239,0.479c0.091-0.082,0.38-0.504,0.359,0
		c0.324-0.154,0.739-0.218,0.838-0.598c0.58,0.277,0.661,0.079,1.557,0c0.103,0.096,0.07,0.328,0.239,0.359
		c0.073,0.174,0.145-0.012,0,0c0-0.08,0-0.16,0-0.239c0.671,0.038,1.173,0.031,1.437-0.24c0.458,0.158,0.912,0.342,1.197,0.12
		c0.23,0.05,0.432-0.083,0.239-0.12c0.027-0.172,0.357-0.042,0.359-0.239c0.259-0.02,0.054,0.425,0.119,0.599
		c0.213-0.063,0.937-0.29,0.599,0.12c0.74,0.262,0.513-0.875,0.719,0c0.106-0.093,0.271-0.129,0.479-0.12
		c-0.02-0.14-0.218-0.101-0.359-0.12c-0.038-0.317,0.671,0.112,0.479-0.359c0.122,0.117,0.242,0.237,0.358,0.359
		c0.232-0.675,1.972,0.059,2.754-0.479c-0.022,0.097-0.12,0.119-0.119,0.239c0.515-0.319,1-0.084,1.316-0.12
		c0.136-0.022,0.066-0.12,0-0.12c0.238-0.419,0.273,0.352,0.479,0.359c0.163-0.037,0.1-0.3,0.12-0.479
		c0.532,0.054,0.926,0.393,1.317-0.12c0.306-0.005,0.146,0.089,0.119,0.239c0.469,0.189,0.248-0.311,0.479-0.359
		c0.561,0.595,1.091,0.119,1.796,0.239c0.287,0.047-0.066-0.545,0.359-0.359c0,0.04,0,0.08,0,0.12c-0.04,0-0.08,0-0.119,0
		c0.022,0.136,0.12,0.066,0.119,0c0.368-0.089,0.23,0.328,0.599,0.239c0.188-0.042-0.104-0.211,0.12-0.239
		c0.387-0.148,0.091,0.387,0.479,0.239c-0.108-0.461,0.621,0.152,0.838-0.359c0.256-0.056,0.229,0.171,0.239,0.359
		c0.464-0.415,1.012-0.272,1.677-0.239c0.022,0.136,0.12,0.066,0.119,0c0.098,0.022,0.119,0.12,0.239,0.12
		c0.326-0.478,0.889-0.518,0.839-0.479c0.788-0.608,1.931,0.561,2.035-0.599c0.079,0,0.159,0,0.239,0
		c0.103,0.271,0.67,0.394,0.359,0.718c0.46-0.019,0.699-0.258,0.718-0.718c0.12,0,0.239,0,0.359,0
		c-0.142,0.286,0.477,0.448,0.599,0.599c0.554,0.681,0.824,1.98,1.437,2.514c-0.185,0.231-0.263,1.375,0.12,1.437
		c0.014-0.146,0.035-0.284,0.239-0.239C246.212,16.052,246.08,16.619,246.547,17.246z"/>
	<path fill-rule="evenodd" clip-rule="evenodd" fill="#FFFFFF" d="M246.547,18.683c0,11.692,0,23.385,0,35.078
		c-77.857,0-155.714,0-233.572,0c0-0.2,0-0.399,0-0.599c-0.26-0.021-0.054,0.424-0.12,0.599c-4.589,0-9.178,0-13.768,0
		c0-7.383,0-14.766,0-22.148c0.166,1.989,0.712,2.122,1.077,3.831c0.235,0.036,0.238-0.162,0.359-0.239
		c0.15,0.485,0.398,1.388,1.078,0.958c0.158,0.609,0.158,0.229,0,0.838c0.709,0.122,0.183-0.248,0.599-0.359c0,0.12,0,0.24,0,0.359
		c2.354,0,4.708,0,7.063,0c0.153-0.246,0.191-0.607,0.599-0.599c-0.134,0.173-0.129,0.292,0.12,0.359
		c0.249-0.266,0.505-0.226,0.718,0c-0.045-0.405,0.208-0.511,0.359-0.719c0.652,0.534,1.633-0.362,2.395,0.239
		c0.049-0.466,0.41-0.32,0.599-0.119c0.021-0.18-0.043-0.441,0.12-0.479c0.39,0.198,0.628,0.036,0.838-0.24
		c0.018,0.222,0.406,0.074,0.479,0.24c0,0.039,0,0.079,0,0.119c0.136-0.023,0.066-0.12,0-0.119c0.033-0.389,0.787-0.285,0.838,0
		c0.408-0.597,1.128-0.309,1.676-0.6c0.005,0.165-0.057,0.264-0.12,0.359c0.213-0.066,0.497-0.062,0.599-0.239
		c-0.126-0.007-0.094-0.153,0.12-0.12c0.074,0.174,0.145-0.012,0,0c0.079-0.16,0.256-0.223,0.479-0.239
		c0.013,0.306,0.219,0.419,0.359,0.599c0.065-0.174-0.14-0.619,0.12-0.599c0.136,0.138,1.404,0.126,0.838-0.239
		c0.463-0.25,0.518,0.501,0.718,0.119c0.298-0.229,0.492,0.184,0.718-0.119c0.338-0.099,0.31,0.169,0.599,0.119
		c0.019-0.141-0.021-0.34,0.12-0.358c0.614,0.374,1.657,0.099,2.155-0.239c0.374,0.111,2.134,0.072,2.874-0.479
		c-0.189,0.422,0.565,0.083,1.077,0.12c0.074,0.174,0.145-0.012,0,0c0.016-0.547,0.757-0.143,0.718,0.12
		c0.229-0.17,0.429-0.37,0.599-0.599c0.064,0.247,0.566,0.029,0.24,0.359c0.385,0.105,0.164-0.395,0.479-0.359
		c0.14,0.272-0.063,0.358,0.359,0.479c-0.031-0.391,0.142-0.576,0.479-0.599c-0.134,0.172-0.129,0.292,0.12,0.359
		c0.07-0.821,0.739-0.345,1.078-0.24c0.3-0.398,0.806,0.11,1.077-0.359c0.06,0.38,0.757,0.239,0.24,0
		c0.414,0.095,0.505-0.133,0.718-0.24c0.12,0.159,0.113,0.446,0.359,0.479c0.186-0.47,0.57-0.118,0.718-0.479
		c0.623,0.197,1.051-0.156,1.437,0.24c0.014-0.306,0.022-0.616,0.359-0.599c0.14,0.02,0.13,0.189,0.12,0.359c0.16,0,0.319,0,0.479,0
		c0.166-0.073,0.018-0.461,0.239-0.479c0.128,0.231,0.229,0.489,0.719,0.359c0.267-0.837,1.501-0.013,1.916-0.599
		c0.019,0.141-0.021,0.34,0.12,0.359c0.069-0.395,0.452-0.172,0.718-0.12c0.095-0.521,0.681-0.197,1.197-0.479
		c0.006,0.153,0.153,0.166,0.12,0.359c0.384,0.105,0.248-0.311,0.479-0.359c0.075,0.066,0.361,0.486,0.479,0.12
		c-0.342-0.139,0.193-0.139,0.24,0c0.074,0.174,0.145-0.012,0,0c0.001-0.198,0.332-0.067,0.359-0.24
		c0.353,0.237,0.234,0.458,0.479,0c0.058,0.142,0.127,0.271,0.239,0.359c0.029-0.559,0.333-0.098,0.479-0.479
		c0.255,0.209,0.867-0.012,1.317,0.24c-0.057-0.542,0.56-0.327,0.838-0.24c0.023,0.136,0.12,0.067,0.12,0
		c0.555,0.103,0.125-0.188,0.359-0.239c0.093,0.026,0.139,0.1,0.12,0.239c0.214-0.145,0.697-0.021,0.838-0.239
		c-0.126-0.006-0.094-0.153,0.12-0.12c0.018,0.221,0.405,0.073,0.479,0.239c0.28-0.661,0.94,0.059,1.437-0.359
		c0.022,0.136,0.12,0.066,0.12,0c0.04,0,0.08,0,0.12,0c0.023,0.136,0.12,0.066,0.12,0c0.725-0.01,1.838-0.496,2.035,0
		c0.399-0.074,0.409-0.352,0.838-0.12c-0.022-0.261,0.098-0.381,0.359-0.359c0.682,0.548,2.448-0.67,2.514,0.239
		c0.449,0.09,0.261-0.457,0.599-0.479c0.09,0.226,0.357,0.083,0.12,0.359c0.385,0.105,0.164-0.395,0.479-0.359
		c0.128,0.111,0.037,0.441,0.359,0.359c0.132-0.74,0.331-0.034,0.598-0.718c0.459,0.647,1.124-0.31,1.437,0.359
		c-0.017-0.143,0.32-0.457,0.599-0.24c0.003,0.117,0.146,0.093,0.239,0.12c-0.003-0.116-0.146-0.093-0.239-0.12
		c0.079-0.161,0.256-0.223,0.479-0.239c-0.02,0.299,0.184,0.375,0.359,0.479c0.021-0.179-0.043-0.442,0.12-0.479
		c0.214,0.336,0.766-0.018,1.078,0c0.074,0.174,0.145-0.012,0,0c0.102-0.352,0.301,0.156,0.599,0c0,0.04,0,0.08,0,0.12
		c1.093-0.616,1.877-0.166,3.232-0.838c-0.034,0.272,0.029,0.45,0.239,0.479c0.034-0.325,0.438-0.28,0.479-0.599
		c0.084,0.431,0.562,0.168,0.718,0c-0.021,0.3,0.184,0.375,0.359,0.479c0.117-0.123,0.237-0.242,0.359-0.359
		c0.509,0.091,1.231-0.015,1.676-0.24c2.638,0.711,4.409-0.588,7.183,0c-0.174,0.074,0.012,0.145,0,0
		c0.593-0.021,0.723-0.062,1.197-0.359c-0.02,0.299,0.184,0.375,0.359,0.479c-0.118-0.434,0.628-0.101,0.239-0.479
		c0.844,0.102,1.09-0.326,1.916,0c0.058-0.142,0.128-0.271,0.24-0.359c0.431,0.462,0.7-0.23,1.077,0.359
		c0.232-0.127,0.167-0.552,0.359-0.718c-0.116,0.58,0.347,0.277,0.599,0.239c0.027,0.093,0.003,0.236,0.12,0.239
		c0.023,0.136,0.12,0.067,0.12,0c0.526,0.047,0.815-0.143,0.958-0.479c0.154,0.205,0.394,0.325,0.718,0.359
		c-0.017-0.374,0.826,0.021,0.958-0.479c0.158,0.522,0.639,0.177,0.958,0.359c0.083-0.417,0.931,0,1.317-0.359
		c0.031,0.186,0.262,0.083,0.359,0c0.027,0.093,0.003,0.236,0.12,0.239c0.141-0.35,0.813-0.468,0.838-0.12
		c0.385,0.105,0.164-0.395,0.479-0.359c1.349,0.334,2.956,0.12,4.55-0.359c0,0.159,0,0.319,0,0.479
		c0.384,0.105,0.248-0.311,0.479-0.359c1.115,0.633,1.937-0.651,2.993,0.12c0.027-0.093,0.003-0.236,0.12-0.239
		c0.053,0.319,0.103,0.395,0.479,0.599c0.074,0.444,0.59,0.447,0.479,1.077c0.281-0.328,0.188-1.3-0.479-1.077
		c-0.034-0.35,0.029-0.412,0.239-0.24c0.019-0.141-0.021-0.34,0.12-0.359c0.503,0.149,1.028-0.124,1.197,0.239
		c0.287-0.494,1.414,0.151,1.796-0.599c0.211,0.332,0.087,0.339,0.239,0.599c0.067-0.347,0.187,0.184,0.359,0.12
		c-0.018-0.297,0.062-0.497,0.239-0.599c0.293,0.496,0.13-0.165,0.599-0.12c0.146,0.5,0.92-0.226,1.557,0.12c0,0.04,0,0.08,0,0.12
		c0.136-0.022,0.066-0.12,0-0.12c0.029-0.21,0.206-0.273,0.479-0.239c-0.026,0.15-0.186,0.245,0.12,0.239c0,0.04,0,0.08,0,0.12
		c0.136-0.022,0.067-0.12,0-0.12c0.032-0.168,0.263-0.136,0.359-0.239c0.118,0.162,0.319,0.239,0.479,0.359
		c-0.022-0.261,0.098-0.381,0.359-0.359c0.392,0.136-0.029,0.4,0.479,0.479c-0.036-0.315,0.166-0.393,0.479-0.359
		c0.029,0.15,0.238,0.121,0.239,0c0.208-0.009,0.373,0.027,0.479,0.12c0.436-0.277,0.518-0.409,0.958-0.12
		c0.129-0.429,0.569-0.548,0.958-0.718c0.293,0.271,0.042,0.526,0.239,0.718c0.146-0.492,0.462-0.068,0.718,0
		c0-0.12,0.097-0.143,0.12-0.239c0.555,0.103,0.125-0.188,0.359-0.24c0.188,0.012,0.415-0.016,0.359,0.24
		c0.369,0.089,0.146-0.413,0.599-0.24c-0.368,0.357,0.354,0.154,0.479,0.359c0.019-0.141-0.021-0.34,0.12-0.359
		c0.12,0,0.143,0.097,0.239,0.12c0.029,0.151,0.238,0.121,0.239,0c0.158,0.001,0.109,0.21,0.239,0.24
		c-0.018-0.325,0.188-0.494,0.599-0.24c0,0.04,0,0.08,0,0.12c0.709,0.122,0.467-0.586,1.197-0.12c0.074,0.174,0.145-0.012,0,0
		c0.18-0.14,0.293-0.346,0.599-0.359c0.688,0.219,1.924,0.422,2.754-0.24c0.233,0.551,0.968,0.319,1.316,0
		c0.017,0.223,0.079,0.4,0.239,0.479c0.166-0.073,0.019-0.461,0.24-0.479c1.215,0.49,2.918-0.159,3.95-0.12
		c-0.005,0.165,0.057,0.263,0.12,0.359c1.512-0.526,3.048-0.02,4.43-0.12c1.272-0.092,2.519-0.905,3.591-0.12
		c0.111-0.408,0.378-0.073,0.719-0.359c0.364,0.582,1.343-0.231,1.796,0.359c1.178-0.548,2.661-0.488,4.19-0.479
		c-0.187-0.295,0.406-0.352,0.358-0.12c-0.174,0.073,0.013,0.145,0,0c0.04,0,0.08,0,0.12,0c0.356,0.432,0.292-0.239,0.359-0.24
		c0.407-0.088,0.197,0.441,0.479,0.479c0.073-0.366,0.573-0.304,0.719-0.599c-0.083,0.322,0.247,0.231,0.358,0.359
		c0.004,0.116,0.147,0.093,0.24,0.12c-0.004-0.117-0.146-0.093-0.24-0.12c0.117-0.123,0.237-0.243,0.359-0.359
		c0.154,0.282,0.479,0.277,0.599,0c0.019,0.141-0.021,0.34,0.12,0.359c0.025-0.145,0.133-0.074,0.239,0
		c0.07-0.712,0.445,0.242,0.599-0.479c0.229,0.05,0.516,0.043,0.479,0.359c0.851-0.475,2.024-0.379,2.634-0.12
		c0.025-0.145,0.133-0.074,0.24,0c0.216-0.463,0.514,0.159,0.957-0.239c0.065,0.174-0.14,0.619,0.12,0.599
		c0.093-0.267,0.069-0.649,0.359-0.718c0.314-0.036,0.094,0.464,0.479,0.359c0.058-0.391,1.568-0.451,1.437,0
		c0.323-0.219,0.505-0.583,0.719,0c0.204-0.075,0.196-0.361,0.358-0.479c0.484-0.045,0.469,0.409,0.719,0.598
		c0.07-0.249,0.23-0.408,0.479-0.479c0.059,0.141,0.128,0.271,0.24,0.359c0.141-0.178,0.104-0.535,0.479-0.479
		c0.227,0.013,0.083,0.396,0.359,0.359c0.053-0.336,0.252-0.142,0.599-0.359c0.179,0.14,0.141,0.497,0.479,0.479
		c-0.08-0.667,0.316-0.114,0.719-0.239c0.019-0.141-0.021-0.34,0.119-0.359c0.081,0.133,0.398-0.023,0.479,0.359
		c-0.175,0.074,0.012,0.145,0,0c0.17-0.047,0.201-0.144,0.358,0c0.017-0.223,0.079-0.4,0.239-0.479
		c0.432,0.822,1.725,0.435,2.275,0.12c0.07,0.448,0.662,0.378,0.838,0.12c0.128,0.111,0.037,0.441,0.359,0.359
		c-0.083-0.398,0.247-0.193,0.358-0.12c0.074,0.174,0.146-0.012,0,0c0.424-0.403,0.32,0.157,0.599,0.12
		c0.362-0.405,1.48-0.326,1.916-0.12c0.508-0.547,1.159,0.392,1.676-0.359c-0.104,0.384,0.185,0.375,0.359,0.479
		c0.014-0.146,0.036-0.284,0.239-0.239c0.216,0.409,0.725,0.107,0.838-0.24c0.812,0.593,0.603-0.122,1.437,0.359
		c0.02-0.141-0.021-0.34,0.12-0.359c0.46,0.224,0.805,0.19,1.437-0.12c0.525,0.385,1.121-0.006,2.035,0
		c-0.134,0.172-0.129,0.292,0.12,0.359c0.193-0.166,0.379-0.339,0.599-0.479c0,0.08,0,0.16,0,0.239c-0.174,0.074,0.012,0.145,0,0
		c0.311,0.218,0.36-0.052,0.718,0.12c-0.033-0.273,0.029-0.45,0.239-0.479c0.052,0.188,0.377,0.102,0.24,0.479
		c0.714,0.002,0.464-0.313,1.077,0c0.241-0.531,1.114-0.085,1.676-0.479c0.179,0.435,0.538-0.004,0.838,0.359
		c0.969-0.434,2.207-0.244,3.353-0.12c0.019-0.141-0.021-0.34,0.12-0.359c0.226,0.013,0.083,0.396,0.358,0.359
		c0-0.12,0.098-0.143,0.12-0.239c2.035,0.526,4.192-0.576,5.147,0.12c-0.033-0.313,0.044-0.515,0.359-0.479
		c0.066,0.213,0.062,0.497,0.239,0.599c0.033-0.388,0.787-0.285,0.839,0c0.039-0.279,0.122-0.516,0.358-0.599
		c0.351,0.534,1.558,0.527,2.035-0.12c0.12,0.159,0.113,0.445,0.359,0.479c1.121-0.325,1.568,0.011,2.993,0
		c0.026-0.093,0.003-0.236,0.12-0.24c0.107,0.401,0.268,0.104,0.479,0c0.028,0.561,0.64,0.025,0.718-0.12
		c0.067,0.602,1.67-0.556,1.317,0.359c0.328-0.191,0.69-0.347,1.077-0.479c0.067,0.244,0.36,0.235,0.12,0.479
		c0.745-0.335,1.148,0.023,1.796-0.359c0.211,0.3,0.197,0.084,0.479,0.24c0.004,0.116,0.146,0.093,0.239,0.12
		c-0.003-0.117-0.146-0.093-0.239-0.12c0.181-0.335,0.517-0.214,0.719,0c0,0.04,0,0.08,0,0.12c0.351-0.008,0.353-0.366,0.599-0.479
		c0.087,0.127,0.36,0.014,0.599,0.239c-0.016-0.534,0.629,0.179,0.718-0.359c0.027,0.501,0.38-0.07,0.479,0.359
		c0.543-0.247,1.098-0.301,1.556-0.359c0,0.04,0,0.08,0,0.12c-0.174,0.074,0.013,0.145,0,0c0.103,0.022,0.113-0.047,0.12-0.12
		c0.211,0.188,0.765,0.034,0.838,0.359c0.122-0.277,0.241-0.557,0.599-0.599c0,0.24,0,0.479,0,0.719
		c0.405-0.779,1.748-0.14,2.274-0.599c0.017,0.223,0.079,0.4,0.239,0.479c0.21-0.617,1.241-0.425,1.796-0.239
		c0.023,0.136,0.12,0.066,0.12,0c0.386,0.026,0.507-0.212,0.958-0.12c0.073,0.174,0.145-0.012,0,0
		c0.12-0.476,0.721-0.115,1.077-0.12c0.026-0.093,0.003-0.236,0.12-0.24c0.028,0.171,0.196,0.202,0.239,0.359
		c-0.103-0.022-0.113,0.046-0.12,0.12c0.102,0.022,0.113-0.047,0.12-0.12c0.463,0.132,0.426-0.423,0.718-0.12
		c0.074,0.174,0.145-0.012,0,0c0.117-0.123,0.237-0.242,0.359-0.359c0.397,0.686,1.895-0.095,2.274,0.239
		c-0.174,0.074,0.013,0.145,0,0c0.265,0.42,0.156-0.007,0.479-0.12c0.38,0.305,1.019-0.27,1.197,0.359
		c0.12-0.159,0.113-0.446,0.358-0.479c0.345,0.014,0.208,0.511,0.599,0.479c0.028-0.699,1.151-0.151,1.437-0.12
		c-0.006-0.206,0.093-0.307,0.24-0.359c0.188,0.091,0.179,0.38,0.479,0.359c0.074-0.444,0.608-0.433,0.838-0.12
		c0.132-0.283,0.148-0.083,0.599-0.12c0,0.04,0,0.08,0,0.12c0.136-0.022,0.066-0.12,0-0.12c0.179-0.258,0.338,0.131,0.479-0.239
		c0.027,0.093,0.004,0.236,0.12,0.239c0.087-0.413,0.36-0.08,0.599,0c-0.007-0.206,0.092-0.307,0.239-0.359
		c0.059,0.141,0.128,0.271,0.239,0.359c0.025-0.134,0.133-0.186,0.24-0.239c-0.09,0.601,0.486-0.205,0.358,0.359
		c0.447,0.127,0.189-0.449,0.599-0.359c0.196,0.43,0.488,0.071,0.958,0.12c0.268,0.259,0.781-0.25,1.197-0.239
		c0.055,0.572,0.466,0.093,0.718,0.359c0.027-0.093,0.004-0.236,0.12-0.239c0.022,0.136,0.12,0.066,0.12,0
		c0.188-0.011,0.094-0.305,0.358-0.24c0.017,0.223,0.079,0.4,0.24,0.479c0.066-0.249,0.187-0.253,0.358-0.12
		c0.048-0.206-0.178-0.307,0-0.359c0.512,0.527,0.883-0.004,1.438,0.359c0.265-0.172-0.151-0.292,0.119-0.359
		c0.351,0.453,0.413-0.139,1.077,0c0.02,0.141-0.021,0.34,0.12,0.359c0.146-0.362,0.457,0.084,0.599,0.12
		c0.12-0.159,0.197-0.361,0.359-0.479c0.15,0.049,0.244,0.155,0.239,0.359c0.542-0.352,0.781,0,1.316-0.359
		c0.032,0.487,0.54-0.088,0.719,0.359c0.107-0.252,0.004-0.714,0.479-0.599c-0.235,0.429,1.339,0.345,1.677-0.12
		c-0.023,0.624,0.632,0.298,0.718,0.12c0.143,0.313,0.513,0.28,0.719,0c0.011,0.188-0.017,0.415,0.239,0.359
		c0.292-0.514,0.312-0.196,0.719,0c0.197-0.002,0.066-0.332,0.239-0.359c0.428,0.436,1.052-0.034,1.676,0.239
		c0.086-0.287,0.293-0.771,0.599-0.479c0,0.04,0,0.08,0,0.12c0.136-0.023,0.066-0.12,0-0.12c0.368-0.252,0.689-0.194,0.958,0
		c-0.098-0.499,0.162-0.999,0-1.197c0.356-0.159,0.607-0.123,0.838,0.12c0.235-0.323,0.071-1.046,0.119-1.556
		c0.278-0.134,0.321,0.025,0.599-0.24C246.447,18.982,246.385,18.72,246.547,18.683z M221.525,23.352
		C221.053,23.491,221.999,23.491,221.525,23.352L221.525,23.352z M220.568,23.112C220.489,23.191,220.618,23.062,220.568,23.112
		L220.568,23.112z M218.772,23.232C218.693,23.311,218.822,23.182,218.772,23.232L218.772,23.232z M217.096,23.112
		C216.623,23.251,217.569,23.251,217.096,23.112L217.096,23.112z M213.744,23.352C213.036,23.251,214.225,23.42,213.744,23.352
		L213.744,23.352z M212.067,39.514C211.989,39.592,212.118,39.464,212.067,39.514L212.067,39.514z M208.596,23.472
		C208.518,23.55,208.646,23.421,208.596,23.472L208.596,23.472z M199.736,42.746c-0.136,0.023-0.066,0.121,0,0.12
		c0,0.04,0,0.079,0,0.12c-0.174,0.073,0.013,0.145,0,0c0.08,0,0.16,0,0.24,0c0,0.039,0,0.079,0,0.119
		c-0.103-0.021-0.113,0.047-0.12,0.119c-0.102-0.021-0.113,0.047-0.12,0.121c-0.174,0.072,0.013,0.145,0,0
		c0.103,0.021,0.113-0.047,0.12-0.121c0.102,0.022,0.113-0.046,0.12-0.119c0.136-0.022,0.066-0.12,0-0.119
		c0.222-0.105,0.578-0.688,0.239-0.958C200.167,42.379,199.902,42.514,199.736,42.746z M199.378,42.866
		C198.881,42.752,199.354,43.225,199.378,42.866C199.552,42.793,199.365,42.722,199.378,42.866z M199.378,43.225
		c-0.16,0-0.319,0-0.479,0c-0.175-0.343-0.162-0.875-0.479-1.076c0,0.318,0,0.638,0,0.957
		C198.611,43.203,199.15,43.56,199.378,43.225C199.552,43.152,199.365,43.08,199.378,43.225z M199.378,43.465
		C198.904,43.604,199.851,43.604,199.378,43.465L199.378,43.465z M198.779,43.465C198.7,43.543,198.829,43.414,198.779,43.465
		L198.779,43.465z M159.271,24.789C158.563,24.688,159.752,24.857,159.271,24.789L159.271,24.789z M152.208,24.669
		C152.13,24.747,152.259,24.619,152.208,24.669L152.208,24.669z M151.609,24.908C151.137,25.047,152.083,25.047,151.609,24.908
		L151.609,24.908z M151.011,25.148C150.933,25.226,151.062,25.098,151.011,25.148L151.011,25.148z M147.061,24.908
		C146.588,25.047,147.533,25.047,147.061,24.908L147.061,24.908z M125.271,25.866C125.193,25.944,125.322,25.816,125.271,25.866
		L125.271,25.866z M125.271,26.105C125.193,26.184,125.322,26.055,125.271,26.105L125.271,26.105z M106.356,26.824
		C106.277,26.902,106.406,26.773,106.356,26.824L106.356,26.824z M105.877,26.943C105.799,27.022,105.927,26.894,105.877,26.943
		L105.877,26.943z M84.447,28.26C84.369,28.339,84.498,28.21,84.447,28.26L84.447,28.26z M66.849,29.577
		C66.771,29.656,66.899,29.527,66.849,29.577L66.849,29.577z M60.264,30.296C60.186,30.374,60.314,30.246,60.264,30.296
		L60.264,30.296z M58.349,41.908c-0.083-0.602,0.203-0.834,0.12-1.437C57.924,40.562,57.886,41.775,58.349,41.908z M57.511,30.535
		C57.432,30.613,57.561,30.485,57.511,30.535L57.511,30.535z M46.137,31.852C46.059,31.931,46.188,31.802,46.137,31.852
		L46.137,31.852z M42.666,31.972C42.192,32.11,43.139,32.11,42.666,31.972L42.666,31.972z M32.25,33.408
		C32.171,33.487,32.3,33.358,32.25,33.408L32.25,33.408z M17.644,35.324C17.566,35.402,17.694,35.273,17.644,35.324L17.644,35.324z
		 M16.926,35.443C16.453,35.582,17.399,35.582,16.926,35.443L16.926,35.443z M10.222,36.881
		C10.048,36.953,10.234,37.025,10.222,36.881C10.396,36.807,10.209,36.735,10.222,36.881z M6.51,37.239
		C6.432,37.318,6.561,37.189,6.51,37.239L6.51,37.239z M4.595,37.359c0.292,0.283,1.094,0.062,1.197-0.24
		C5.428,37.234,4.578,36.863,4.595,37.359z M1.243,36.401C1.165,36.479,1.293,36.352,1.243,36.401L1.243,36.401z M0.165,35.684
		C0.087,35.762,0.215,35.633,0.165,35.684L0.165,35.684z"/>
	<path fill-rule="evenodd" clip-rule="evenodd" d="M243.913,22.035c0.066,0,0.136,0.097,0,0.12
		C243.913,22.115,243.913,22.075,243.913,22.035z"/>
	<path fill-rule="evenodd" clip-rule="evenodd" fill="#FFFFFF" d="M243.554,11.141c-0.019,0.46-0.258,0.7-0.718,0.718
		c0.311-0.325-0.257-0.447-0.359-0.718C242.836,11.141,243.194,11.141,243.554,11.141z"/>
	<path fill-rule="evenodd" clip-rule="evenodd" fill="#FFFFFF" d="M242.237,11.141c-0.104,1.16-1.247-0.009-2.035,0.599
		c0.05-0.039-0.513,0.001-0.839,0.479c-0.12,0-0.142-0.097-0.239-0.12c-0.022-0.136-0.12-0.067-0.119,0
		c-0.665-0.033-1.213-0.176-1.677,0.239c-0.011-0.188,0.017-0.415-0.239-0.359c-0.217,0.512-0.946-0.102-0.838,0.359
		c-0.388,0.148-0.092-0.388-0.479-0.239c-0.225,0.028,0.067,0.197-0.12,0.239c-0.368,0.089-0.23-0.329-0.599-0.239
		c0-0.04,0-0.08,0-0.12c-0.426-0.186-0.072,0.407-0.359,0.359c-0.705-0.12-1.235,0.355-1.796-0.239
		c-0.23,0.048-0.01,0.548-0.479,0.359c0.026-0.15,0.187-0.245-0.119-0.239c0-0.04,0-0.08,0-0.12c-0.137,0.022-0.067,0.12,0,0.12
		c-0.392,0.512-0.785,0.174-1.317,0.12c-0.021,0.179,0.043,0.442-0.12,0.479c-0.205-0.008-0.24-0.779-0.479-0.359
		c-0.136,0.023-0.066,0.12,0,0.12c-0.316,0.035-0.802-0.199-1.316,0.12c-0.001-0.12,0.097-0.142,0.119-0.239
		c-0.782,0.538-2.521-0.196-2.754,0.479c-0.116-0.123-0.236-0.242-0.358-0.359c0.191,0.471-0.518,0.042-0.479,0.359
		c0.142,0.019,0.34-0.021,0.359,0.12c-0.208-0.009-0.372,0.027-0.479,0.12c-0.206-0.875,0.021,0.262-0.719,0
		c0.338-0.409-0.386-0.183-0.599-0.12c-0.065-0.174,0.14-0.619-0.119-0.599c-0.002,0.198-0.332,0.067-0.359,0.239
		c0.192,0.038-0.009,0.17-0.239,0.12c-0.074-0.174-0.145,0.012,0,0c-0.285,0.222-0.739,0.038-1.197-0.12
		c-0.264,0.271-0.766,0.278-1.437,0.24c0,0.08,0,0.16,0,0.239c-0.169-0.031-0.137-0.263-0.239-0.359
		c-0.896,0.079-0.977,0.277-1.557,0c-0.099,0.38-0.514,0.444-0.838,0.598c0.021-0.504-0.269-0.082-0.359,0
		c0.04-0.464-0.818-0.104-0.239-0.479c-0.785-0.043-0.529,0.293-1.197,0.239c-0.023-0.136-0.12-0.066-0.12,0
		c-0.15,0.026-0.244,0.187-0.239-0.12c-0.521,0.404-1.717,0.236-2.035,0c0.144-0.157,0.047-0.188,0-0.359
		c-0.141,0.02-0.101,0.218-0.12,0.359c-0.123,0.031-0.868,0.292-0.599-0.12c-0.621-0.182-0.331,0.547-0.718,0.599
		c-0.293-0.106-0.215-0.583-0.479-0.718c0.06,0.522-0.368,0.254-0.119,0.718c-0.662-0.018-0.427-0.31-0.958,0
		c-0.277-0.175,0.234-0.38-0.239-0.359c0,0.369-0.301,0.125-0.838,0.12c-0.048,0.206,0.178,0.307,0,0.359
		c-0.298,0.018-0.497-0.062-0.599-0.24c0.179-0.02,0.441,0.043,0.479-0.12c-0.551-0.024-1.779,0.769-1.316,0c-0.08,0-0.16,0-0.24,0
		c-0.006-0.073-0.018-0.142-0.119-0.12c-0.019,0.141,0.021,0.34-0.12,0.359c-0.366-0.25-0.975-0.279-1.197-0.12
		c-0.039,0-0.079,0-0.119,0c-0.02-0.14-0.219-0.101-0.359-0.12c0.02,0.141,0.219,0.101,0.359,0.12
		c-0.022,0.102,0.047,0.113,0.119,0.12c-1.639,0.24-2.656,0.066-4.07,0.479c0.007-0.206-0.092-0.307-0.239-0.359
		c-0.212,0.311-0.794-0.079-1.316,0.359c0.089-0.542-0.329,0.183-0.24-0.359c-0.368-0.089-0.229,0.329-0.599,0.239
		c-0.019-0.141,0.021-0.34-0.119-0.359c-0.225,0.373-0.375-0.165-0.599,0.479c-0.102-0.022-0.113,0.047-0.12,0.12
		c-0.229-0.137-0.632-0.715-0.838-0.479c0.281,0.001-0.044,0.327-0.239,0.239c-0.12-0.527-0.176-0.034-0.239,0
		c-0.08,0-0.16,0-0.239,0c-0.006-0.165,0.056-0.263,0.119-0.359c-0.453,0.333-0.702,0.147-1.316,0.239
		c0.02,0.331-0.185,0.411-0.359,0.239c-0.708-0.492-1.138,0.286-1.916,0.12c0.047-0.171,0.145-0.202,0-0.359
		c-0.909,0.574-1.394,0.545-2.035,0c-0.494-0.021-0.355,0.404-0.479,0.479c-0.542,0.089,0.183-0.329-0.359-0.24
		c-0.438-0.095-0.9,0.068-1.437,0.24c-0.237-0.276,0.03-0.133,0.12-0.359c-0.339,0.099-0.311-0.168-0.599-0.12
		c-0.059,0.142-0.128,0.271-0.239,0.359c-0.54-0.559-1.152,0.055-1.796-0.24c-0.017,0.223-0.079,0.4-0.24,0.479
		c-0.127-0.112-0.037-0.441-0.358-0.359c-0.22,0.466-1.639,0.39-2.515,0.359c0.174-0.074-0.012-0.145,0,0
		c-0.161,0.038-0.229,0.17-0.479,0.12c-0.007-0.153-0.153-0.166-0.12-0.359c0.174-0.074-0.012-0.145,0,0
		c-0.237-0.002-0.152-0.327-0.479-0.24c-0.075,0.204-0.361,0.197-0.479,0.359c0.066,0,0.136,0.097,0,0.12
		c-0.18-0.18-0.36-0.358-0.599-0.479c-0.028,0.626-0.356,0.123-0.719,0.12c-0.193,0.166-0.148,0.57-0.599,0.479
		c0.047-0.171,0.144-0.202,0-0.359c-0.524,0.121-1.146,0.079-1.676,0.239c-0.742-0.321-0.992,0.231-1.557-0.12
		c0.071,0.311-0.048,0.431-0.359,0.359c0.129-0.562-0.506-0.11-0.957-0.12c-0.004-0.116-0.146-0.093-0.24-0.12
		c0.004,0.116,0.146,0.093,0.24,0.12c0.017,0.534-0.308-0.107-0.599,0c-0.074-0.174-0.146,0.012,0,0
		c-0.021,0.343-0.62,0.227-0.839,0c-0.935,0.58-2.675-0.475-4.07,0.24c0.026-0.151,0.187-0.245-0.119-0.24
		c0.028,0.271-0.392,0.501-0.838,0.24c-0.001-0.12,0.097-0.143,0.119-0.24c-1.695-0.215-2.724,0.296-4.07-0.239
		c-0.019,0.141,0.021,0.34-0.12,0.359c-1.125-0.362-2.711,0.086-3.711-0.12c-0.728,0.195-1.921,0.477-2.514,0.12
		c-0.02,0.141,0.021,0.34-0.12,0.359c-0.361-0.258-0.361-0.101,0-0.359c-1.052,0.23-0.897,0.159-1.915,0.479
		c-0.059-0.142-0.128-0.271-0.24-0.359c-0.284,0.471-0.485-0.027-0.838-0.12c-0.041,0.423-0.314,0.31-0.599,0.24
		c-0.581-0.255-0.718,0.291-1.316,0.479c0.309-0.557-0.495-0.056-0.719-0.359c0.093-0.027,0.236-0.003,0.239-0.12
		c-0.795-0.11-0.083,0.547-0.718,0.599c-0.001-0.12,0.097-0.143,0.119-0.24c-0.753,0.044-1.102-0.042-1.556,0.12
		c-0.027-0.093-0.004-0.236-0.12-0.24c-0.115-0.244-0.46-0.258-0.838-0.239c-0.019,0.141,0.021,0.34-0.12,0.359
		c-0.447,0.128-0.341-0.297-0.718-0.239c0-0.04,0-0.08,0-0.12c-0.136,0.022-0.066,0.12,0,0.12c-0.438,0.149-0.138,0.293-0.479,0.479
		c-0.089-0.342-0.363-0.649-0.599-0.24c0.134,0.025,0.186,0.133,0.239,0.24c-0.447-0.128-0.342,0.297-0.719,0.239
		c-0.221-0.725-1.111,0.392-0.958-0.599c0.175-0.074-0.012-0.145,0,0c-0.476-0.242-1.484,0.048-1.676-0.479
		c0.222,0.587-0.952,0.396-1.077,0.24c0.497,0.114,0.024-0.359,0,0c-0.459-0.022-0.044,0.098-0.12,0.359c-0.279,0-0.559,0-0.838,0
		c-0.185-0.141-0.702-0.362-0.718,0c-0.153-0.006-0.166-0.153-0.359-0.12c0.006,0.206-0.093,0.307-0.239,0.359
		c-0.059-0.142-0.128-0.271-0.24-0.359c-0.058,0.142-0.127,0.271-0.239,0.359c-0.007-0.073-0.018-0.142-0.119-0.12
		c0.054-0.196-0.653-0.196-0.599,0c-0.339,0.099-0.311-0.169-0.599-0.12c-0.013,0.307-0.068,0.571-0.24,0.718
		c-0.119-0.292-0.039-0.255-0.119-0.718c-0.318,0.278-0.92-0.083-1.077,0.12c-0.439,0.079-0.459-0.008-0.719,0.359
		c-0.026-0.093-0.101-0.139-0.239-0.12c-0.004-0.117-0.146-0.093-0.239-0.12c0.003,0.116,0.146,0.093,0.239,0.12
		c-0.021,0.14-0.189,0.13-0.359,0.12c-0.207-0.205,0.176-0.471-0.359-0.479c0.243,0.435-0.206,0.385-0.359,0.718
		c0.015-0.531-0.241,0.275-0.718,0c0.006-0.365-0.108-0.609-0.359-0.718c-0.167,0.33-0.78,0.052-0.958,0.599
		c-0.046-0.171-0.144-0.202,0-0.359c-0.318,0-0.638,0-0.957,0c-0.02,0.141,0.021,0.34-0.12,0.359
		c-0.142-0.542-0.554,0.388-0.838-0.239c-0.247,0.211-0.104,0.371-0.239,0.479c-0.919-0.422-1.855,0.102-2.754-0.359
		c0.007,0.206-0.092,0.307-0.239,0.359c-0.586-0.209-0.809-0.013-1.317-0.359c-0.275-0.037-0.133,0.346-0.358,0.359
		c-0.276,0.037-0.134-0.346-0.359-0.359c-0.06,0.567-0.668-0.248-0.838,0.12c-0.493,0.105-1.006,0.192-1.317,0.479
		c-0.556-0.083-0.938-0.339-1.437-0.479c-0.128,0.112-0.037,0.442-0.359,0.359c-0.231-0.319-0.655-0.174-0.957-0.359
		c-0.563,0.517-1.017,0.133-2.035,0.12c0.033,0.313-0.044,0.515-0.359,0.479c0.047-0.171,0.144-0.202,0-0.359
		c-0.521,0.003-0.8,0.318-1.197,0.12c0-0.04,0-0.08,0-0.12c-0.136,0.023-0.066,0.12,0,0.12c-0.355,0.242-0.59,0.261-0.958,0.12
		c-0.073-0.174-0.145,0.012,0,0c-0.031,0.168-0.263,0.136-0.359,0.239c-0.101-0.139-0.157-0.321-0.119-0.599
		c-0.503-0.063-0.669,0.209-1.078,0.24c-0.178,0.351,0.136,0.444-0.239,0.599c-0.036-0.48-0.774-0.35-1.556-0.359
		c0.222-0.211-0.031-0.371-0.24-0.479c0.051,0.409-0.036,0.682-0.479,0.599c0.006-0.153,0.153-0.166,0.12-0.359
		c-0.514,0.005-0.791,0.25-1.078-0.12c-0.12,0.16-0.197,0.361-0.359,0.479c-0.12,0-0.143-0.097-0.239-0.12
		c0-0.12,0.097-0.143,0.12-0.239c-0.703,0.244-1.67,0.882-2.395,0.359c0.121,0.36-0.267,0.212-0.479,0.24
		c0.002-0.198,0.332-0.067,0.359-0.24c-0.742-0.077-0.897,0.015-1.317-0.12c-0.005,0.165,0.056,0.263,0.12,0.359
		c-0.482-0.047-0.532,0.223-0.718-0.12c-0.166,0.074-0.018,0.461-0.239,0.479c-0.048-0.435-1.166,0.009-0.599-0.479
		c-0.227,0.027-0.264-0.135-0.479-0.12c0.006,0.206-0.092,0.307-0.24,0.359c-0.276,0.037-0.133-0.346-0.359-0.359
		c-0.121,0.21-0.207,0.642-0.479,0.359c-0.117-0.123-0.236-0.242-0.359-0.359c-0.153,0.3,0.061,0.375-0.12,0.479
		c-0.33-0.356-0.63-0.001-0.838-0.479c-0.063,0.441-0.641,0.356-0.838,0.12c0.174-0.073-0.012-0.145,0,0c-0.04,0-0.08,0-0.12,0
		c0.018,0.297,0.022,0.581-0.24,0.599c-0.237-0.246-0.237-0.112,0-0.359c-0.397,0.038-0.736,0.018-0.838-0.24
		c-0.017,0.223-0.079,0.4-0.239,0.479c-0.191-0.12-0.482-0.113-0.24-0.359c-0.356,0.146-0.459,0.546-0.958,0.239
		c0-0.04,0-0.08,0-0.12c-0.136,0.023-0.066,0.12,0,0.12c-0.266,0.212-0.905,0.053-0.958,0.479c0.019-0.527-0.338-0.034-0.479,0
		c-0.012-0.188,0.016-0.415-0.24-0.359c-0.048,0.738-0.598,0.252-0.958,0.599c-0.091-0.198-0.426-0.758-0.718-0.359
		c0.394-0.087,0.183,0.238,0,0.239c-0.166-0.353-0.944-0.093-1.078-0.479c-0.558,0.7-1.618,0.256-2.514,0.718
		c-0.006-0.153-0.153-0.166-0.12-0.359c-0.451,0.028-0.507,0.451-0.958,0.479c0-0.04,0-0.08,0-0.12
		c-1.349-0.11-2.098,0.014-2.754,0.479c-0.051-0.228-0.258-0.301-0.239-0.599c-0.206-0.006-0.307,0.092-0.359,0.24
		c-0.721-0.291-1.383,0.321-2.155,0c-0.299-0.443-0.252,0.455-0.718,0.239c-0.02-0.141-0.218-0.101-0.359-0.12
		c0.02,0.14,0.218,0.101,0.359,0.12c-0.322,0.391-0.669-0.201-0.958-0.239c0.115,0.431-0.538,0.233-0.479,0
		c0.174-0.074-0.012-0.145,0,0c-0.12,0-0.143-0.097-0.24-0.12c0.006,0.206-0.092,0.307-0.239,0.359
		c-0.027-0.093-0.003-0.236-0.12-0.239c-0.142,0.521-0.513,0.07-0.718,0.479c-0.193-0.02-0.471-0.547-0.599-0.239
		c0.099,0.022-0.14,0.391-0.12,0.479c-0.08,0-0.16,0-0.24,0c0.147-0.49-0.581-0.222-0.958-0.12c0.015-0.747-0.26,0.017-0.838,0
		c0.007-0.206-0.092-0.307-0.239-0.359c-0.015,0.264-0.508,0.051-0.718,0.12c-0.015,0.305-0.174,0.464-0.479,0.479
		c0.006-0.206-0.092-0.307-0.239-0.359c-0.051,0.597-0.257-0.047-0.359-0.12c0.006,0.206-0.092,0.307-0.239,0.359
		c-0.745-0.606-0.849-0.164-1.556,0.12c-0.012-0.188,0.016-0.415-0.24-0.359c-0.212,0.107-0.152,0.486-0.599,0.359
		c0.243-0.431-0.333-0.168-0.239,0c-0.336-0.381-0.861-0.096-1.197,0.12c0.021-0.3-0.184-0.375-0.359-0.479
		c-0.154,0.478-0.773,0.306-1.197,0.24c0.052,0.418-1.018-0.092-0.24,0.359c-0.646,0.168-0.634-0.323-1.077-0.359
		c-0.249,0.516-0.57,0.221-0.958,0.598c0.247-0.236-0.083-0.319-0.359-0.359c-0.012,0.188,0.016,0.415-0.24,0.359
		c0.292-0.455-0.291-0.087-0.599-0.12c-0.843-0.332-1.057,0.367-2.514,0.12c-0.058,0.142-0.127,0.271-0.239,0.359
		c-0.568-0.556-1.27,0.167-1.916-0.359c-0.738,0.565-1.562,0.361-2.395,0.599c-0.066,0.213-0.062,0.498-0.239,0.599
		c0.002-0.401,0-0.798-0.479-0.718c-0.021,0.179,0.043,0.442-0.12,0.479c-0.351-0.084-0.353-0.402-0.599,0
		c-0.308-0.012-0.171-0.467-0.479-0.479c-0.123,0.302-0.773,0.436-0.838,0.12c0.036,0.315-0.166,0.393-0.479,0.359
		c-0.016-0.223-0.079-0.4-0.239-0.479c-0.109,0.21-0.041,0.598-0.239,0.718c-0.072-0.247-0.186-0.453-0.599-0.359
		c-0.166,0.073-0.018,0.461-0.24,0.479c-0.116-0.473-0.34-0.352-0.479,0c-0.011-0.447-0.134-0.341,0-0.719
		c-0.409,0.16-0.532,0.606-0.718,0.838c-0.823-0.159,0.388-0.628,0.12-0.599c-0.524-0.14-0.616,0.032-1.078-0.12
		c-0.247,0.211-0.104,0.371-0.239,0.479c-0.656,0.282-0.955-0.448-1.078,0.12c-0.798-0.51-2.012,0.182-2.873,0.479
		c-0.047-0.171-0.144-0.202,0-0.359c-0.278-0.039-0.46,0.019-0.599,0.12c-0.154-0.299-0.672,0.035-0.718,0.239
		c-0.171-0.028-0.202-0.197-0.359-0.239c0.056,0.375-0.301,0.337-0.479,0.479c-0.606-0.753-1.8-0.098-2.514,0
		c-0.166-0.074-0.018-0.461-0.239-0.479c0.107,0.418-0.391,0.205-0.479,0.12c-0.12,0.159-0.113,0.445-0.359,0.479
		c-0.409-0.562-1.203,0.088-1.796-0.239c-0.166,0.073-0.018,0.46-0.239,0.479c-0.017-0.223-0.079-0.4-0.24-0.479
		c-0.186,0.492-0.975,0.399-1.197,0.12c-0.058,0.141-0.127,0.271-0.239,0.359c0.037-0.145-0.346-0.413-0.359-0.12
		c0.121,0.001,0.151,0.21,0,0.239c-0.226-0.302-0.419,0.111-0.718-0.12c0-0.04,0-0.08,0-0.12c-0.136,0.023-0.066,0.12,0,0.12
		c-0.308,0.495-0.517-0.243-0.838,0.24c-0.017-0.223-0.079-0.4-0.239-0.479c-0.207,0.073,0.009,0.568-0.24,0.599
		c-0.046-0.171-0.144-0.202,0-0.359c-0.413,0.225-0.305,0.225-0.718,0c-0.121,0.251-0.197,0.3-0.599,0.479
		c0.006-0.206-0.092-0.307-0.239-0.359c0.02,0.505-0.184-0.002-0.359,0c0.019,0.338-0.338,0.3-0.479,0.479
		c-0.047-0.171-0.144-0.202,0-0.359c-0.42,0.094-0.394,0.336-0.718,0c-0.107,0.852-0.585,0.009-0.838,0.479
		c-0.228-0.511-0.447,0.143-0.958-0.239c-0.019,0.141,0.021,0.34-0.12,0.359c-0.027-0.093-0.003-0.236-0.12-0.239
		c-0.058,0.142-0.127,0.271-0.239,0.359c-0.001-0.336-0.327,0.285-0.239-0.24c0.174-0.074-0.012-0.145,0,0
		c-0.507,0.247-1.236-0.127-1.557,0.359c-1.075-0.422-2.039,0.035-2.993,0c0.066,0.002,0.136,0.095,0,0.12
		c-0.227-0.013-0.083-0.396-0.359-0.359c-0.61,0.581-1.367,0.225-1.916,0.12c-0.013,0.307-0.068,0.57-0.239,0.718
		c0.087-0.327-0.238-0.241-0.24-0.479c-0.304-0.13-0.464,0.561-0.479,0c-0.405-0.006-0.52,0.279-0.718,0.479
		c-0.165-0.235-0.734-0.065-0.958-0.24c-0.047,0.206,0.178,0.307,0,0.359c-0.349,0.03-0.413-0.226-0.599-0.359
		c-0.363,0.166,0.03,0.339-0.359,0.479c-0.31-0.647-0.664,0.141-1.078,0.12c-0.076-0.261,0.339-0.381-0.12-0.359
		c-0.318,0.257-0.753,0.388-0.958,0.12c-0.058,0.142-0.127,0.271-0.239,0.359c-0.036-0.106-0.24-0.608-0.359-0.24
		c-0.218,0.261-0.582,0.376-0.958,0.479c-0.142-0.178-0.452-0.187-0.599-0.359c0.174-0.073-0.012-0.145,0,0
		c-0.432-0.033-0.325,0.474-0.718,0.479c-0.12-0.16-0.197-0.361-0.359-0.479c-0.067,0.249-0.187,0.254-0.359,0.12
		c-0.166,0.073-0.018,0.46-0.24,0.479c-0.368-0.704-0.651-0.146-1.077,0c0.038-0.741-0.45-0.122-0.599,0
		c-0.209-0.244,0.089-0.234-0.12-0.479c-0.223-0.115-0.4,0.358-0.479,0c0.174-0.074-0.012-0.145,0,0
		c-0.413-0.014-0.306,0.492-0.718,0.479c-0.247-0.033-0.113-0.446-0.359-0.479c-0.191,0.292-1.391,0.042-1.676,0.599
		c-0.108-0.211-0.268-0.371-0.479-0.479c0.027,0.625-0.975,0.222-1.078,0.718c0.329-0.549-0.536,0.114-0.718-0.239
		c-0.128,0.111-0.037,0.441-0.359,0.359c0-0.12,0-0.239,0-0.359c-1.094,0.312-1.797,0.347-2.395,0.239
		c0.063,0.192-1.273,0.759-1.317,0.239c-0.549,0.575-0.941-0.149-1.437,0.479c0.018-0.297-0.062-0.497-0.24-0.599
		c0.061,0.459-0.719,0.079-0.718,0.479c-0.331-1.05-2.525,0.698-2.155-0.12c-0.682-0.202-0.468,0.49-0.718,0.719
		c-0.073-0.007-0.142-0.018-0.12-0.12c0.102,0.022,0.113-0.046,0.12-0.12c-0.102-0.022-0.113,0.047-0.12,0.12
		c-0.755,0.178-0.896,0.524-1.676,0.719c0.025,1.022-0.301,1.694-0.958,2.035c0.033,0.485,0.381,0.657,0.24,1.317
		c-0.729,0.326-0.182,1.185-0.718,1.676c0-6.784,0-13.568,0-20.352C80.138,11.141,161.188,11.141,242.237,11.141z M236.729,11.979
		C236.651,12.057,236.78,11.929,236.729,11.979L236.729,11.979z M234.216,11.979C234.138,12.057,234.266,11.929,234.216,11.979
		L234.216,11.979z M231.941,12.218C231.862,12.296,231.991,12.168,231.941,12.218L231.941,12.218z M227.99,12.577
		c0.212-0.027,0.6,0.121,0.479-0.239C228.246,12.354,228.069,12.417,227.99,12.577z M224.639,12.697
		C224.165,12.835,225.111,12.835,224.639,12.697L224.639,12.697z M220.209,12.577C220.13,12.656,220.259,12.527,220.209,12.577
		L220.209,12.577z M214.821,13.056C214.743,13.135,214.871,13.006,214.821,13.056L214.821,13.056z M208.716,13.535
		c-0.027-0.093-0.003-0.236-0.12-0.24C208.623,13.389,208.6,13.532,208.716,13.535z M208.236,12.937
		C208.158,13.015,208.287,12.886,208.236,12.937L208.236,12.937z M205.363,13.295C205.285,13.374,205.414,13.245,205.363,13.295
		L205.363,13.295z M204.765,13.415C204.687,13.494,204.815,13.365,204.765,13.415L204.765,13.415z M185.729,14.014
		C185.556,14.087,185.742,14.159,185.729,14.014C185.903,13.94,185.718,13.869,185.729,14.014z M172.681,14.253
		C172.602,14.332,172.73,14.203,172.681,14.253L172.681,14.253z M165.736,14.253C165.658,14.332,165.787,14.203,165.736,14.253
		L165.736,14.253z M162.863,14.253C162.785,14.332,162.913,14.203,162.863,14.253L162.863,14.253z M157.117,14.612
		C156.644,14.751,157.59,14.751,157.117,14.612L157.117,14.612z M154.483,14.612C154.404,14.691,154.533,14.562,154.483,14.612
		L154.483,14.612z M152.688,15.091c0.157,0.016,0.866,0.018,0.479-0.12C153.009,14.956,152.3,14.954,152.688,15.091z
		 M152.328,14.972C152.25,15.05,152.378,14.921,152.328,14.972L152.328,14.972z M145.504,14.732
		C145.33,14.806,145.517,14.877,145.504,14.732C145.878,15.123,145.705,14.309,145.504,14.732z M137.004,15.69
		C136.926,15.769,137.055,15.64,137.004,15.69L137.004,15.69z M129.94,15.69C129.862,15.769,129.991,15.64,129.94,15.69
		L129.94,15.69z M125.511,15.929C125.433,16.008,125.562,15.879,125.511,15.929L125.511,15.929z M120.004,15.929
		C119.926,16.008,120.054,15.879,120.004,15.929L120.004,15.929z M116.651,16.169C116.179,16.308,117.125,16.308,116.651,16.169
		L116.651,16.169z M115.694,16.289c0.226-0.053,0.722,0.163,0.599-0.24C116.079,16.115,115.796,16.11,115.694,16.289z
		 M115.215,15.69C115.137,15.769,115.266,15.64,115.215,15.69L115.215,15.69z M111.624,16.408
		C110.574,16.166,111.967,16.488,111.624,16.408L111.624,16.408z M109.109,16.528C109.031,16.606,109.16,16.478,109.109,16.528
		L109.109,16.528z M106.595,16.647C106.517,16.726,106.646,16.598,106.595,16.647L106.595,16.647z M100.13,16.887
		C100.052,16.966,100.181,16.837,100.13,16.887L100.13,16.887z M99.412,17.126C99.334,17.205,99.462,17.076,99.412,17.126
		L99.412,17.126z M91.99,17.725c-0.027-0.093-0.003-0.236-0.12-0.239C91.897,17.579,91.873,17.722,91.99,17.725z M83.25,18.084
		C83.172,18.163,83.3,18.034,83.25,18.084L83.25,18.084z M76.187,18.443C75.714,18.582,76.66,18.582,76.187,18.443L76.187,18.443z
		 M68.884,19.042C68.806,19.121,68.934,18.992,68.884,19.042L68.884,19.042z M60.145,19.521
		C60.066,19.6,60.195,19.471,60.145,19.521L60.145,19.521z M60.025,19.76C59.946,19.839,60.075,19.71,60.025,19.76L60.025,19.76z
		 M59.426,19.521c0.005,0.165-0.057,0.263-0.12,0.359c0.141,0.018,0.271,0.213,0.359,0C59.468,19.878,59.599,19.548,59.426,19.521z
		 M58.947,19.88C58.869,19.958,58.998,19.83,58.947,19.88L58.947,19.88z M58.468,19.641C58.39,19.719,58.519,19.59,58.468,19.641
		L58.468,19.641z M55.116,20C54.643,20.139,55.589,20.139,55.116,20L55.116,20z M5.672,24.789
		C5.594,24.867,5.723,24.738,5.672,24.789L5.672,24.789z M5.553,24.908c-0.027-0.093-0.003-0.236-0.12-0.239
		C5.459,24.762,5.436,24.905,5.553,24.908z M4.116,24.789C4.038,24.867,4.166,24.738,4.116,24.789L4.116,24.789z M-0.434,28.26
		C-0.512,28.339-0.383,28.21-0.434,28.26L-0.434,28.26z"/>
	<path fill-rule="evenodd" clip-rule="evenodd" d="M239.124,12.099c-0.04,0-0.079,0-0.119,0
		C239.004,12.032,239.102,11.962,239.124,12.099z"/>
	<path fill-rule="evenodd" clip-rule="evenodd" fill="#FFFFFF" d="M239.005,12.099c0.04,0,0.079,0,0.119,0
		C239.125,12.165,239.027,12.234,239.005,12.099z"/>
	<path fill-rule="evenodd" clip-rule="evenodd" d="M236.729,11.979C236.78,11.929,236.651,12.057,236.729,11.979L236.729,11.979z"/>
	<path fill-rule="evenodd" clip-rule="evenodd" fill="#FFFFFF" d="M235.054,12.099c0.001,0.066-0.097,0.136-0.119,0
		C234.974,12.099,235.014,12.099,235.054,12.099z"/>
	<path fill-rule="evenodd" clip-rule="evenodd" d="M234.216,11.979C234.266,11.929,234.138,12.057,234.216,11.979L234.216,11.979z"
		/>
	<path fill-rule="evenodd" clip-rule="evenodd" d="M232.301,12.218c-0.067,0-0.137-0.097,0-0.12
		C232.301,12.138,232.301,12.178,232.301,12.218z"/>
	<path fill-rule="evenodd" clip-rule="evenodd" d="M231.941,12.218C231.991,12.168,231.862,12.296,231.941,12.218L231.941,12.218z"
		/>
	<path fill-rule="evenodd" clip-rule="evenodd" fill="#FFFFFF" d="M230.385,12.458c0.066,0,0.136,0.097,0,0.12
		C230.385,12.537,230.385,12.498,230.385,12.458z"/>
	<path fill-rule="evenodd" clip-rule="evenodd" d="M230.385,12.458c0,0.04,0,0.08,0,0.12
		C230.318,12.578,230.249,12.48,230.385,12.458z"/>
	<path fill-rule="evenodd" clip-rule="evenodd" fill="#FFFFFF" d="M229.906,22.753c-0.04,0-0.08,0-0.12,0
		C229.786,22.687,229.883,22.618,229.906,22.753z"/>
	<path fill-rule="evenodd" clip-rule="evenodd" d="M229.786,22.753c0.04,0,0.08,0,0.12,0
		C229.906,22.82,229.809,22.889,229.786,22.753z"/>
	<path fill-rule="evenodd" clip-rule="evenodd" d="M228.47,12.338c0.12,0.36-0.268,0.212-0.479,0.239
		C228.069,12.417,228.246,12.354,228.47,12.338z"/>
	<path fill-rule="evenodd" clip-rule="evenodd" fill="#FFFFFF" d="M227.751,22.873C227.739,22.729,227.925,22.799,227.751,22.873
		L227.751,22.873z"/>
	<path fill-rule="evenodd" clip-rule="evenodd" fill="#FFFFFF" d="M225.356,22.634C225.345,22.489,225.53,22.56,225.356,22.634
		L225.356,22.634z"/>
	<path fill-rule="evenodd" clip-rule="evenodd" d="M224.639,12.697C225.111,12.835,224.165,12.835,224.639,12.697L224.639,12.697z"
		/>
	<path fill-rule="evenodd" clip-rule="evenodd" d="M223.92,22.993c0.066,0,0.136,0.097,0,0.12
		C223.92,23.073,223.92,23.033,223.92,22.993z"/>
	<path fill-rule="evenodd" clip-rule="evenodd" d="M223.441,12.817C223.297,12.829,223.367,12.643,223.441,12.817L223.441,12.817z"
		/>
	<path fill-rule="evenodd" clip-rule="evenodd" d="M221.525,23.352C221.999,23.491,221.053,23.491,221.525,23.352L221.525,23.352z"
		/>
	<path fill-rule="evenodd" clip-rule="evenodd" fill="#FFFFFF" d="M220.808,13.176C220.952,13.164,220.881,13.35,220.808,13.176
		L220.808,13.176z"/>
	<path fill-rule="evenodd" clip-rule="evenodd" d="M220.568,23.112C220.618,23.062,220.489,23.191,220.568,23.112L220.568,23.112z"
		/>
	<path fill-rule="evenodd" clip-rule="evenodd" d="M220.209,12.577C220.259,12.527,220.13,12.656,220.209,12.577L220.209,12.577z"/>
	<path fill-rule="evenodd" clip-rule="evenodd" d="M218.772,23.232C218.822,23.182,218.693,23.311,218.772,23.232L218.772,23.232z"
		/>
	<path fill-rule="evenodd" clip-rule="evenodd" d="M217.694,23.112C217.707,23.257,217.521,23.186,217.694,23.112L217.694,23.112z"
		/>
	<path fill-rule="evenodd" clip-rule="evenodd" d="M217.096,23.112C217.569,23.251,216.623,23.251,217.096,23.112L217.096,23.112z"
		/>
	<path fill-rule="evenodd" clip-rule="evenodd" d="M216.378,13.176c-0.04,0-0.08,0-0.12,0
		C216.258,13.109,216.354,13.04,216.378,13.176z"/>
	<path fill-rule="evenodd" clip-rule="evenodd" fill="#FFFFFF" d="M216.258,13.176c0.04,0,0.08,0,0.12,0
		C216.378,13.242,216.28,13.312,216.258,13.176z"/>
	<path fill-rule="evenodd" clip-rule="evenodd" d="M215.061,23.232C215.205,23.22,215.135,23.406,215.061,23.232L215.061,23.232z"/>
	<path fill-rule="evenodd" clip-rule="evenodd" d="M214.821,13.056C214.871,13.006,214.743,13.135,214.821,13.056L214.821,13.056z"
		/>
	<path fill-rule="evenodd" clip-rule="evenodd" d="M214.343,23.352c-0.007,0.073-0.019,0.142-0.12,0.12
		C214.229,23.398,214.24,23.33,214.343,23.352z"/>
	<path fill-rule="evenodd" clip-rule="evenodd" fill="#FFFFFF" d="M214.104,22.993C214.091,22.848,214.277,22.919,214.104,22.993
		L214.104,22.993z"/>
	<path fill-rule="evenodd" clip-rule="evenodd" d="M213.983,13.056c-0.04,0-0.08,0-0.12,0c0.02-0.141-0.021-0.34,0.12-0.359
		C214.03,12.868,214.127,12.899,213.983,13.056z"/>
	<path fill-rule="evenodd" clip-rule="evenodd" fill="#FFFFFF" d="M213.863,13.056c0.04,0,0.08,0,0.12,0
		C213.983,13.123,213.887,13.192,213.863,13.056z"/>
	<path fill-rule="evenodd" clip-rule="evenodd" d="M213.744,23.352C214.225,23.42,213.036,23.251,213.744,23.352L213.744,23.352z"/>
	<path fill-rule="evenodd" clip-rule="evenodd" d="M212.906,23.352C213.051,23.34,212.979,23.526,212.906,23.352L212.906,23.352z"/>
	<path fill-rule="evenodd" clip-rule="evenodd" d="M212.067,39.514C212.118,39.464,211.989,39.592,212.067,39.514L212.067,39.514z"
		/>
	<path fill-rule="evenodd" clip-rule="evenodd" fill="#FFFFFF" d="M211.948,23.472c-0.04,0-0.08,0-0.12,0
		C211.828,23.405,211.926,23.336,211.948,23.472z"/>
	<path fill-rule="evenodd" clip-rule="evenodd" d="M211.828,23.472c0.04,0,0.08,0,0.12,0
		C211.948,23.538,211.852,23.607,211.828,23.472z"/>
	<path fill-rule="evenodd" clip-rule="evenodd" d="M208.596,13.295c0.117,0.003,0.093,0.146,0.12,0.24
		C208.6,13.532,208.623,13.389,208.596,13.295z"/>
	<path fill-rule="evenodd" clip-rule="evenodd" d="M208.596,23.472C208.646,23.421,208.518,23.55,208.596,23.472L208.596,23.472z"/>
	<path fill-rule="evenodd" clip-rule="evenodd" d="M208.236,12.937C208.287,12.886,208.158,13.015,208.236,12.937L208.236,12.937z"
		/>
	<path fill-rule="evenodd" clip-rule="evenodd" fill="#FFFFFF" d="M206.8,13.415c0.066,0,0.137,0.097,0,0.12
		C206.8,13.495,206.8,13.455,206.8,13.415z"/>
	<path fill-rule="evenodd" clip-rule="evenodd" d="M206.681,13.415c0.04,0,0.08,0,0.119,0c0,0.04,0,0.08,0,0.12
		C206.728,13.528,206.658,13.517,206.681,13.415z"/>
	<path fill-rule="evenodd" clip-rule="evenodd" d="M206.681,13.415c-0.141-0.019-0.34,0.021-0.359-0.12
		C206.462,13.314,206.661,13.275,206.681,13.415z"/>
	<path fill-rule="evenodd" clip-rule="evenodd" fill="#FFFFFF" d="M206.082,23.352c-0.04,0-0.08,0-0.12,0
		C205.962,23.286,206.06,23.216,206.082,23.352z"/>
	<path fill-rule="evenodd" clip-rule="evenodd" d="M205.962,23.352c0.04,0,0.08,0,0.12,0c-0.007,0.073-0.018,0.142-0.12,0.12
		C205.962,23.432,205.962,23.392,205.962,23.352z"/>
	<path fill-rule="evenodd" clip-rule="evenodd" d="M205.962,23.472C205.975,23.616,205.788,23.545,205.962,23.472L205.962,23.472z"
		/>
	<path fill-rule="evenodd" clip-rule="evenodd" d="M205.363,13.295C205.414,13.245,205.285,13.374,205.363,13.295L205.363,13.295z"
		/>
	<path fill-rule="evenodd" clip-rule="evenodd" d="M204.765,13.415C204.815,13.365,204.687,13.494,204.765,13.415L204.765,13.415z"
		/>
	<path fill-rule="evenodd" clip-rule="evenodd" fill="#FFFFFF" d="M202.012,23.831c-0.001-0.067,0.097-0.136,0.119,0
		C202.091,23.831,202.052,23.831,202.012,23.831z"/>
	<path fill-rule="evenodd" clip-rule="evenodd" d="M201.293,23.831c0.093,0.026,0.236,0.003,0.239,0.12
		C201.439,23.924,201.297,23.947,201.293,23.831z"/>
	<path fill-rule="evenodd" clip-rule="evenodd" d="M199.977,42.986c-0.08,0-0.16,0-0.24,0c0-0.041,0-0.08,0-0.12
		c0.137-0.022,0.066-0.12,0-0.12c0.166-0.232,0.431-0.367,0.479-0.718C200.555,42.299,200.198,42.881,199.977,42.986z"/>
	<path fill-rule="evenodd" clip-rule="evenodd" d="M199.977,42.986c0.066-0.001,0.136,0.097,0,0.119
		C199.977,43.065,199.977,43.025,199.977,42.986z"/>
	<path fill-rule="evenodd" clip-rule="evenodd" d="M199.977,43.105c-0.007,0.073-0.019,0.142-0.12,0.119
		C199.863,43.152,199.874,43.084,199.977,43.105z"/>
	<path fill-rule="evenodd" clip-rule="evenodd" fill="#FFFFFF" d="M199.736,42.746c0.066,0,0.137,0.098,0,0.12
		C199.736,42.826,199.736,42.786,199.736,42.746z"/>
	<path fill-rule="evenodd" clip-rule="evenodd" d="M199.856,43.225c-0.007,0.074-0.018,0.143-0.12,0.121
		C199.743,43.271,199.755,43.203,199.856,43.225z"/>
	<path fill-rule="evenodd" clip-rule="evenodd" fill="#FFFFFF" d="M199.617,14.014c0.066,0,0.136,0.097,0,0.12
		C199.617,14.094,199.617,14.054,199.617,14.014z"/>
	<path fill-rule="evenodd" clip-rule="evenodd" d="M199.736,42.746c0,0.04,0,0.08,0,0.12
		C199.67,42.867,199.601,42.77,199.736,42.746z"/>
	<path fill-rule="evenodd" clip-rule="evenodd" d="M199.736,42.986C199.749,43.131,199.562,43.06,199.736,42.986L199.736,42.986z"/>
	<path fill-rule="evenodd" clip-rule="evenodd" d="M199.736,43.346C199.749,43.49,199.562,43.418,199.736,43.346L199.736,43.346z"/>
	<path fill-rule="evenodd" clip-rule="evenodd" d="M199.617,14.014c0,0.04,0,0.08,0,0.12c-0.04,0-0.08,0-0.12,0
		C199.504,14.061,199.516,13.992,199.617,14.014z"/>
	<path fill-rule="evenodd" clip-rule="evenodd" fill="#FFFFFF" d="M199.497,14.134c0.04,0,0.08,0,0.12,0
		C199.617,14.2,199.521,14.27,199.497,14.134z"/>
	<path fill-rule="evenodd" clip-rule="evenodd" d="M199.378,42.866C199.365,42.722,199.552,42.793,199.378,42.866L199.378,42.866z"
		/>
	<path fill-rule="evenodd" clip-rule="evenodd" d="M199.378,43.225C199.365,43.08,199.552,43.152,199.378,43.225L199.378,43.225z"/>
	<path fill-rule="evenodd" clip-rule="evenodd" d="M199.378,43.465C199.851,43.604,198.904,43.604,199.378,43.465L199.378,43.465z"
		/>
	<path fill-rule="evenodd" clip-rule="evenodd" d="M199.378,42.866C199.354,43.225,198.881,42.752,199.378,42.866L199.378,42.866z"
		/>
	<path fill-rule="evenodd" clip-rule="evenodd" d="M199.378,43.225c-0.228,0.335-0.767-0.021-0.958-0.119c0-0.319,0-0.639,0-0.957
		c0.316,0.201,0.304,0.733,0.479,1.076C199.059,43.225,199.218,43.225,199.378,43.225z"/>
	<path fill-rule="evenodd" clip-rule="evenodd" d="M198.779,43.465C198.829,43.414,198.7,43.543,198.779,43.465L198.779,43.465z"/>
	<path fill-rule="evenodd" clip-rule="evenodd" fill="#FFFFFF" d="M196.385,14.014C196.396,14.159,196.211,14.087,196.385,14.014
		L196.385,14.014z"/>
	<path fill-rule="evenodd" clip-rule="evenodd" fill="#FFFFFF" d="M195.308,23.711C195.295,23.566,195.481,23.638,195.308,23.711
		L195.308,23.711z"/>
	<path fill-rule="evenodd" clip-rule="evenodd" fill="#FFFFFF" d="M191.596,14.014C191.608,14.159,191.422,14.087,191.596,14.014
		L191.596,14.014z"/>
	<path fill-rule="evenodd" clip-rule="evenodd" d="M185.729,14.014C185.718,13.869,185.903,13.94,185.729,14.014L185.729,14.014z"/>
	<path fill-rule="evenodd" clip-rule="evenodd" d="M185.729,14.014C185.742,14.159,185.556,14.087,185.729,14.014L185.729,14.014z"
		/>
	<path fill-rule="evenodd" clip-rule="evenodd" d="M184.532,14.373C184.521,14.229,184.706,14.299,184.532,14.373L184.532,14.373z"
		/>
	<path fill-rule="evenodd" clip-rule="evenodd" d="M183.934,14.134C183.922,13.989,184.107,14.06,183.934,14.134L183.934,14.134z"/>
	<path fill-rule="evenodd" clip-rule="evenodd" fill="#FFFFFF" d="M182.856,23.951C182.712,23.963,182.783,23.776,182.856,23.951
		L182.856,23.951z"/>
	<path fill-rule="evenodd" clip-rule="evenodd" fill="#FFFFFF" d="M179.385,14.373c0.066,0,0.136,0.097,0,0.12
		C179.385,14.453,179.385,14.413,179.385,14.373z"/>
	<path fill-rule="evenodd" clip-rule="evenodd" d="M176.512,14.493c-0.094-0.027-0.236-0.003-0.24-0.12
		C176.365,14.4,176.508,14.376,176.512,14.493z"/>
	<path fill-rule="evenodd" clip-rule="evenodd" d="M175.913,14.493C175.768,14.505,175.839,14.319,175.913,14.493L175.913,14.493z"
		/>
	<path fill-rule="evenodd" clip-rule="evenodd" d="M174.117,24.31C174.129,24.455,173.943,24.383,174.117,24.31L174.117,24.31z"/>
	<path fill-rule="evenodd" clip-rule="evenodd" d="M172.681,14.253C172.73,14.203,172.602,14.332,172.681,14.253L172.681,14.253z"/>
	<path fill-rule="evenodd" clip-rule="evenodd" fill="#FFFFFF" d="M167.532,24.549C167.521,24.404,167.706,24.476,167.532,24.549
		L167.532,24.549z"/>
	<path fill-rule="evenodd" clip-rule="evenodd" d="M165.736,14.253C165.787,14.203,165.658,14.332,165.736,14.253L165.736,14.253z"
		/>
	<path fill-rule="evenodd" clip-rule="evenodd" d="M162.863,14.253C162.913,14.203,162.785,14.332,162.863,14.253L162.863,14.253z"
		/>
	<path fill-rule="evenodd" clip-rule="evenodd" d="M162.743,24.669C162.889,24.657,162.817,24.843,162.743,24.669L162.743,24.669z"
		/>
	<path fill-rule="evenodd" clip-rule="evenodd" d="M159.271,24.789C159.752,24.857,158.563,24.688,159.271,24.789L159.271,24.789z"
		/>
	<path fill-rule="evenodd" clip-rule="evenodd" d="M158.314,24.669C158.326,24.813,158.14,24.743,158.314,24.669L158.314,24.669z"/>
	<path fill-rule="evenodd" clip-rule="evenodd" d="M157.117,14.612C157.59,14.751,156.644,14.751,157.117,14.612L157.117,14.612z"/>
	<path fill-rule="evenodd" clip-rule="evenodd" fill="#FFFFFF" d="M156.039,14.852C156.052,14.997,155.865,14.926,156.039,14.852
		L156.039,14.852z"/>
	<path fill-rule="evenodd" clip-rule="evenodd" d="M154.483,14.612C154.533,14.562,154.404,14.691,154.483,14.612L154.483,14.612z"
		/>
	<path fill-rule="evenodd" clip-rule="evenodd" fill="#FFFFFF" d="M153.525,15.451C153.537,15.595,153.352,15.524,153.525,15.451
		L153.525,15.451z"/>
	<path fill-rule="evenodd" clip-rule="evenodd" d="M153.166,14.972c0.388,0.138-0.321,0.135-0.479,0.12
		C152.3,14.954,153.009,14.956,153.166,14.972z"/>
	<path fill-rule="evenodd" clip-rule="evenodd" d="M152.328,14.972C152.378,14.921,152.25,15.05,152.328,14.972L152.328,14.972z"/>
	<path fill-rule="evenodd" clip-rule="evenodd" d="M152.208,24.669C152.259,24.619,152.13,24.747,152.208,24.669L152.208,24.669z"/>
	<path fill-rule="evenodd" clip-rule="evenodd" fill="#FFFFFF" d="M151.969,15.091C151.981,15.236,151.795,15.165,151.969,15.091
		L151.969,15.091z"/>
	<path fill-rule="evenodd" clip-rule="evenodd" d="M151.609,24.908C152.083,25.047,151.137,25.047,151.609,24.908L151.609,24.908z"
		/>
	<path fill-rule="evenodd" clip-rule="evenodd" d="M151.011,25.148C151.062,25.098,150.933,25.226,151.011,25.148L151.011,25.148z"
		/>
	<path fill-rule="evenodd" clip-rule="evenodd" d="M150.293,14.972c-0.066,0-0.136-0.097,0-0.12
		C150.293,14.892,150.293,14.932,150.293,14.972z"/>
	<path fill-rule="evenodd" clip-rule="evenodd" d="M147.778,15.091C147.767,14.947,147.953,15.018,147.778,15.091L147.778,15.091z"
		/>
	<path fill-rule="evenodd" clip-rule="evenodd" d="M147.061,24.908C147.533,25.047,146.588,25.047,147.061,24.908L147.061,24.908z"
		/>
	<path fill-rule="evenodd" clip-rule="evenodd" d="M145.504,14.732C145.705,14.309,145.878,15.123,145.504,14.732L145.504,14.732z"
		/>
	<path fill-rule="evenodd" clip-rule="evenodd" d="M145.504,14.732C145.517,14.877,145.33,14.806,145.504,14.732L145.504,14.732z"/>
	<path fill-rule="evenodd" clip-rule="evenodd" d="M145.025,14.852C145.05,14.493,145.522,14.966,145.025,14.852L145.025,14.852z"/>
	<path fill-rule="evenodd" clip-rule="evenodd" d="M143.947,25.148c0.094,0.027,0.236,0.003,0.24,0.12
		C144.095,25.241,143.951,25.264,143.947,25.148z"/>
	<path fill-rule="evenodd" clip-rule="evenodd" fill="#FFFFFF" d="M144.067,15.211C144.08,15.355,143.894,15.285,144.067,15.211
		L144.067,15.211z"/>
	<path fill-rule="evenodd" clip-rule="evenodd" fill="#FFFFFF" d="M143.35,15.211c0.066,0,0.136,0.097,0,0.12
		C143.35,15.291,143.35,15.251,143.35,15.211z"/>
	<path fill-rule="evenodd" clip-rule="evenodd" fill="#FFFFFF" d="M142.152,15.331C142.164,15.476,141.978,15.404,142.152,15.331
		L142.152,15.331z"/>
	<path fill-rule="evenodd" clip-rule="evenodd" fill="#FFFFFF" d="M142.032,25.148C142.021,25.003,142.206,25.074,142.032,25.148
		L142.032,25.148z"/>
	<path fill-rule="evenodd" clip-rule="evenodd" d="M141.912,25.148C141.925,25.292,141.738,25.221,141.912,25.148L141.912,25.148z"
		/>
	<path fill-rule="evenodd" clip-rule="evenodd" fill="#FFFFFF" d="M141.554,15.331c0.066,0,0.136,0.097,0,0.12
		C141.554,15.411,141.554,15.371,141.554,15.331z"/>
	<path fill-rule="evenodd" clip-rule="evenodd" fill="#FFFFFF" d="M139.519,15.331C139.663,15.318,139.592,15.505,139.519,15.331
		L139.519,15.331z"/>
	<path fill-rule="evenodd" clip-rule="evenodd" d="M138.561,15.57c-0.093-0.027-0.236-0.003-0.239-0.12
		C138.414,15.478,138.557,15.454,138.561,15.57z"/>
	<path fill-rule="evenodd" clip-rule="evenodd" d="M137.004,15.69C137.055,15.64,136.926,15.769,137.004,15.69L137.004,15.69z"/>
	<path fill-rule="evenodd" clip-rule="evenodd" d="M129.94,15.69C129.991,15.64,129.862,15.769,129.94,15.69L129.94,15.69z"/>
	<path fill-rule="evenodd" clip-rule="evenodd" fill="#FFFFFF" d="M127.427,15.81C127.571,15.797,127.5,15.984,127.427,15.81
		L127.427,15.81z"/>
	<path fill-rule="evenodd" clip-rule="evenodd" fill="#FFFFFF" d="M126.109,16.289C126.254,16.276,126.184,16.462,126.109,16.289
		L126.109,16.289z"/>
	<path fill-rule="evenodd" clip-rule="evenodd" d="M125.511,15.929C125.562,15.879,125.433,16.008,125.511,15.929L125.511,15.929z"
		/>
	<path fill-rule="evenodd" clip-rule="evenodd" d="M125.271,25.866C125.322,25.816,125.193,25.944,125.271,25.866L125.271,25.866z"
		/>
	<path fill-rule="evenodd" clip-rule="evenodd" d="M125.271,26.105C125.322,26.055,125.193,26.184,125.271,26.105L125.271,26.105z"
		/>
	<path fill-rule="evenodd" clip-rule="evenodd" fill="#FFFFFF" d="M124.313,16.169c-0.007,0.073-0.018,0.142-0.119,0.12
		C124.201,16.215,124.212,16.147,124.313,16.169z"/>
	<path fill-rule="evenodd" clip-rule="evenodd" d="M120.004,15.929C120.054,15.879,119.926,16.008,120.004,15.929L120.004,15.929z"
		/>
	<path fill-rule="evenodd" clip-rule="evenodd" d="M119.765,16.169c-0.066,0-0.136-0.097,0-0.12
		C119.765,16.089,119.765,16.129,119.765,16.169z"/>
	<path fill-rule="evenodd" clip-rule="evenodd" d="M118.807,16.289C118.662,16.301,118.733,16.114,118.807,16.289L118.807,16.289z"
		/>
	<path fill-rule="evenodd" clip-rule="evenodd" d="M117.609,26.345C117.754,26.333,117.684,26.519,117.609,26.345L117.609,26.345z"
		/>
	<path fill-rule="evenodd" clip-rule="evenodd" d="M116.651,16.169C117.125,16.308,116.179,16.308,116.651,16.169L116.651,16.169z"
		/>
	<path fill-rule="evenodd" clip-rule="evenodd" fill="#FFFFFF" d="M116.412,26.345C116.4,26.2,116.586,26.271,116.412,26.345
		L116.412,26.345z"/>
	<path fill-rule="evenodd" clip-rule="evenodd" d="M116.293,16.049c0.123,0.402-0.373,0.187-0.599,0.24
		C115.796,16.11,116.079,16.115,116.293,16.049z"/>
	<path fill-rule="evenodd" clip-rule="evenodd" fill="#FFFFFF" d="M115.574,26.345c-0.08,0-0.159,0-0.239,0
		C115.336,26.224,115.545,26.194,115.574,26.345z"/>
	<path fill-rule="evenodd" clip-rule="evenodd" d="M115.574,26.345c-0.001,0.121-0.21,0.151-0.239,0
		C115.415,26.345,115.494,26.345,115.574,26.345z"/>
	<path fill-rule="evenodd" clip-rule="evenodd" d="M115.215,15.69C115.266,15.64,115.137,15.769,115.215,15.69L115.215,15.69z"/>
	<path fill-rule="evenodd" clip-rule="evenodd" fill="#FFFFFF" d="M113.18,16.408c0,0.066-0.097,0.136-0.12,0
		C113.1,16.408,113.14,16.408,113.18,16.408z"/>
	<path fill-rule="evenodd" clip-rule="evenodd" fill="#FFFFFF" d="M113.18,26.465C113.035,26.477,113.106,26.291,113.18,26.465
		L113.18,26.465z"/>
	<path fill-rule="evenodd" clip-rule="evenodd" d="M111.624,16.408C111.967,16.488,110.574,16.166,111.624,16.408L111.624,16.408z"
		/>
	<path fill-rule="evenodd" clip-rule="evenodd" fill="#FFFFFF" d="M110.426,16.768C110.438,16.912,110.252,16.841,110.426,16.768
		L110.426,16.768z"/>
	<path fill-rule="evenodd" clip-rule="evenodd" fill="#FFFFFF" d="M109.708,26.704c-0.08,0-0.16,0-0.239,0
		C109.47,26.583,109.679,26.554,109.708,26.704z"/>
	<path fill-rule="evenodd" clip-rule="evenodd" d="M109.708,26.704c-0.001,0.121-0.21,0.15-0.239,0
		C109.548,26.704,109.628,26.704,109.708,26.704z"/>
	<path fill-rule="evenodd" clip-rule="evenodd" d="M109.109,16.528C109.16,16.478,109.031,16.606,109.109,16.528L109.109,16.528z"/>
	<path fill-rule="evenodd" clip-rule="evenodd" d="M107.313,26.824c0.067,0,0.136,0.097,0,0.12
		C107.313,26.904,107.313,26.864,107.313,26.824z"/>
	<path fill-rule="evenodd" clip-rule="evenodd" d="M106.715,26.824c0.066,0,0.136,0.097,0,0.12
		C106.715,26.904,106.715,26.864,106.715,26.824z"/>
	<path fill-rule="evenodd" clip-rule="evenodd" d="M106.595,16.647C106.646,16.598,106.517,16.726,106.595,16.647L106.595,16.647z"
		/>
	<path fill-rule="evenodd" clip-rule="evenodd" fill="#FFFFFF" d="M106.476,16.887C106.488,17.032,106.302,16.961,106.476,16.887
		L106.476,16.887z"/>
	<path fill-rule="evenodd" clip-rule="evenodd" d="M106.356,26.824C106.406,26.773,106.277,26.902,106.356,26.824L106.356,26.824z"
		/>
	<path fill-rule="evenodd" clip-rule="evenodd" d="M105.877,26.943C105.927,26.894,105.799,27.022,105.877,26.943L105.877,26.943z"
		/>
	<path fill-rule="evenodd" clip-rule="evenodd" d="M104.321,16.647C104.309,16.503,104.495,16.574,104.321,16.647L104.321,16.647z"
		/>
	<path fill-rule="evenodd" clip-rule="evenodd" d="M101.687,17.007c-0.066,0-0.136-0.097,0-0.12
		C101.687,16.927,101.687,16.967,101.687,17.007z"/>
	<path fill-rule="evenodd" clip-rule="evenodd" d="M100.37,27.662c0.667-0.223,0.76,0.749,0.479,1.077
		C100.96,28.109,100.444,28.106,100.37,27.662z"/>
	<path fill-rule="evenodd" clip-rule="evenodd" d="M100.13,16.887C100.181,16.837,100.052,16.966,100.13,16.887L100.13,16.887z"/>
	<path fill-rule="evenodd" clip-rule="evenodd" d="M99.412,17.126C99.462,17.076,99.334,17.205,99.412,17.126L99.412,17.126z"/>
	<path fill-rule="evenodd" clip-rule="evenodd" fill="#FFFFFF" d="M93.666,17.965C93.678,18.109,93.492,18.038,93.666,17.965
		L93.666,17.965z"/>
	<path fill-rule="evenodd" clip-rule="evenodd" d="M91.87,17.486c0.116,0.003,0.093,0.146,0.12,0.239
		C91.873,17.722,91.897,17.579,91.87,17.486z"/>
	<path fill-rule="evenodd" clip-rule="evenodd" fill="#FFFFFF" d="M90.313,17.965c0.066,0,0.136,0.097,0,0.12
		C90.313,18.044,90.313,18.004,90.313,17.965z"/>
	<path fill-rule="evenodd" clip-rule="evenodd" fill="#FFFFFF" d="M90.313,27.662C90.301,27.517,90.488,27.588,90.313,27.662
		L90.313,27.662z"/>
	<path fill-rule="evenodd" clip-rule="evenodd" fill="#FFFFFF" d="M89.955,27.662C89.942,27.517,90.128,27.588,89.955,27.662
		L89.955,27.662z"/>
	<path fill-rule="evenodd" clip-rule="evenodd" fill="#FFFFFF" d="M88.159,17.965C88.171,18.109,87.985,18.038,88.159,17.965
		L88.159,17.965z"/>
	<path fill-rule="evenodd" clip-rule="evenodd" d="M87.44,18.204c-0.141-0.019-0.34,0.021-0.359-0.12
		C87.222,18.103,87.421,18.063,87.44,18.204z"/>
	<path fill-rule="evenodd" clip-rule="evenodd" d="M86.004,17.965C85.992,17.82,86.178,17.891,86.004,17.965L86.004,17.965z"/>
	<path fill-rule="evenodd" clip-rule="evenodd" fill="#FFFFFF" d="M85.046,28.26c-0.04,0-0.08,0-0.12,0
		C84.926,28.194,85.023,28.125,85.046,28.26z"/>
	<path fill-rule="evenodd" clip-rule="evenodd" d="M84.926,28.26c0.04,0,0.08,0,0.12,0C85.046,28.327,84.949,28.396,84.926,28.26z"
		/>
	<path fill-rule="evenodd" clip-rule="evenodd" d="M84.447,28.26C84.498,28.21,84.369,28.339,84.447,28.26L84.447,28.26z"/>
	<path fill-rule="evenodd" clip-rule="evenodd" d="M83.25,18.084C83.3,18.034,83.172,18.163,83.25,18.084L83.25,18.084z"/>
	<path fill-rule="evenodd" clip-rule="evenodd" d="M78.821,28.859C78.833,29.004,78.646,28.933,78.821,28.859L78.821,28.859z"/>
	<path fill-rule="evenodd" clip-rule="evenodd" d="M76.187,18.443C76.66,18.582,75.714,18.582,76.187,18.443L76.187,18.443z"/>
	<path fill-rule="evenodd" clip-rule="evenodd" fill="#FFFFFF" d="M70.799,19.162C70.812,19.307,70.625,19.235,70.799,19.162
		L70.799,19.162z"/>
	<path fill-rule="evenodd" clip-rule="evenodd" fill="#FFFFFF" d="M69.961,29.099C69.949,28.954,70.135,29.025,69.961,29.099
		L69.961,29.099z"/>
	<path fill-rule="evenodd" clip-rule="evenodd" d="M68.884,19.042C68.934,18.992,68.806,19.121,68.884,19.042L68.884,19.042z"/>
	<path fill-rule="evenodd" clip-rule="evenodd" fill="#FFFFFF" d="M68.046,19.641C68.058,19.785,67.872,19.714,68.046,19.641
		L68.046,19.641z"/>
	<path fill-rule="evenodd" clip-rule="evenodd" d="M66.849,29.577C66.899,29.527,66.771,29.656,66.849,29.577L66.849,29.577z"/>
	<path fill-rule="evenodd" clip-rule="evenodd" fill="#FFFFFF" d="M64.574,29.817c0-0.066,0.097-0.136,0.12,0
		C64.654,29.817,64.614,29.817,64.574,29.817z"/>
	<path fill-rule="evenodd" clip-rule="evenodd" d="M63.976,29.817C64.12,29.805,64.049,29.991,63.976,29.817L63.976,29.817z"/>
	<path fill-rule="evenodd" clip-rule="evenodd" d="M61.94,30.056c0.093,0.027,0.236,0.003,0.239,0.12
		C62.087,30.149,61.943,30.173,61.94,30.056z"/>
	<path fill-rule="evenodd" clip-rule="evenodd" d="M60.264,30.296C60.314,30.246,60.186,30.374,60.264,30.296L60.264,30.296z"/>
	<path fill-rule="evenodd" clip-rule="evenodd" d="M60.145,19.521C60.195,19.471,60.066,19.6,60.145,19.521L60.145,19.521z"/>
	<path fill-rule="evenodd" clip-rule="evenodd" d="M60.025,19.76C60.075,19.71,59.946,19.839,60.025,19.76L60.025,19.76z"/>
	<path fill-rule="evenodd" clip-rule="evenodd" d="M59.666,19.88c-0.088,0.213-0.218,0.018-0.359,0
		c0.063-0.096,0.125-0.194,0.12-0.359C59.599,19.548,59.468,19.878,59.666,19.88z"/>
	<path fill-rule="evenodd" clip-rule="evenodd" d="M58.947,19.88C58.998,19.83,58.869,19.958,58.947,19.88L58.947,19.88z"/>
	<path fill-rule="evenodd" clip-rule="evenodd" d="M58.468,19.641C58.519,19.59,58.39,19.719,58.468,19.641L58.468,19.641z"/>
	<path fill-rule="evenodd" clip-rule="evenodd" d="M58.468,40.472c0.083,0.603-0.203,0.835-0.12,1.437
		C57.886,41.775,57.924,40.562,58.468,40.472z"/>
	<path fill-rule="evenodd" clip-rule="evenodd" d="M57.511,30.535C57.561,30.485,57.432,30.613,57.511,30.535L57.511,30.535z"/>
	<path fill-rule="evenodd" clip-rule="evenodd" d="M55.116,20C55.589,20.139,54.643,20.139,55.116,20L55.116,20z"/>
	<path fill-rule="evenodd" clip-rule="evenodd" fill="#FFFFFF" d="M52.243,20.838C52.255,20.982,52.069,20.912,52.243,20.838
		L52.243,20.838z"/>
	<path fill-rule="evenodd" clip-rule="evenodd" fill="#FFFFFF" d="M52.003,31.014c-0.04,0-0.08,0-0.12,0
		C51.883,30.947,51.981,30.878,52.003,31.014z"/>
	<path fill-rule="evenodd" clip-rule="evenodd" d="M51.884,31.014c0.04,0,0.08,0,0.12,0C52.004,31.081,51.907,31.15,51.884,31.014z"
		/>
	<path fill-rule="evenodd" clip-rule="evenodd" fill="#FFFFFF" d="M51.764,31.014c-0.04,0-0.08,0-0.12,0
		C51.644,30.947,51.741,30.878,51.764,31.014z"/>
	<path fill-rule="evenodd" clip-rule="evenodd" d="M51.645,31.014c0.04,0,0.08,0,0.12,0C51.765,31.081,51.667,31.15,51.645,31.014z"
		/>
	<path fill-rule="evenodd" clip-rule="evenodd" fill="#FFFFFF" d="M51.525,21.077C51.669,21.065,51.598,21.251,51.525,21.077
		L51.525,21.077z"/>
	<path fill-rule="evenodd" clip-rule="evenodd" fill="#FFFFFF" d="M49.729,31.134C49.717,30.989,49.903,31.06,49.729,31.134
		L49.729,31.134z"/>
	<path fill-rule="evenodd" clip-rule="evenodd" fill="#FFFFFF" d="M48.292,31.493c-0.04,0-0.08,0-0.12,0
		C48.172,31.426,48.27,31.357,48.292,31.493z"/>
	<path fill-rule="evenodd" clip-rule="evenodd" d="M48.172,31.493c0.04,0,0.08,0,0.12,0C48.292,31.56,48.195,31.629,48.172,31.493z"
		/>
	<path fill-rule="evenodd" clip-rule="evenodd" d="M46.137,31.852C46.188,31.802,46.059,31.931,46.137,31.852L46.137,31.852z"/>
	<path fill-rule="evenodd" clip-rule="evenodd" fill="#FFFFFF" d="M44.82,31.612C44.676,31.625,44.747,31.438,44.82,31.612
		L44.82,31.612z"/>
	<path fill-rule="evenodd" clip-rule="evenodd" d="M44.461,31.852C44.606,31.84,44.535,32.026,44.461,31.852L44.461,31.852z"/>
	<path fill-rule="evenodd" clip-rule="evenodd" d="M42.666,31.972C43.139,32.11,42.192,32.11,42.666,31.972L42.666,31.972z"/>
	<path fill-rule="evenodd" clip-rule="evenodd" d="M42.306,21.676c-0.066,0-0.136-0.097,0-0.12
		C42.306,21.596,42.306,21.636,42.306,21.676z"/>
	<path fill-rule="evenodd" clip-rule="evenodd" fill="#FFFFFF" d="M35.841,32.69c-0.066,0-0.136-0.097,0-0.12
		C35.841,32.61,35.841,32.65,35.841,32.69z"/>
	<path fill-rule="evenodd" clip-rule="evenodd" d="M35.363,22.394C35.351,22.25,35.537,22.32,35.363,22.394L35.363,22.394z"/>
	<path fill-rule="evenodd" clip-rule="evenodd" d="M32.25,33.408C32.3,33.358,32.171,33.487,32.25,33.408L32.25,33.408z"/>
	<path fill-rule="evenodd" clip-rule="evenodd" d="M28.658,33.768C28.803,33.755,28.732,33.941,28.658,33.768L28.658,33.768z"/>
	<path fill-rule="evenodd" clip-rule="evenodd" fill="#FFFFFF" d="M22.193,23.591C22.338,23.579,22.267,23.766,22.193,23.591
		L22.193,23.591z"/>
	<path fill-rule="evenodd" clip-rule="evenodd" fill="#FFFFFF" d="M21.834,34.605c-0.066,0-0.136-0.097,0-0.119
		C21.834,34.525,21.834,34.565,21.834,34.605z"/>
	<path fill-rule="evenodd" clip-rule="evenodd" fill="#FFFFFF" d="M21.116,34.725C20.972,34.737,21.042,34.551,21.116,34.725
		L21.116,34.725z"/>
	<path fill-rule="evenodd" clip-rule="evenodd" d="M20.637,23.711C20.625,23.566,20.811,23.638,20.637,23.711L20.637,23.711z"/>
	<path fill-rule="evenodd" clip-rule="evenodd" d="M18.602,35.084C18.747,35.072,18.676,35.258,18.602,35.084L18.602,35.084z"/>
	<path fill-rule="evenodd" clip-rule="evenodd" d="M17.644,35.324C17.694,35.273,17.566,35.402,17.644,35.324L17.644,35.324z"/>
	<path fill-rule="evenodd" clip-rule="evenodd" d="M16.926,35.443C17.399,35.582,16.453,35.582,16.926,35.443L16.926,35.443z"/>
	<path fill-rule="evenodd" clip-rule="evenodd" d="M16.687,23.831C16.674,23.686,16.86,23.757,16.687,23.831L16.687,23.831z"/>
	<path fill-rule="evenodd" clip-rule="evenodd" d="M15.489,35.684c0.066-0.001,0.136,0.096,0,0.119
		C15.489,35.763,15.489,35.723,15.489,35.684z"/>
	<path fill-rule="evenodd" clip-rule="evenodd" d="M12.975,53.761c-0.04,0-0.08,0-0.12,0c0.065-0.175-0.14-0.619,0.12-0.599
		C12.975,53.361,12.975,53.561,12.975,53.761z"/>
	<path fill-rule="evenodd" clip-rule="evenodd" d="M10.222,36.881C10.209,36.735,10.396,36.807,10.222,36.881L10.222,36.881z"/>
	<path fill-rule="evenodd" clip-rule="evenodd" d="M10.222,36.881C10.234,37.025,10.048,36.953,10.222,36.881L10.222,36.881z"/>
	<path fill-rule="evenodd" clip-rule="evenodd" d="M6.51,37.239C6.561,37.189,6.432,37.318,6.51,37.239L6.51,37.239z"/>
	<path fill-rule="evenodd" clip-rule="evenodd" d="M5.672,24.789C5.723,24.738,5.594,24.867,5.672,24.789L5.672,24.789z"/>
	<path fill-rule="evenodd" clip-rule="evenodd" d="M5.792,37.119c-0.104,0.302-0.906,0.523-1.197,0.24
		C4.578,36.863,5.428,37.234,5.792,37.119z"/>
	<path fill-rule="evenodd" clip-rule="evenodd" d="M5.433,24.669c0.116,0.003,0.093,0.146,0.12,0.239
		C5.436,24.905,5.459,24.762,5.433,24.669z"/>
	<path fill-rule="evenodd" clip-rule="evenodd" d="M4.116,24.789C4.166,24.738,4.038,24.867,4.116,24.789L4.116,24.789z"/>
	<path fill-rule="evenodd" clip-rule="evenodd" d="M2.201,25.746c0.006-0.073,0.018-0.142,0.12-0.12
		C2.313,25.7,2.302,25.769,2.201,25.746z"/>
	<path fill-rule="evenodd" clip-rule="evenodd" d="M1.243,36.401C1.293,36.352,1.165,36.479,1.243,36.401L1.243,36.401z"/>
	<path fill-rule="evenodd" clip-rule="evenodd" d="M0.165,35.684C0.215,35.633,0.087,35.762,0.165,35.684L0.165,35.684z"/>
	<path fill-rule="evenodd" clip-rule="evenodd" d="M-0.434,28.26C-0.383,28.21-0.512,28.339-0.434,28.26L-0.434,28.26z"/>
</g>
</svg>
